%TF.GenerationSoftware,KiCad,Pcbnew,10.0.1*%
%TF.CreationDate,2026-09-11T15:46:35+01:00*%
%TF.ProjectId,nice_pillz_niceview_v10,6e696365-5f70-4696-9c6c-7a5f6e696365,rev?*%
%TF.SameCoordinates,Original*%
%TF.FileFunction,Drillmap*%
%TF.FilePolarity,Positive*%
%FSLAX45Y45*%
G04 Gerber Fmt 4.5, Leading zero omitted, Abs format (unit mm)*
G04 Created by KiCad (PCBNEW 10.0.1) date 2026-09-11 15:46:35*
%MOMM*%
%LPD*%
G01*
G04 APERTURE LIST*
%ADD10C,0.200000*%
%ADD11C,0.100000*%
%ADD12C,0.109220*%
%ADD13C,0.110000*%
%ADD14C,0.120000*%
%ADD15C,0.430000*%
G04 APERTURE END LIST*
D10*
X10000000Y-5300000D02*
G75*
G02*
X10300000Y-5000000I300000J0D01*
G01*
X10000000Y-13300000D02*
X10000000Y-5300000D01*
X10300000Y-13600000D02*
G75*
G02*
X10000000Y-13300000I0J300000D01*
G01*
X10300000Y-13600000D02*
X19700000Y-13600000D01*
X19700000Y-5000000D02*
X10300000Y-5000000D01*
X19700000Y-5000000D02*
G75*
G02*
X20000000Y-5300000I0J-300000D01*
G01*
X20000000Y-13300000D02*
G75*
G02*
X19700000Y-13600000I-300000J0D01*
G01*
X20000000Y-13300000D02*
X20000000Y-5300000D01*
D11*
X12697500Y-8952500D02*
X12727500Y-8982500D01*
X12727500Y-8952500D02*
X12697500Y-8982500D01*
X12852500Y-10385000D02*
X12882500Y-10415000D01*
X12882500Y-10385000D02*
X12852500Y-10415000D01*
X12942500Y-9372500D02*
X12972500Y-9402500D01*
X12972500Y-9372500D02*
X12942500Y-9402500D01*
X13097750Y-7915000D02*
X13127750Y-7945000D01*
X13127750Y-7915000D02*
X13097750Y-7945000D01*
X13375000Y-7470000D02*
X13405000Y-7500000D01*
X13405000Y-7470000D02*
X13375000Y-7500000D01*
X13375000Y-8115000D02*
X13405000Y-8145000D01*
X13405000Y-8115000D02*
X13375000Y-8145000D01*
X13695000Y-8645000D02*
X13725000Y-8675000D01*
X13725000Y-8645000D02*
X13695000Y-8675000D01*
X13765000Y-8845000D02*
X13795000Y-8875000D01*
X13795000Y-8845000D02*
X13765000Y-8875000D01*
X13960000Y-10605000D02*
X13990000Y-10635000D01*
X13990000Y-10605000D02*
X13960000Y-10635000D01*
X13986750Y-7135000D02*
X14016750Y-7165000D01*
X14016750Y-7135000D02*
X13986750Y-7165000D01*
X14435000Y-10195000D02*
X14465000Y-10225000D01*
X14465000Y-10195000D02*
X14435000Y-10225000D01*
X15497500Y-10187500D02*
X15527500Y-10217500D01*
X15527500Y-10187500D02*
X15497500Y-10217500D01*
X15525000Y-7065000D02*
X15555000Y-7095000D01*
X15555000Y-7065000D02*
X15525000Y-7095000D01*
X15945000Y-10732500D02*
X15975000Y-10762500D01*
X15975000Y-10732500D02*
X15945000Y-10762500D01*
X16965000Y-9285000D02*
X16995000Y-9315000D01*
X16995000Y-9285000D02*
X16965000Y-9315000D01*
X17150500Y-6815000D02*
X17180500Y-6845000D01*
X17180500Y-6815000D02*
X17150500Y-6845000D01*
X17150500Y-7475000D02*
X17180500Y-7505000D01*
X17180500Y-7475000D02*
X17150500Y-7505000D01*
X17150500Y-7577000D02*
X17180500Y-7607000D01*
X17180500Y-7577000D02*
X17150500Y-7607000D01*
X18312500Y-7052500D02*
X18342500Y-7082500D01*
X18342500Y-7052500D02*
X18312500Y-7082500D01*
X18330000Y-8155000D02*
X18360000Y-8185000D01*
X18360000Y-8155000D02*
X18330000Y-8185000D01*
X18715000Y-7752500D02*
X18745000Y-7782500D01*
X18745000Y-7752500D02*
X18715000Y-7782500D01*
X18752500Y-7870000D02*
X18782500Y-7900000D01*
X18782500Y-7870000D02*
X18752500Y-7900000D01*
X10195670Y-7200900D02*
G75*
G02*
X10155670Y-7200900I-20000J0D01*
G01*
X10155670Y-7200900D02*
G75*
G02*
X10195670Y-7200900I20000J0D01*
G01*
X10309587Y-10670000D02*
G75*
G02*
X10269587Y-10670000I-20000J0D01*
G01*
X10269587Y-10670000D02*
G75*
G02*
X10309587Y-10670000I20000J0D01*
G01*
X10929300Y-11214100D02*
G75*
G02*
X10889300Y-11214100I-20000J0D01*
G01*
X10889300Y-11214100D02*
G75*
G02*
X10929300Y-11214100I20000J0D01*
G01*
X10967400Y-12077700D02*
G75*
G02*
X10927400Y-12077700I-20000J0D01*
G01*
X10927400Y-12077700D02*
G75*
G02*
X10967400Y-12077700I20000J0D01*
G01*
X11082500Y-10947500D02*
G75*
G02*
X11042500Y-10947500I-20000J0D01*
G01*
X11042500Y-10947500D02*
G75*
G02*
X11082500Y-10947500I20000J0D01*
G01*
X11090000Y-5620000D02*
G75*
G02*
X11050000Y-5620000I-20000J0D01*
G01*
X11050000Y-5620000D02*
G75*
G02*
X11090000Y-5620000I20000J0D01*
G01*
X11094431Y-12007500D02*
G75*
G02*
X11054431Y-12007500I-20000J0D01*
G01*
X11054431Y-12007500D02*
G75*
G02*
X11094431Y-12007500I20000J0D01*
G01*
X11192500Y-11337500D02*
G75*
G02*
X11152500Y-11337500I-20000J0D01*
G01*
X11152500Y-11337500D02*
G75*
G02*
X11192500Y-11337500I20000J0D01*
G01*
X11228900Y-5316100D02*
G75*
G02*
X11188900Y-5316100I-20000J0D01*
G01*
X11188900Y-5316100D02*
G75*
G02*
X11228900Y-5316100I20000J0D01*
G01*
X11234100Y-10990000D02*
G75*
G02*
X11194100Y-10990000I-20000J0D01*
G01*
X11194100Y-10990000D02*
G75*
G02*
X11234100Y-10990000I20000J0D01*
G01*
X11306600Y-11072500D02*
G75*
G02*
X11266600Y-11072500I-20000J0D01*
G01*
X11266600Y-11072500D02*
G75*
G02*
X11306600Y-11072500I20000J0D01*
G01*
X11460000Y-11810000D02*
G75*
G02*
X11420000Y-11810000I-20000J0D01*
G01*
X11420000Y-11810000D02*
G75*
G02*
X11460000Y-11810000I20000J0D01*
G01*
X11526130Y-11124200D02*
G75*
G02*
X11486130Y-11124200I-20000J0D01*
G01*
X11486130Y-11124200D02*
G75*
G02*
X11526130Y-11124200I20000J0D01*
G01*
X11556399Y-8153400D02*
G75*
G02*
X11516399Y-8153400I-20000J0D01*
G01*
X11516399Y-8153400D02*
G75*
G02*
X11556399Y-8153400I20000J0D01*
G01*
X11605020Y-11377650D02*
G75*
G02*
X11565020Y-11377650I-20000J0D01*
G01*
X11565020Y-11377650D02*
G75*
G02*
X11605020Y-11377650I20000J0D01*
G01*
X11628800Y-12265539D02*
G75*
G02*
X11588800Y-12265539I-20000J0D01*
G01*
X11588800Y-12265539D02*
G75*
G02*
X11628800Y-12265539I20000J0D01*
G01*
X11656399Y-8153400D02*
G75*
G02*
X11616399Y-8153400I-20000J0D01*
G01*
X11616399Y-8153400D02*
G75*
G02*
X11656399Y-8153400I20000J0D01*
G01*
X11700000Y-11282500D02*
G75*
G02*
X11660000Y-11282500I-20000J0D01*
G01*
X11660000Y-11282500D02*
G75*
G02*
X11700000Y-11282500I20000J0D01*
G01*
X11756400Y-8153400D02*
G75*
G02*
X11716400Y-8153400I-20000J0D01*
G01*
X11716400Y-8153400D02*
G75*
G02*
X11756400Y-8153400I20000J0D01*
G01*
X11805000Y-10450000D02*
G75*
G02*
X11765000Y-10450000I-20000J0D01*
G01*
X11765000Y-10450000D02*
G75*
G02*
X11805000Y-10450000I20000J0D01*
G01*
X11856400Y-8153400D02*
G75*
G02*
X11816400Y-8153400I-20000J0D01*
G01*
X11816400Y-8153400D02*
G75*
G02*
X11856400Y-8153400I20000J0D01*
G01*
X11915000Y-10412500D02*
G75*
G02*
X11875000Y-10412500I-20000J0D01*
G01*
X11875000Y-10412500D02*
G75*
G02*
X11915000Y-10412500I20000J0D01*
G01*
X11970700Y-8153400D02*
G75*
G02*
X11930700Y-8153400I-20000J0D01*
G01*
X11930700Y-8153400D02*
G75*
G02*
X11970700Y-8153400I20000J0D01*
G01*
X12046900Y-10692356D02*
G75*
G02*
X12006900Y-10692356I-20000J0D01*
G01*
X12006900Y-10692356D02*
G75*
G02*
X12046900Y-10692356I20000J0D01*
G01*
X12146900Y-10692356D02*
G75*
G02*
X12106900Y-10692356I-20000J0D01*
G01*
X12106900Y-10692356D02*
G75*
G02*
X12146900Y-10692356I20000J0D01*
G01*
X12246891Y-10693698D02*
G75*
G02*
X12206891Y-10693698I-20000J0D01*
G01*
X12206891Y-10693698D02*
G75*
G02*
X12246891Y-10693698I20000J0D01*
G01*
X12346891Y-10693323D02*
G75*
G02*
X12306891Y-10693323I-20000J0D01*
G01*
X12306891Y-10693323D02*
G75*
G02*
X12346891Y-10693323I20000J0D01*
G01*
X12580300Y-11912600D02*
G75*
G02*
X12540300Y-11912600I-20000J0D01*
G01*
X12540300Y-11912600D02*
G75*
G02*
X12580300Y-11912600I20000J0D01*
G01*
X12732700Y-6677500D02*
G75*
G02*
X12692700Y-6677500I-20000J0D01*
G01*
X12692700Y-6677500D02*
G75*
G02*
X12732700Y-6677500I20000J0D01*
G01*
X12859700Y-7327900D02*
G75*
G02*
X12819700Y-7327900I-20000J0D01*
G01*
X12819700Y-7327900D02*
G75*
G02*
X12859700Y-7327900I20000J0D01*
G01*
X13241000Y-6531500D02*
G75*
G02*
X13201000Y-6531500I-20000J0D01*
G01*
X13201000Y-6531500D02*
G75*
G02*
X13241000Y-6531500I20000J0D01*
G01*
X13380400Y-9182100D02*
G75*
G02*
X13340400Y-9182100I-20000J0D01*
G01*
X13340400Y-9182100D02*
G75*
G02*
X13380400Y-9182100I20000J0D01*
G01*
X13451500Y-11861800D02*
G75*
G02*
X13411500Y-11861800I-20000J0D01*
G01*
X13411500Y-11861800D02*
G75*
G02*
X13451500Y-11861800I20000J0D01*
G01*
X13495000Y-6604000D02*
G75*
G02*
X13455000Y-6604000I-20000J0D01*
G01*
X13455000Y-6604000D02*
G75*
G02*
X13495000Y-6604000I20000J0D01*
G01*
X13716078Y-7157322D02*
G75*
G02*
X13676078Y-7157322I-20000J0D01*
G01*
X13676078Y-7157322D02*
G75*
G02*
X13716078Y-7157322I20000J0D01*
G01*
X14280000Y-8822500D02*
G75*
G02*
X14240000Y-8822500I-20000J0D01*
G01*
X14240000Y-8822500D02*
G75*
G02*
X14280000Y-8822500I20000J0D01*
G01*
X16174400Y-7493000D02*
G75*
G02*
X16134400Y-7493000I-20000J0D01*
G01*
X16134400Y-7493000D02*
G75*
G02*
X16174400Y-7493000I20000J0D01*
G01*
X16301400Y-5410200D02*
G75*
G02*
X16261400Y-5410200I-20000J0D01*
G01*
X16261400Y-5410200D02*
G75*
G02*
X16301400Y-5410200I20000J0D01*
G01*
X16809400Y-9880600D02*
G75*
G02*
X16769400Y-9880600I-20000J0D01*
G01*
X16769400Y-9880600D02*
G75*
G02*
X16809400Y-9880600I20000J0D01*
G01*
X17774600Y-11785600D02*
G75*
G02*
X17734600Y-11785600I-20000J0D01*
G01*
X17734600Y-11785600D02*
G75*
G02*
X17774600Y-11785600I20000J0D01*
G01*
X18130200Y-5892800D02*
G75*
G02*
X18090200Y-5892800I-20000J0D01*
G01*
X18090200Y-5892800D02*
G75*
G02*
X18130200Y-5892800I20000J0D01*
G01*
X18841400Y-6485000D02*
G75*
G02*
X18801400Y-6485000I-20000J0D01*
G01*
X18801400Y-6485000D02*
G75*
G02*
X18841400Y-6485000I20000J0D01*
G01*
X18841400Y-10985500D02*
G75*
G02*
X18801400Y-10985500I-20000J0D01*
G01*
X18801400Y-10985500D02*
G75*
G02*
X18841400Y-10985500I20000J0D01*
G01*
X18866697Y-10884306D02*
G75*
G02*
X18826697Y-10884306I-20000J0D01*
G01*
X18826697Y-10884306D02*
G75*
G02*
X18866697Y-10884306I20000J0D01*
G01*
X18891319Y-10787385D02*
G75*
G02*
X18851319Y-10787385I-20000J0D01*
G01*
X18851319Y-10787385D02*
G75*
G02*
X18891319Y-10787385I20000J0D01*
G01*
X18904900Y-11379200D02*
G75*
G02*
X18864900Y-11379200I-20000J0D01*
G01*
X18864900Y-11379200D02*
G75*
G02*
X18904900Y-11379200I20000J0D01*
G01*
X18908396Y-10688853D02*
G75*
G02*
X18868396Y-10688853I-20000J0D01*
G01*
X18868396Y-10688853D02*
G75*
G02*
X18908396Y-10688853I20000J0D01*
G01*
X18962598Y-11510000D02*
G75*
G02*
X18922598Y-11510000I-20000J0D01*
G01*
X18922598Y-11510000D02*
G75*
G02*
X18962598Y-11510000I20000J0D01*
G01*
X19023770Y-11726230D02*
G75*
G02*
X18983770Y-11726230I-20000J0D01*
G01*
X18983770Y-11726230D02*
G75*
G02*
X19023770Y-11726230I20000J0D01*
G01*
X19350000Y-12184550D02*
G75*
G02*
X19310000Y-12184550I-20000J0D01*
G01*
X19310000Y-12184550D02*
G75*
G02*
X19350000Y-12184550I20000J0D01*
G01*
X19490000Y-6210000D02*
G75*
G02*
X19450000Y-6210000I-20000J0D01*
G01*
X19450000Y-6210000D02*
G75*
G02*
X19490000Y-6210000I20000J0D01*
G01*
X19500000Y-6700000D02*
G75*
G02*
X19460000Y-6700000I-20000J0D01*
G01*
X19460000Y-6700000D02*
G75*
G02*
X19500000Y-6700000I20000J0D01*
G01*
X19600000Y-6220000D02*
G75*
G02*
X19560000Y-6220000I-20000J0D01*
G01*
X19560000Y-6220000D02*
G75*
G02*
X19600000Y-6220000I20000J0D01*
G01*
X19625000Y-12257000D02*
G75*
G02*
X19585000Y-12257000I-20000J0D01*
G01*
X19585000Y-12257000D02*
G75*
G02*
X19625000Y-12257000I20000J0D01*
G01*
X19695461Y-11412037D02*
G75*
G02*
X19655461Y-11412037I-20000J0D01*
G01*
X19655461Y-11412037D02*
G75*
G02*
X19695461Y-11412037I20000J0D01*
G01*
X19705000Y-12103100D02*
G75*
G02*
X19665000Y-12103100I-20000J0D01*
G01*
X19665000Y-12103100D02*
G75*
G02*
X19705000Y-12103100I20000J0D01*
G01*
X10180000Y-10260000D02*
X10180000Y-10340000D01*
X10140000Y-10300000D02*
X10220000Y-10300000D01*
X10180000Y-10510000D02*
X10180000Y-10590000D01*
X10140000Y-10550000D02*
X10220000Y-10550000D01*
X10180000Y-10760000D02*
X10180000Y-10840000D01*
X10140000Y-10800000D02*
X10220000Y-10800000D01*
X10180000Y-11010000D02*
X10180000Y-11090000D01*
X10140000Y-11050000D02*
X10220000Y-11050000D01*
X10180000Y-11260000D02*
X10180000Y-11340000D01*
X10140000Y-11300000D02*
X10220000Y-11300000D01*
X10180000Y-11510000D02*
X10180000Y-11590000D01*
X10140000Y-11550000D02*
X10220000Y-11550000D01*
X10180000Y-11760000D02*
X10180000Y-11840000D01*
X10140000Y-11800000D02*
X10220000Y-11800000D01*
X10515000Y-10260000D02*
X10515000Y-10340000D01*
X10475000Y-10300000D02*
X10555000Y-10300000D01*
X10515000Y-10510000D02*
X10515000Y-10590000D01*
X10475000Y-10550000D02*
X10555000Y-10550000D01*
X10515000Y-10760000D02*
X10515000Y-10840000D01*
X10475000Y-10800000D02*
X10555000Y-10800000D01*
X10515000Y-11010000D02*
X10515000Y-11090000D01*
X10475000Y-11050000D02*
X10555000Y-11050000D01*
X10515000Y-11260000D02*
X10515000Y-11340000D01*
X10475000Y-11300000D02*
X10555000Y-11300000D01*
X10515000Y-11510000D02*
X10515000Y-11590000D01*
X10475000Y-11550000D02*
X10555000Y-11550000D01*
X10515000Y-11760000D02*
X10515000Y-11840000D01*
X10475000Y-11800000D02*
X10555000Y-11800000D01*
X10601300Y-12619000D02*
X10601300Y-12699000D01*
X10561300Y-12659000D02*
X10641300Y-12659000D01*
X10680000Y-10385000D02*
X10680000Y-10465000D01*
X10640000Y-10425000D02*
X10720000Y-10425000D01*
X10680000Y-10635000D02*
X10680000Y-10715000D01*
X10640000Y-10675000D02*
X10720000Y-10675000D01*
X10680000Y-10885000D02*
X10680000Y-10965000D01*
X10640000Y-10925000D02*
X10720000Y-10925000D01*
X10680000Y-11135000D02*
X10680000Y-11215000D01*
X10640000Y-11175000D02*
X10720000Y-11175000D01*
X10680000Y-11385000D02*
X10680000Y-11465000D01*
X10640000Y-11425000D02*
X10720000Y-11425000D01*
X10680000Y-11635000D02*
X10680000Y-11715000D01*
X10640000Y-11675000D02*
X10720000Y-11675000D01*
X10700000Y-5460000D02*
X10700000Y-5540000D01*
X10660000Y-5500000D02*
X10740000Y-5500000D01*
X10700000Y-5710000D02*
X10700000Y-5790000D01*
X10660000Y-5750000D02*
X10740000Y-5750000D01*
X10700000Y-5960000D02*
X10700000Y-6040000D01*
X10660000Y-6000000D02*
X10740000Y-6000000D01*
X10700000Y-6210000D02*
X10700000Y-6290000D01*
X10660000Y-6250000D02*
X10740000Y-6250000D01*
X10700000Y-6460000D02*
X10700000Y-6540000D01*
X10660000Y-6500000D02*
X10740000Y-6500000D01*
X10700000Y-6710000D02*
X10700000Y-6790000D01*
X10660000Y-6750000D02*
X10740000Y-6750000D01*
X10700000Y-6960000D02*
X10700000Y-7040000D01*
X10660000Y-7000000D02*
X10740000Y-7000000D01*
X10726300Y-12454000D02*
X10726300Y-12534000D01*
X10686300Y-12494000D02*
X10766300Y-12494000D01*
X10851300Y-12619000D02*
X10851300Y-12699000D01*
X10811300Y-12659000D02*
X10891300Y-12659000D01*
X10900000Y-5585000D02*
X10900000Y-5665000D01*
X10860000Y-5625000D02*
X10940000Y-5625000D01*
X10900000Y-5835000D02*
X10900000Y-5915000D01*
X10860000Y-5875000D02*
X10940000Y-5875000D01*
X10900000Y-6085000D02*
X10900000Y-6165000D01*
X10860000Y-6125000D02*
X10940000Y-6125000D01*
X10900000Y-6335000D02*
X10900000Y-6415000D01*
X10860000Y-6375000D02*
X10940000Y-6375000D01*
X10900000Y-6585000D02*
X10900000Y-6665000D01*
X10860000Y-6625000D02*
X10940000Y-6625000D01*
X10900000Y-6835000D02*
X10900000Y-6915000D01*
X10860000Y-6875000D02*
X10940000Y-6875000D01*
X10976300Y-12454000D02*
X10976300Y-12534000D01*
X10936300Y-12494000D02*
X11016300Y-12494000D01*
X11101300Y-12619000D02*
X11101300Y-12699000D01*
X11061300Y-12659000D02*
X11141300Y-12659000D01*
X11226300Y-12454000D02*
X11226300Y-12534000D01*
X11186300Y-12494000D02*
X11266300Y-12494000D01*
X11351300Y-12619000D02*
X11351300Y-12699000D01*
X11311300Y-12659000D02*
X11391300Y-12659000D01*
X11476300Y-12454000D02*
X11476300Y-12534000D01*
X11436300Y-12494000D02*
X11516300Y-12494000D01*
X11601300Y-12619000D02*
X11601300Y-12699000D01*
X11561300Y-12659000D02*
X11641300Y-12659000D01*
X11726300Y-12454000D02*
X11726300Y-12534000D01*
X11686300Y-12494000D02*
X11766300Y-12494000D01*
X11809500Y-6897375D02*
X11809500Y-6977375D01*
X11769500Y-6937375D02*
X11849500Y-6937375D01*
X11809500Y-7659375D02*
X11809500Y-7739375D01*
X11769500Y-7699375D02*
X11849500Y-7699375D01*
X11851300Y-12619000D02*
X11851300Y-12699000D01*
X11811300Y-12659000D02*
X11891300Y-12659000D01*
X11976300Y-12454000D02*
X11976300Y-12534000D01*
X11936300Y-12494000D02*
X12016300Y-12494000D01*
X12063500Y-6897375D02*
X12063500Y-6977375D01*
X12023500Y-6937375D02*
X12103500Y-6937375D01*
X12063500Y-7659375D02*
X12063500Y-7739375D01*
X12023500Y-7699375D02*
X12103500Y-7699375D01*
X12101300Y-12619000D02*
X12101300Y-12699000D01*
X12061300Y-12659000D02*
X12141300Y-12659000D01*
X12317500Y-6897375D02*
X12317500Y-6977375D01*
X12277500Y-6937375D02*
X12357500Y-6937375D01*
X12317500Y-7659375D02*
X12317500Y-7739375D01*
X12277500Y-7699375D02*
X12357500Y-7699375D01*
X12571500Y-6897375D02*
X12571500Y-6977375D01*
X12531500Y-6937375D02*
X12611500Y-6937375D01*
X12571500Y-7659375D02*
X12571500Y-7739375D01*
X12531500Y-7699375D02*
X12611500Y-7699375D01*
X12825500Y-6897375D02*
X12825500Y-6977375D01*
X12785500Y-6937375D02*
X12865500Y-6937375D01*
X12825500Y-7659375D02*
X12825500Y-7739375D01*
X12785500Y-7699375D02*
X12865500Y-7699375D01*
X13079500Y-6897375D02*
X13079500Y-6977375D01*
X13039500Y-6937375D02*
X13119500Y-6937375D01*
X13079500Y-7659375D02*
X13079500Y-7739375D01*
X13039500Y-7699375D02*
X13119500Y-7699375D01*
X13333500Y-6897375D02*
X13333500Y-6977375D01*
X13293500Y-6937375D02*
X13373500Y-6937375D01*
X13333500Y-7659375D02*
X13333500Y-7739375D01*
X13293500Y-7699375D02*
X13373500Y-7699375D01*
X13587500Y-6897375D02*
X13587500Y-6977375D01*
X13547500Y-6937375D02*
X13627500Y-6937375D01*
X13587500Y-7659375D02*
X13587500Y-7739375D01*
X13547500Y-7699375D02*
X13627500Y-7699375D01*
X15403000Y-5560000D02*
X15403000Y-5640000D01*
X15363000Y-5600000D02*
X15443000Y-5600000D01*
X16165000Y-5560000D02*
X16165000Y-5640000D01*
X16125000Y-5600000D02*
X16205000Y-5600000D01*
X17865700Y-12619000D02*
X17865700Y-12699000D01*
X17825700Y-12659000D02*
X17905700Y-12659000D01*
X17990700Y-12454000D02*
X17990700Y-12534000D01*
X17950700Y-12494000D02*
X18030700Y-12494000D01*
X18115700Y-12619000D02*
X18115700Y-12699000D01*
X18075700Y-12659000D02*
X18155700Y-12659000D01*
X18240700Y-12454000D02*
X18240700Y-12534000D01*
X18200700Y-12494000D02*
X18280700Y-12494000D01*
X18365700Y-12619000D02*
X18365700Y-12699000D01*
X18325700Y-12659000D02*
X18405700Y-12659000D01*
X18490700Y-12454000D02*
X18490700Y-12534000D01*
X18450700Y-12494000D02*
X18530700Y-12494000D01*
X18615700Y-12619000D02*
X18615700Y-12699000D01*
X18575700Y-12659000D02*
X18655700Y-12659000D01*
X18740700Y-12454000D02*
X18740700Y-12534000D01*
X18700700Y-12494000D02*
X18780700Y-12494000D01*
X18865700Y-12619000D02*
X18865700Y-12699000D01*
X18825700Y-12659000D02*
X18905700Y-12659000D01*
X18990700Y-12454000D02*
X18990700Y-12534000D01*
X18950700Y-12494000D02*
X19030700Y-12494000D01*
X19090000Y-5585000D02*
X19090000Y-5665000D01*
X19050000Y-5625000D02*
X19130000Y-5625000D01*
X19090000Y-5835000D02*
X19090000Y-5915000D01*
X19050000Y-5875000D02*
X19130000Y-5875000D01*
X19090000Y-6085000D02*
X19090000Y-6165000D01*
X19050000Y-6125000D02*
X19130000Y-6125000D01*
X19090000Y-6335000D02*
X19090000Y-6415000D01*
X19050000Y-6375000D02*
X19130000Y-6375000D01*
X19090000Y-6585000D02*
X19090000Y-6665000D01*
X19050000Y-6625000D02*
X19130000Y-6625000D01*
X19090000Y-6835000D02*
X19090000Y-6915000D01*
X19050000Y-6875000D02*
X19130000Y-6875000D01*
X19115700Y-12619000D02*
X19115700Y-12699000D01*
X19075700Y-12659000D02*
X19155700Y-12659000D01*
X19240700Y-12454000D02*
X19240700Y-12534000D01*
X19200700Y-12494000D02*
X19280700Y-12494000D01*
X19290000Y-5460000D02*
X19290000Y-5540000D01*
X19250000Y-5500000D02*
X19330000Y-5500000D01*
X19290000Y-5710000D02*
X19290000Y-5790000D01*
X19250000Y-5750000D02*
X19330000Y-5750000D01*
X19290000Y-5960000D02*
X19290000Y-6040000D01*
X19250000Y-6000000D02*
X19330000Y-6000000D01*
X19290000Y-6210000D02*
X19290000Y-6290000D01*
X19250000Y-6250000D02*
X19330000Y-6250000D01*
X19290000Y-6460000D02*
X19290000Y-6540000D01*
X19250000Y-6500000D02*
X19330000Y-6500000D01*
X19290000Y-6710000D02*
X19290000Y-6790000D01*
X19250000Y-6750000D02*
X19330000Y-6750000D01*
X19290000Y-6960000D02*
X19290000Y-7040000D01*
X19250000Y-7000000D02*
X19330000Y-7000000D01*
X19330000Y-10385000D02*
X19330000Y-10465000D01*
X19290000Y-10425000D02*
X19370000Y-10425000D01*
X19330000Y-10635000D02*
X19330000Y-10715000D01*
X19290000Y-10675000D02*
X19370000Y-10675000D01*
X19330000Y-10885000D02*
X19330000Y-10965000D01*
X19290000Y-10925000D02*
X19370000Y-10925000D01*
X19330000Y-11135000D02*
X19330000Y-11215000D01*
X19290000Y-11175000D02*
X19370000Y-11175000D01*
X19330000Y-11385000D02*
X19330000Y-11465000D01*
X19290000Y-11425000D02*
X19370000Y-11425000D01*
X19330000Y-11635000D02*
X19330000Y-11715000D01*
X19290000Y-11675000D02*
X19370000Y-11675000D01*
X19365700Y-12619000D02*
X19365700Y-12699000D01*
X19325700Y-12659000D02*
X19405700Y-12659000D01*
X19495000Y-10260000D02*
X19495000Y-10340000D01*
X19455000Y-10300000D02*
X19535000Y-10300000D01*
X19495000Y-10510000D02*
X19495000Y-10590000D01*
X19455000Y-10550000D02*
X19535000Y-10550000D01*
X19495000Y-10760000D02*
X19495000Y-10840000D01*
X19455000Y-10800000D02*
X19535000Y-10800000D01*
X19495000Y-11010000D02*
X19495000Y-11090000D01*
X19455000Y-11050000D02*
X19535000Y-11050000D01*
X19495000Y-11260000D02*
X19495000Y-11340000D01*
X19455000Y-11300000D02*
X19535000Y-11300000D01*
X19495000Y-11510000D02*
X19495000Y-11590000D01*
X19455000Y-11550000D02*
X19535000Y-11550000D01*
X19495000Y-11760000D02*
X19495000Y-11840000D01*
X19455000Y-11800000D02*
X19535000Y-11800000D01*
X19830000Y-10260000D02*
X19830000Y-10340000D01*
X19790000Y-10300000D02*
X19870000Y-10300000D01*
X19830000Y-10510000D02*
X19830000Y-10590000D01*
X19790000Y-10550000D02*
X19870000Y-10550000D01*
X19830000Y-10760000D02*
X19830000Y-10840000D01*
X19790000Y-10800000D02*
X19870000Y-10800000D01*
X19830000Y-11010000D02*
X19830000Y-11090000D01*
X19790000Y-11050000D02*
X19870000Y-11050000D01*
X19830000Y-11260000D02*
X19830000Y-11340000D01*
X19790000Y-11300000D02*
X19870000Y-11300000D01*
X19830000Y-11510000D02*
X19830000Y-11590000D01*
X19790000Y-11550000D02*
X19870000Y-11550000D01*
X19830000Y-11760000D02*
X19830000Y-11840000D01*
X19790000Y-11800000D02*
X19870000Y-11800000D01*
X13401820Y-13271820D02*
X13401820Y-13208180D01*
X13338180Y-13208180D01*
X13338180Y-13271820D01*
X13401820Y-13271820D01*
X13655820Y-13271820D02*
X13655820Y-13208180D01*
X13592180Y-13208180D01*
X13592180Y-13271820D01*
X13655820Y-13271820D01*
X14401820Y-13271820D02*
X14401820Y-13208180D01*
X14338180Y-13208180D01*
X14338180Y-13271820D01*
X14401820Y-13271820D01*
X14655820Y-13271820D02*
X14655820Y-13208180D01*
X14592180Y-13208180D01*
X14592180Y-13271820D01*
X14655820Y-13271820D01*
X10334000Y-12950000D02*
X10384000Y-12900000D01*
X10334000Y-12850000D01*
X10284000Y-12900000D01*
X10334000Y-12950000D01*
X10588000Y-12950000D02*
X10638000Y-12900000D01*
X10588000Y-12850000D01*
X10538000Y-12900000D01*
X10588000Y-12950000D01*
X10842000Y-12950000D02*
X10892000Y-12900000D01*
X10842000Y-12850000D01*
X10792000Y-12900000D01*
X10842000Y-12950000D01*
X11096000Y-12950000D02*
X11146000Y-12900000D01*
X11096000Y-12850000D01*
X11046000Y-12900000D01*
X11096000Y-12950000D01*
X11350000Y-12950000D02*
X11400000Y-12900000D01*
X11350000Y-12850000D01*
X11300000Y-12900000D01*
X11350000Y-12950000D01*
X11604000Y-12950000D02*
X11654000Y-12900000D01*
X11604000Y-12850000D01*
X11554000Y-12900000D01*
X11604000Y-12950000D01*
X11858000Y-12950000D02*
X11908000Y-12900000D01*
X11858000Y-12850000D01*
X11808000Y-12900000D01*
X11858000Y-12950000D01*
X12112000Y-12950000D02*
X12162000Y-12900000D01*
X12112000Y-12850000D01*
X12062000Y-12900000D01*
X12112000Y-12950000D01*
X12366000Y-12950000D02*
X12416000Y-12900000D01*
X12366000Y-12850000D01*
X12316000Y-12900000D01*
X12366000Y-12950000D01*
X12620000Y-12950000D02*
X12670000Y-12900000D01*
X12620000Y-12850000D01*
X12570000Y-12900000D01*
X12620000Y-12950000D01*
X13504000Y-12110000D02*
X13554000Y-12060000D01*
X13504000Y-12010000D01*
X13454000Y-12060000D01*
X13504000Y-12110000D01*
X13504000Y-12890000D02*
X13554000Y-12840000D01*
X13504000Y-12790000D01*
X13454000Y-12840000D01*
X13504000Y-12890000D01*
X14504000Y-12110000D02*
X14554000Y-12060000D01*
X14504000Y-12010000D01*
X14454000Y-12060000D01*
X14504000Y-12110000D01*
X14504000Y-12890000D02*
X14554000Y-12840000D01*
X14504000Y-12790000D01*
X14454000Y-12840000D01*
X14504000Y-12890000D01*
X15911000Y-6070000D02*
X15961000Y-6020000D01*
X15911000Y-5970000D01*
X15861000Y-6020000D01*
X15911000Y-6070000D01*
X16000000Y-6880000D02*
X16050000Y-6830000D01*
X16000000Y-6780000D01*
X15950000Y-6830000D01*
X16000000Y-6880000D01*
X16000000Y-7134000D02*
X16050000Y-7084000D01*
X16000000Y-7034000D01*
X15950000Y-7084000D01*
X16000000Y-7134000D01*
X16000000Y-7388000D02*
X16050000Y-7338000D01*
X16000000Y-7288000D01*
X15950000Y-7338000D01*
X16000000Y-7388000D01*
X16000000Y-7642000D02*
X16050000Y-7592000D01*
X16000000Y-7542000D01*
X15950000Y-7592000D01*
X16000000Y-7642000D01*
X16000000Y-7896000D02*
X16050000Y-7846000D01*
X16000000Y-7796000D01*
X15950000Y-7846000D01*
X16000000Y-7896000D01*
X16165000Y-6070000D02*
X16215000Y-6020000D01*
X16165000Y-5970000D01*
X16115000Y-6020000D01*
X16165000Y-6070000D01*
X17380000Y-12950000D02*
X17430000Y-12900000D01*
X17380000Y-12850000D01*
X17330000Y-12900000D01*
X17380000Y-12950000D01*
X17634000Y-12950000D02*
X17684000Y-12900000D01*
X17634000Y-12850000D01*
X17584000Y-12900000D01*
X17634000Y-12950000D01*
X17888000Y-12950000D02*
X17938000Y-12900000D01*
X17888000Y-12850000D01*
X17838000Y-12900000D01*
X17888000Y-12950000D01*
X18142000Y-12950000D02*
X18192000Y-12900000D01*
X18142000Y-12850000D01*
X18092000Y-12900000D01*
X18142000Y-12950000D01*
X18396000Y-12950000D02*
X18446000Y-12900000D01*
X18396000Y-12850000D01*
X18346000Y-12900000D01*
X18396000Y-12950000D01*
X18650000Y-12950000D02*
X18700000Y-12900000D01*
X18650000Y-12850000D01*
X18600000Y-12900000D01*
X18650000Y-12950000D01*
X18904000Y-12950000D02*
X18954000Y-12900000D01*
X18904000Y-12850000D01*
X18854000Y-12900000D01*
X18904000Y-12950000D01*
X19158000Y-12950000D02*
X19208000Y-12900000D01*
X19158000Y-12850000D01*
X19108000Y-12900000D01*
X19158000Y-12950000D01*
X19412000Y-12950000D02*
X19462000Y-12900000D01*
X19412000Y-12850000D01*
X19362000Y-12900000D01*
X19412000Y-12950000D01*
X19666000Y-12950000D02*
X19716000Y-12900000D01*
X19666000Y-12850000D01*
X19616000Y-12900000D01*
X19666000Y-12950000D01*
D12*
X11915140Y-8279765D02*
X12024360Y-8388985D01*
X12024360Y-8279765D02*
X11915140Y-8388985D01*
X12024360Y-8334375D02*
G75*
G02*
X11915140Y-8334375I-54610J0D01*
G01*
X11915140Y-8334375D02*
G75*
G02*
X12024360Y-8334375I54610J0D01*
G01*
X11915140Y-9803765D02*
X12024360Y-9912985D01*
X12024360Y-9803765D02*
X11915140Y-9912985D01*
X12024360Y-9858375D02*
G75*
G02*
X11915140Y-9858375I-54610J0D01*
G01*
X11915140Y-9858375D02*
G75*
G02*
X12024360Y-9858375I54610J0D01*
G01*
X12169140Y-8279765D02*
X12278360Y-8388985D01*
X12278360Y-8279765D02*
X12169140Y-8388985D01*
X12278360Y-8334375D02*
G75*
G02*
X12169140Y-8334375I-54610J0D01*
G01*
X12169140Y-8334375D02*
G75*
G02*
X12278360Y-8334375I54610J0D01*
G01*
X12169140Y-9803765D02*
X12278360Y-9912985D01*
X12278360Y-9803765D02*
X12169140Y-9912985D01*
X12278360Y-9858375D02*
G75*
G02*
X12169140Y-9858375I-54610J0D01*
G01*
X12169140Y-9858375D02*
G75*
G02*
X12278360Y-9858375I54610J0D01*
G01*
X12423140Y-8279765D02*
X12532360Y-8388985D01*
X12532360Y-8279765D02*
X12423140Y-8388985D01*
X12532360Y-8334375D02*
G75*
G02*
X12423140Y-8334375I-54610J0D01*
G01*
X12423140Y-8334375D02*
G75*
G02*
X12532360Y-8334375I54610J0D01*
G01*
X12423140Y-9041765D02*
X12532360Y-9150985D01*
X12532360Y-9041765D02*
X12423140Y-9150985D01*
X12532360Y-9096375D02*
G75*
G02*
X12423140Y-9096375I-54610J0D01*
G01*
X12423140Y-9096375D02*
G75*
G02*
X12532360Y-9096375I54610J0D01*
G01*
X12423140Y-9295765D02*
X12532360Y-9404985D01*
X12532360Y-9295765D02*
X12423140Y-9404985D01*
X12532360Y-9350375D02*
G75*
G02*
X12423140Y-9350375I-54610J0D01*
G01*
X12423140Y-9350375D02*
G75*
G02*
X12532360Y-9350375I54610J0D01*
G01*
X12423140Y-9549765D02*
X12532360Y-9658985D01*
X12532360Y-9549765D02*
X12423140Y-9658985D01*
X12532360Y-9604375D02*
G75*
G02*
X12423140Y-9604375I-54610J0D01*
G01*
X12423140Y-9604375D02*
G75*
G02*
X12532360Y-9604375I54610J0D01*
G01*
X12423140Y-9803765D02*
X12532360Y-9912985D01*
X12532360Y-9803765D02*
X12423140Y-9912985D01*
X12532360Y-9858375D02*
G75*
G02*
X12423140Y-9858375I-54610J0D01*
G01*
X12423140Y-9858375D02*
G75*
G02*
X12532360Y-9858375I54610J0D01*
G01*
X12677140Y-8279765D02*
X12786360Y-8388985D01*
X12786360Y-8279765D02*
X12677140Y-8388985D01*
X12786360Y-8334375D02*
G75*
G02*
X12677140Y-8334375I-54610J0D01*
G01*
X12677140Y-8334375D02*
G75*
G02*
X12786360Y-8334375I54610J0D01*
G01*
X12677140Y-9803765D02*
X12786360Y-9912985D01*
X12786360Y-9803765D02*
X12677140Y-9912985D01*
X12786360Y-9858375D02*
G75*
G02*
X12677140Y-9858375I-54610J0D01*
G01*
X12677140Y-9858375D02*
G75*
G02*
X12786360Y-9858375I54610J0D01*
G01*
X12931140Y-8279765D02*
X13040360Y-8388985D01*
X13040360Y-8279765D02*
X12931140Y-8388985D01*
X13040360Y-8334375D02*
G75*
G02*
X12931140Y-8334375I-54610J0D01*
G01*
X12931140Y-8334375D02*
G75*
G02*
X13040360Y-8334375I54610J0D01*
G01*
X12931140Y-9803765D02*
X13040360Y-9912985D01*
X13040360Y-9803765D02*
X12931140Y-9912985D01*
X13040360Y-9858375D02*
G75*
G02*
X12931140Y-9858375I-54610J0D01*
G01*
X12931140Y-9858375D02*
G75*
G02*
X13040360Y-9858375I54610J0D01*
G01*
X13185140Y-8279765D02*
X13294360Y-8388985D01*
X13294360Y-8279765D02*
X13185140Y-8388985D01*
X13294360Y-8334375D02*
G75*
G02*
X13185140Y-8334375I-54610J0D01*
G01*
X13185140Y-8334375D02*
G75*
G02*
X13294360Y-8334375I54610J0D01*
G01*
X13185140Y-9803765D02*
X13294360Y-9912985D01*
X13294360Y-9803765D02*
X13185140Y-9912985D01*
X13294360Y-9858375D02*
G75*
G02*
X13185140Y-9858375I-54610J0D01*
G01*
X13185140Y-9858375D02*
G75*
G02*
X13294360Y-9858375I54610J0D01*
G01*
X13439140Y-8279765D02*
X13548360Y-8388985D01*
X13548360Y-8279765D02*
X13439140Y-8388985D01*
X13548360Y-8334375D02*
G75*
G02*
X13439140Y-8334375I-54610J0D01*
G01*
X13439140Y-8334375D02*
G75*
G02*
X13548360Y-8334375I54610J0D01*
G01*
X13439140Y-9803765D02*
X13548360Y-9912985D01*
X13548360Y-9803765D02*
X13439140Y-9912985D01*
X13548360Y-9858375D02*
G75*
G02*
X13439140Y-9858375I-54610J0D01*
G01*
X13439140Y-9858375D02*
G75*
G02*
X13548360Y-9858375I54610J0D01*
G01*
X13693140Y-8279765D02*
X13802360Y-8388985D01*
X13802360Y-8279765D02*
X13693140Y-8388985D01*
X13802360Y-8334375D02*
G75*
G02*
X13693140Y-8334375I-54610J0D01*
G01*
X13693140Y-8334375D02*
G75*
G02*
X13802360Y-8334375I54610J0D01*
G01*
X13693140Y-9803765D02*
X13802360Y-9912985D01*
X13802360Y-9803765D02*
X13693140Y-9912985D01*
X13802360Y-9858375D02*
G75*
G02*
X13693140Y-9858375I-54610J0D01*
G01*
X13693140Y-9858375D02*
G75*
G02*
X13802360Y-9858375I54610J0D01*
G01*
X13947140Y-8279765D02*
X14056360Y-8388985D01*
X14056360Y-8279765D02*
X13947140Y-8388985D01*
X14056360Y-8334375D02*
G75*
G02*
X13947140Y-8334375I-54610J0D01*
G01*
X13947140Y-8334375D02*
G75*
G02*
X14056360Y-8334375I54610J0D01*
G01*
X13947140Y-9803765D02*
X14056360Y-9912985D01*
X14056360Y-9803765D02*
X13947140Y-9912985D01*
X14056360Y-9858375D02*
G75*
G02*
X13947140Y-9858375I-54610J0D01*
G01*
X13947140Y-9858375D02*
G75*
G02*
X14056360Y-9858375I54610J0D01*
G01*
X14201140Y-8279765D02*
X14310360Y-8388985D01*
X14310360Y-8279765D02*
X14201140Y-8388985D01*
X14310360Y-8334375D02*
G75*
G02*
X14201140Y-8334375I-54610J0D01*
G01*
X14201140Y-8334375D02*
G75*
G02*
X14310360Y-8334375I54610J0D01*
G01*
X14201140Y-9803765D02*
X14310360Y-9912985D01*
X14310360Y-9803765D02*
X14201140Y-9912985D01*
X14310360Y-9858375D02*
G75*
G02*
X14201140Y-9858375I-54610J0D01*
G01*
X14201140Y-9858375D02*
G75*
G02*
X14310360Y-9858375I54610J0D01*
G01*
X14455140Y-8279765D02*
X14564360Y-8388985D01*
X14564360Y-8279765D02*
X14455140Y-8388985D01*
X14564360Y-8334375D02*
G75*
G02*
X14455140Y-8334375I-54610J0D01*
G01*
X14455140Y-8334375D02*
G75*
G02*
X14564360Y-8334375I54610J0D01*
G01*
X14455140Y-9803765D02*
X14564360Y-9912985D01*
X14564360Y-9803765D02*
X14455140Y-9912985D01*
X14564360Y-9858375D02*
G75*
G02*
X14455140Y-9858375I-54610J0D01*
G01*
X14455140Y-9858375D02*
G75*
G02*
X14564360Y-9858375I54610J0D01*
G01*
X14709140Y-8279765D02*
X14818360Y-8388985D01*
X14818360Y-8279765D02*
X14709140Y-8388985D01*
X14818360Y-8334375D02*
G75*
G02*
X14709140Y-8334375I-54610J0D01*
G01*
X14709140Y-8334375D02*
G75*
G02*
X14818360Y-8334375I54610J0D01*
G01*
X14709140Y-9803765D02*
X14818360Y-9912985D01*
X14818360Y-9803765D02*
X14709140Y-9912985D01*
X14818360Y-9858375D02*
G75*
G02*
X14709140Y-9858375I-54610J0D01*
G01*
X14709140Y-9858375D02*
G75*
G02*
X14818360Y-9858375I54610J0D01*
G01*
X14963140Y-8279765D02*
X15072360Y-8388985D01*
X15072360Y-8279765D02*
X14963140Y-8388985D01*
X15072360Y-8334375D02*
G75*
G02*
X14963140Y-8334375I-54610J0D01*
G01*
X14963140Y-8334375D02*
G75*
G02*
X15072360Y-8334375I54610J0D01*
G01*
X14963140Y-9803765D02*
X15072360Y-9912985D01*
X15072360Y-9803765D02*
X14963140Y-9912985D01*
X15072360Y-9858375D02*
G75*
G02*
X14963140Y-9858375I-54610J0D01*
G01*
X14963140Y-9858375D02*
G75*
G02*
X15072360Y-9858375I54610J0D01*
G01*
D13*
X13340000Y-5512500D02*
X13450000Y-5622500D01*
X13450000Y-5512500D02*
X13340000Y-5622500D01*
X13395000Y-5512500D02*
X13395000Y-5622500D01*
X13340000Y-5567500D02*
X13450000Y-5567500D01*
X13340000Y-5962500D02*
X13450000Y-6072500D01*
X13450000Y-5962500D02*
X13340000Y-6072500D01*
X13395000Y-5962500D02*
X13395000Y-6072500D01*
X13340000Y-6017500D02*
X13450000Y-6017500D01*
X13990000Y-5512500D02*
X14100000Y-5622500D01*
X14100000Y-5512500D02*
X13990000Y-5622500D01*
X14045000Y-5512500D02*
X14045000Y-5622500D01*
X13990000Y-5567500D02*
X14100000Y-5567500D01*
X13990000Y-5962500D02*
X14100000Y-6072500D01*
X14100000Y-5962500D02*
X13990000Y-6072500D01*
X14045000Y-5962500D02*
X14045000Y-6072500D01*
X13990000Y-6017500D02*
X14100000Y-6017500D01*
D14*
X16468500Y-12750000D02*
X16588500Y-12870000D01*
X16588500Y-12750000D02*
X16468500Y-12870000D01*
X16570927Y-12852427D02*
X16570927Y-12767573D01*
X16486073Y-12767573D01*
X16486073Y-12852427D01*
X16570927Y-12852427D01*
X16722500Y-12750000D02*
X16842500Y-12870000D01*
X16842500Y-12750000D02*
X16722500Y-12870000D01*
X16824927Y-12852427D02*
X16824927Y-12767573D01*
X16740073Y-12767573D01*
X16740073Y-12852427D01*
X16824927Y-12852427D01*
X16978500Y-5972500D02*
X17098500Y-6092500D01*
X17098500Y-5972500D02*
X16978500Y-6092500D01*
X17080927Y-6074927D02*
X17080927Y-5990073D01*
X16996073Y-5990073D01*
X16996073Y-6074927D01*
X17080927Y-6074927D01*
X17232500Y-5972500D02*
X17352500Y-6092500D01*
X17352500Y-5972500D02*
X17232500Y-6092500D01*
X17334927Y-6074927D02*
X17334927Y-5990073D01*
X17250073Y-5990073D01*
X17250073Y-6074927D01*
X17334927Y-6074927D01*
D15*
X14785000Y-10385000D02*
X15215000Y-10815000D01*
X15215000Y-10385000D02*
X14785000Y-10815000D01*
X15000000Y-10815000D02*
X15215000Y-10600000D01*
X15000000Y-10385000D01*
X14785000Y-10600000D01*
X15000000Y-10815000D01*
D10*
X10250777Y-13921484D02*
X10250777Y-13721484D01*
X10250777Y-13721484D02*
X10298396Y-13721484D01*
X10298396Y-13721484D02*
X10326967Y-13731008D01*
X10326967Y-13731008D02*
X10346015Y-13750055D01*
X10346015Y-13750055D02*
X10355539Y-13769103D01*
X10355539Y-13769103D02*
X10365063Y-13807198D01*
X10365063Y-13807198D02*
X10365063Y-13835769D01*
X10365063Y-13835769D02*
X10355539Y-13873865D01*
X10355539Y-13873865D02*
X10346015Y-13892912D01*
X10346015Y-13892912D02*
X10326967Y-13911960D01*
X10326967Y-13911960D02*
X10298396Y-13921484D01*
X10298396Y-13921484D02*
X10250777Y-13921484D01*
X10450777Y-13921484D02*
X10450777Y-13788150D01*
X10450777Y-13826246D02*
X10460301Y-13807198D01*
X10460301Y-13807198D02*
X10469824Y-13797674D01*
X10469824Y-13797674D02*
X10488872Y-13788150D01*
X10488872Y-13788150D02*
X10507920Y-13788150D01*
X10574586Y-13921484D02*
X10574586Y-13788150D01*
X10574586Y-13721484D02*
X10565063Y-13731008D01*
X10565063Y-13731008D02*
X10574586Y-13740531D01*
X10574586Y-13740531D02*
X10584110Y-13731008D01*
X10584110Y-13731008D02*
X10574586Y-13721484D01*
X10574586Y-13721484D02*
X10574586Y-13740531D01*
X10698396Y-13921484D02*
X10679348Y-13911960D01*
X10679348Y-13911960D02*
X10669824Y-13892912D01*
X10669824Y-13892912D02*
X10669824Y-13721484D01*
X10803158Y-13921484D02*
X10784110Y-13911960D01*
X10784110Y-13911960D02*
X10774586Y-13892912D01*
X10774586Y-13892912D02*
X10774586Y-13721484D01*
X11031729Y-13921484D02*
X11031729Y-13721484D01*
X11031729Y-13721484D02*
X11098396Y-13864341D01*
X11098396Y-13864341D02*
X11165063Y-13721484D01*
X11165063Y-13721484D02*
X11165063Y-13921484D01*
X11346015Y-13921484D02*
X11346015Y-13816722D01*
X11346015Y-13816722D02*
X11336491Y-13797674D01*
X11336491Y-13797674D02*
X11317443Y-13788150D01*
X11317443Y-13788150D02*
X11279348Y-13788150D01*
X11279348Y-13788150D02*
X11260301Y-13797674D01*
X11346015Y-13911960D02*
X11326967Y-13921484D01*
X11326967Y-13921484D02*
X11279348Y-13921484D01*
X11279348Y-13921484D02*
X11260301Y-13911960D01*
X11260301Y-13911960D02*
X11250777Y-13892912D01*
X11250777Y-13892912D02*
X11250777Y-13873865D01*
X11250777Y-13873865D02*
X11260301Y-13854817D01*
X11260301Y-13854817D02*
X11279348Y-13845293D01*
X11279348Y-13845293D02*
X11326967Y-13845293D01*
X11326967Y-13845293D02*
X11346015Y-13835769D01*
X11441253Y-13788150D02*
X11441253Y-13988150D01*
X11441253Y-13797674D02*
X11460301Y-13788150D01*
X11460301Y-13788150D02*
X11498396Y-13788150D01*
X11498396Y-13788150D02*
X11517443Y-13797674D01*
X11517443Y-13797674D02*
X11526967Y-13807198D01*
X11526967Y-13807198D02*
X11536491Y-13826246D01*
X11536491Y-13826246D02*
X11536491Y-13883388D01*
X11536491Y-13883388D02*
X11526967Y-13902436D01*
X11526967Y-13902436D02*
X11517443Y-13911960D01*
X11517443Y-13911960D02*
X11498396Y-13921484D01*
X11498396Y-13921484D02*
X11460301Y-13921484D01*
X11460301Y-13921484D02*
X11441253Y-13911960D01*
X11622205Y-13902436D02*
X11631729Y-13911960D01*
X11631729Y-13911960D02*
X11622205Y-13921484D01*
X11622205Y-13921484D02*
X11612682Y-13911960D01*
X11612682Y-13911960D02*
X11622205Y-13902436D01*
X11622205Y-13902436D02*
X11622205Y-13921484D01*
X11622205Y-13797674D02*
X11631729Y-13807198D01*
X11631729Y-13807198D02*
X11622205Y-13816722D01*
X11622205Y-13816722D02*
X11612682Y-13807198D01*
X11612682Y-13807198D02*
X11622205Y-13797674D01*
X11622205Y-13797674D02*
X11622205Y-13816722D01*
D11*
X9960000Y-14235000D02*
X9990000Y-14265000D01*
X9990000Y-14235000D02*
X9960000Y-14265000D01*
D10*
X10288872Y-14141484D02*
X10307920Y-14141484D01*
X10307920Y-14141484D02*
X10326967Y-14151008D01*
X10326967Y-14151008D02*
X10336491Y-14160531D01*
X10336491Y-14160531D02*
X10346015Y-14179579D01*
X10346015Y-14179579D02*
X10355539Y-14217674D01*
X10355539Y-14217674D02*
X10355539Y-14265293D01*
X10355539Y-14265293D02*
X10346015Y-14303388D01*
X10346015Y-14303388D02*
X10336491Y-14322436D01*
X10336491Y-14322436D02*
X10326967Y-14331960D01*
X10326967Y-14331960D02*
X10307920Y-14341484D01*
X10307920Y-14341484D02*
X10288872Y-14341484D01*
X10288872Y-14341484D02*
X10269824Y-14331960D01*
X10269824Y-14331960D02*
X10260301Y-14322436D01*
X10260301Y-14322436D02*
X10250777Y-14303388D01*
X10250777Y-14303388D02*
X10241253Y-14265293D01*
X10241253Y-14265293D02*
X10241253Y-14217674D01*
X10241253Y-14217674D02*
X10250777Y-14179579D01*
X10250777Y-14179579D02*
X10260301Y-14160531D01*
X10260301Y-14160531D02*
X10269824Y-14151008D01*
X10269824Y-14151008D02*
X10288872Y-14141484D01*
X10441253Y-14322436D02*
X10450777Y-14331960D01*
X10450777Y-14331960D02*
X10441253Y-14341484D01*
X10441253Y-14341484D02*
X10431729Y-14331960D01*
X10431729Y-14331960D02*
X10441253Y-14322436D01*
X10441253Y-14322436D02*
X10441253Y-14341484D01*
X10517444Y-14141484D02*
X10641253Y-14141484D01*
X10641253Y-14141484D02*
X10574586Y-14217674D01*
X10574586Y-14217674D02*
X10603158Y-14217674D01*
X10603158Y-14217674D02*
X10622205Y-14227198D01*
X10622205Y-14227198D02*
X10631729Y-14236722D01*
X10631729Y-14236722D02*
X10641253Y-14255769D01*
X10641253Y-14255769D02*
X10641253Y-14303388D01*
X10641253Y-14303388D02*
X10631729Y-14322436D01*
X10631729Y-14322436D02*
X10622205Y-14331960D01*
X10622205Y-14331960D02*
X10603158Y-14341484D01*
X10603158Y-14341484D02*
X10546015Y-14341484D01*
X10546015Y-14341484D02*
X10526967Y-14331960D01*
X10526967Y-14331960D02*
X10517444Y-14322436D01*
X10765063Y-14141484D02*
X10784110Y-14141484D01*
X10784110Y-14141484D02*
X10803158Y-14151008D01*
X10803158Y-14151008D02*
X10812682Y-14160531D01*
X10812682Y-14160531D02*
X10822205Y-14179579D01*
X10822205Y-14179579D02*
X10831729Y-14217674D01*
X10831729Y-14217674D02*
X10831729Y-14265293D01*
X10831729Y-14265293D02*
X10822205Y-14303388D01*
X10822205Y-14303388D02*
X10812682Y-14322436D01*
X10812682Y-14322436D02*
X10803158Y-14331960D01*
X10803158Y-14331960D02*
X10784110Y-14341484D01*
X10784110Y-14341484D02*
X10765063Y-14341484D01*
X10765063Y-14341484D02*
X10746015Y-14331960D01*
X10746015Y-14331960D02*
X10736491Y-14322436D01*
X10736491Y-14322436D02*
X10726967Y-14303388D01*
X10726967Y-14303388D02*
X10717444Y-14265293D01*
X10717444Y-14265293D02*
X10717444Y-14217674D01*
X10717444Y-14217674D02*
X10726967Y-14179579D01*
X10726967Y-14179579D02*
X10736491Y-14160531D01*
X10736491Y-14160531D02*
X10746015Y-14151008D01*
X10746015Y-14151008D02*
X10765063Y-14141484D01*
X10955539Y-14141484D02*
X10974586Y-14141484D01*
X10974586Y-14141484D02*
X10993634Y-14151008D01*
X10993634Y-14151008D02*
X11003158Y-14160531D01*
X11003158Y-14160531D02*
X11012682Y-14179579D01*
X11012682Y-14179579D02*
X11022205Y-14217674D01*
X11022205Y-14217674D02*
X11022205Y-14265293D01*
X11022205Y-14265293D02*
X11012682Y-14303388D01*
X11012682Y-14303388D02*
X11003158Y-14322436D01*
X11003158Y-14322436D02*
X10993634Y-14331960D01*
X10993634Y-14331960D02*
X10974586Y-14341484D01*
X10974586Y-14341484D02*
X10955539Y-14341484D01*
X10955539Y-14341484D02*
X10936491Y-14331960D01*
X10936491Y-14331960D02*
X10926967Y-14322436D01*
X10926967Y-14322436D02*
X10917444Y-14303388D01*
X10917444Y-14303388D02*
X10907920Y-14265293D01*
X10907920Y-14265293D02*
X10907920Y-14217674D01*
X10907920Y-14217674D02*
X10917444Y-14179579D01*
X10917444Y-14179579D02*
X10926967Y-14160531D01*
X10926967Y-14160531D02*
X10936491Y-14151008D01*
X10936491Y-14151008D02*
X10955539Y-14141484D01*
X11107920Y-14341484D02*
X11107920Y-14208150D01*
X11107920Y-14227198D02*
X11117444Y-14217674D01*
X11117444Y-14217674D02*
X11136491Y-14208150D01*
X11136491Y-14208150D02*
X11165063Y-14208150D01*
X11165063Y-14208150D02*
X11184110Y-14217674D01*
X11184110Y-14217674D02*
X11193634Y-14236722D01*
X11193634Y-14236722D02*
X11193634Y-14341484D01*
X11193634Y-14236722D02*
X11203158Y-14217674D01*
X11203158Y-14217674D02*
X11222205Y-14208150D01*
X11222205Y-14208150D02*
X11250777Y-14208150D01*
X11250777Y-14208150D02*
X11269824Y-14217674D01*
X11269824Y-14217674D02*
X11279348Y-14236722D01*
X11279348Y-14236722D02*
X11279348Y-14341484D01*
X11374586Y-14341484D02*
X11374586Y-14208150D01*
X11374586Y-14227198D02*
X11384110Y-14217674D01*
X11384110Y-14217674D02*
X11403158Y-14208150D01*
X11403158Y-14208150D02*
X11431729Y-14208150D01*
X11431729Y-14208150D02*
X11450777Y-14217674D01*
X11450777Y-14217674D02*
X11460301Y-14236722D01*
X11460301Y-14236722D02*
X11460301Y-14341484D01*
X11460301Y-14236722D02*
X11469824Y-14217674D01*
X11469824Y-14217674D02*
X11488872Y-14208150D01*
X11488872Y-14208150D02*
X11517443Y-14208150D01*
X11517443Y-14208150D02*
X11536491Y-14217674D01*
X11536491Y-14217674D02*
X11546015Y-14236722D01*
X11546015Y-14236722D02*
X11546015Y-14341484D01*
X11936491Y-14131960D02*
X11765063Y-14389103D01*
X12193634Y-14141484D02*
X12212682Y-14141484D01*
X12212682Y-14141484D02*
X12231729Y-14151008D01*
X12231729Y-14151008D02*
X12241253Y-14160531D01*
X12241253Y-14160531D02*
X12250777Y-14179579D01*
X12250777Y-14179579D02*
X12260301Y-14217674D01*
X12260301Y-14217674D02*
X12260301Y-14265293D01*
X12260301Y-14265293D02*
X12250777Y-14303388D01*
X12250777Y-14303388D02*
X12241253Y-14322436D01*
X12241253Y-14322436D02*
X12231729Y-14331960D01*
X12231729Y-14331960D02*
X12212682Y-14341484D01*
X12212682Y-14341484D02*
X12193634Y-14341484D01*
X12193634Y-14341484D02*
X12174586Y-14331960D01*
X12174586Y-14331960D02*
X12165063Y-14322436D01*
X12165063Y-14322436D02*
X12155539Y-14303388D01*
X12155539Y-14303388D02*
X12146015Y-14265293D01*
X12146015Y-14265293D02*
X12146015Y-14217674D01*
X12146015Y-14217674D02*
X12155539Y-14179579D01*
X12155539Y-14179579D02*
X12165063Y-14160531D01*
X12165063Y-14160531D02*
X12174586Y-14151008D01*
X12174586Y-14151008D02*
X12193634Y-14141484D01*
X12346015Y-14322436D02*
X12355539Y-14331960D01*
X12355539Y-14331960D02*
X12346015Y-14341484D01*
X12346015Y-14341484D02*
X12336491Y-14331960D01*
X12336491Y-14331960D02*
X12346015Y-14322436D01*
X12346015Y-14322436D02*
X12346015Y-14341484D01*
X12479348Y-14141484D02*
X12498396Y-14141484D01*
X12498396Y-14141484D02*
X12517444Y-14151008D01*
X12517444Y-14151008D02*
X12526967Y-14160531D01*
X12526967Y-14160531D02*
X12536491Y-14179579D01*
X12536491Y-14179579D02*
X12546015Y-14217674D01*
X12546015Y-14217674D02*
X12546015Y-14265293D01*
X12546015Y-14265293D02*
X12536491Y-14303388D01*
X12536491Y-14303388D02*
X12526967Y-14322436D01*
X12526967Y-14322436D02*
X12517444Y-14331960D01*
X12517444Y-14331960D02*
X12498396Y-14341484D01*
X12498396Y-14341484D02*
X12479348Y-14341484D01*
X12479348Y-14341484D02*
X12460301Y-14331960D01*
X12460301Y-14331960D02*
X12450777Y-14322436D01*
X12450777Y-14322436D02*
X12441253Y-14303388D01*
X12441253Y-14303388D02*
X12431729Y-14265293D01*
X12431729Y-14265293D02*
X12431729Y-14217674D01*
X12431729Y-14217674D02*
X12441253Y-14179579D01*
X12441253Y-14179579D02*
X12450777Y-14160531D01*
X12450777Y-14160531D02*
X12460301Y-14151008D01*
X12460301Y-14151008D02*
X12479348Y-14141484D01*
X12736491Y-14341484D02*
X12622206Y-14341484D01*
X12679348Y-14341484D02*
X12679348Y-14141484D01*
X12679348Y-14141484D02*
X12660301Y-14170055D01*
X12660301Y-14170055D02*
X12641253Y-14189103D01*
X12641253Y-14189103D02*
X12622206Y-14198627D01*
X12926967Y-14341484D02*
X12812682Y-14341484D01*
X12869825Y-14341484D02*
X12869825Y-14141484D01*
X12869825Y-14141484D02*
X12850777Y-14170055D01*
X12850777Y-14170055D02*
X12831729Y-14189103D01*
X12831729Y-14189103D02*
X12812682Y-14198627D01*
X13041253Y-14227198D02*
X13022206Y-14217674D01*
X13022206Y-14217674D02*
X13012682Y-14208150D01*
X13012682Y-14208150D02*
X13003158Y-14189103D01*
X13003158Y-14189103D02*
X13003158Y-14179579D01*
X13003158Y-14179579D02*
X13012682Y-14160531D01*
X13012682Y-14160531D02*
X13022206Y-14151008D01*
X13022206Y-14151008D02*
X13041253Y-14141484D01*
X13041253Y-14141484D02*
X13079348Y-14141484D01*
X13079348Y-14141484D02*
X13098396Y-14151008D01*
X13098396Y-14151008D02*
X13107920Y-14160531D01*
X13107920Y-14160531D02*
X13117444Y-14179579D01*
X13117444Y-14179579D02*
X13117444Y-14189103D01*
X13117444Y-14189103D02*
X13107920Y-14208150D01*
X13107920Y-14208150D02*
X13098396Y-14217674D01*
X13098396Y-14217674D02*
X13079348Y-14227198D01*
X13079348Y-14227198D02*
X13041253Y-14227198D01*
X13041253Y-14227198D02*
X13022206Y-14236722D01*
X13022206Y-14236722D02*
X13012682Y-14246246D01*
X13012682Y-14246246D02*
X13003158Y-14265293D01*
X13003158Y-14265293D02*
X13003158Y-14303388D01*
X13003158Y-14303388D02*
X13012682Y-14322436D01*
X13012682Y-14322436D02*
X13022206Y-14331960D01*
X13022206Y-14331960D02*
X13041253Y-14341484D01*
X13041253Y-14341484D02*
X13079348Y-14341484D01*
X13079348Y-14341484D02*
X13098396Y-14331960D01*
X13098396Y-14331960D02*
X13107920Y-14322436D01*
X13107920Y-14322436D02*
X13117444Y-14303388D01*
X13117444Y-14303388D02*
X13117444Y-14265293D01*
X13117444Y-14265293D02*
X13107920Y-14246246D01*
X13107920Y-14246246D02*
X13098396Y-14236722D01*
X13098396Y-14236722D02*
X13079348Y-14227198D01*
X13193634Y-14141484D02*
X13193634Y-14179579D01*
X13269825Y-14141484D02*
X13269825Y-14179579D01*
X13565063Y-14417674D02*
X13555539Y-14408150D01*
X13555539Y-14408150D02*
X13536491Y-14379579D01*
X13536491Y-14379579D02*
X13526968Y-14360531D01*
X13526968Y-14360531D02*
X13517444Y-14331960D01*
X13517444Y-14331960D02*
X13507920Y-14284341D01*
X13507920Y-14284341D02*
X13507920Y-14246246D01*
X13507920Y-14246246D02*
X13517444Y-14198627D01*
X13517444Y-14198627D02*
X13526968Y-14170055D01*
X13526968Y-14170055D02*
X13536491Y-14151008D01*
X13536491Y-14151008D02*
X13555539Y-14122436D01*
X13555539Y-14122436D02*
X13565063Y-14112912D01*
X13631729Y-14160531D02*
X13641253Y-14151008D01*
X13641253Y-14151008D02*
X13660301Y-14141484D01*
X13660301Y-14141484D02*
X13707920Y-14141484D01*
X13707920Y-14141484D02*
X13726968Y-14151008D01*
X13726968Y-14151008D02*
X13736491Y-14160531D01*
X13736491Y-14160531D02*
X13746015Y-14179579D01*
X13746015Y-14179579D02*
X13746015Y-14198627D01*
X13746015Y-14198627D02*
X13736491Y-14227198D01*
X13736491Y-14227198D02*
X13622206Y-14341484D01*
X13622206Y-14341484D02*
X13746015Y-14341484D01*
X13822206Y-14160531D02*
X13831729Y-14151008D01*
X13831729Y-14151008D02*
X13850777Y-14141484D01*
X13850777Y-14141484D02*
X13898396Y-14141484D01*
X13898396Y-14141484D02*
X13917444Y-14151008D01*
X13917444Y-14151008D02*
X13926968Y-14160531D01*
X13926968Y-14160531D02*
X13936491Y-14179579D01*
X13936491Y-14179579D02*
X13936491Y-14198627D01*
X13936491Y-14198627D02*
X13926968Y-14227198D01*
X13926968Y-14227198D02*
X13812682Y-14341484D01*
X13812682Y-14341484D02*
X13936491Y-14341484D01*
X14174587Y-14341484D02*
X14174587Y-14141484D01*
X14260301Y-14341484D02*
X14260301Y-14236722D01*
X14260301Y-14236722D02*
X14250777Y-14217674D01*
X14250777Y-14217674D02*
X14231730Y-14208150D01*
X14231730Y-14208150D02*
X14203158Y-14208150D01*
X14203158Y-14208150D02*
X14184110Y-14217674D01*
X14184110Y-14217674D02*
X14174587Y-14227198D01*
X14384110Y-14341484D02*
X14365063Y-14331960D01*
X14365063Y-14331960D02*
X14355539Y-14322436D01*
X14355539Y-14322436D02*
X14346015Y-14303388D01*
X14346015Y-14303388D02*
X14346015Y-14246246D01*
X14346015Y-14246246D02*
X14355539Y-14227198D01*
X14355539Y-14227198D02*
X14365063Y-14217674D01*
X14365063Y-14217674D02*
X14384110Y-14208150D01*
X14384110Y-14208150D02*
X14412682Y-14208150D01*
X14412682Y-14208150D02*
X14431730Y-14217674D01*
X14431730Y-14217674D02*
X14441253Y-14227198D01*
X14441253Y-14227198D02*
X14450777Y-14246246D01*
X14450777Y-14246246D02*
X14450777Y-14303388D01*
X14450777Y-14303388D02*
X14441253Y-14322436D01*
X14441253Y-14322436D02*
X14431730Y-14331960D01*
X14431730Y-14331960D02*
X14412682Y-14341484D01*
X14412682Y-14341484D02*
X14384110Y-14341484D01*
X14565063Y-14341484D02*
X14546015Y-14331960D01*
X14546015Y-14331960D02*
X14536491Y-14312912D01*
X14536491Y-14312912D02*
X14536491Y-14141484D01*
X14717444Y-14331960D02*
X14698396Y-14341484D01*
X14698396Y-14341484D02*
X14660301Y-14341484D01*
X14660301Y-14341484D02*
X14641253Y-14331960D01*
X14641253Y-14331960D02*
X14631730Y-14312912D01*
X14631730Y-14312912D02*
X14631730Y-14236722D01*
X14631730Y-14236722D02*
X14641253Y-14217674D01*
X14641253Y-14217674D02*
X14660301Y-14208150D01*
X14660301Y-14208150D02*
X14698396Y-14208150D01*
X14698396Y-14208150D02*
X14717444Y-14217674D01*
X14717444Y-14217674D02*
X14726968Y-14236722D01*
X14726968Y-14236722D02*
X14726968Y-14255769D01*
X14726968Y-14255769D02*
X14631730Y-14274817D01*
X14803158Y-14331960D02*
X14822206Y-14341484D01*
X14822206Y-14341484D02*
X14860301Y-14341484D01*
X14860301Y-14341484D02*
X14879349Y-14331960D01*
X14879349Y-14331960D02*
X14888872Y-14312912D01*
X14888872Y-14312912D02*
X14888872Y-14303388D01*
X14888872Y-14303388D02*
X14879349Y-14284341D01*
X14879349Y-14284341D02*
X14860301Y-14274817D01*
X14860301Y-14274817D02*
X14831730Y-14274817D01*
X14831730Y-14274817D02*
X14812682Y-14265293D01*
X14812682Y-14265293D02*
X14803158Y-14246246D01*
X14803158Y-14246246D02*
X14803158Y-14236722D01*
X14803158Y-14236722D02*
X14812682Y-14217674D01*
X14812682Y-14217674D02*
X14831730Y-14208150D01*
X14831730Y-14208150D02*
X14860301Y-14208150D01*
X14860301Y-14208150D02*
X14879349Y-14217674D01*
X14955539Y-14417674D02*
X14965063Y-14408150D01*
X14965063Y-14408150D02*
X14984111Y-14379579D01*
X14984111Y-14379579D02*
X14993634Y-14360531D01*
X14993634Y-14360531D02*
X15003158Y-14331960D01*
X15003158Y-14331960D02*
X15012682Y-14284341D01*
X15012682Y-14284341D02*
X15012682Y-14246246D01*
X15012682Y-14246246D02*
X15003158Y-14198627D01*
X15003158Y-14198627D02*
X14993634Y-14170055D01*
X14993634Y-14170055D02*
X14984111Y-14151008D01*
X14984111Y-14151008D02*
X14965063Y-14122436D01*
X14965063Y-14122436D02*
X14955539Y-14112912D01*
D11*
X9990000Y-14514000D02*
G75*
G02*
X9950000Y-14514000I-20000J0D01*
G01*
X9950000Y-14514000D02*
G75*
G02*
X9990000Y-14514000I20000J0D01*
G01*
D10*
X10288872Y-14405484D02*
X10307920Y-14405484D01*
X10307920Y-14405484D02*
X10326967Y-14415008D01*
X10326967Y-14415008D02*
X10336491Y-14424531D01*
X10336491Y-14424531D02*
X10346015Y-14443579D01*
X10346015Y-14443579D02*
X10355539Y-14481674D01*
X10355539Y-14481674D02*
X10355539Y-14529293D01*
X10355539Y-14529293D02*
X10346015Y-14567388D01*
X10346015Y-14567388D02*
X10336491Y-14586436D01*
X10336491Y-14586436D02*
X10326967Y-14595960D01*
X10326967Y-14595960D02*
X10307920Y-14605484D01*
X10307920Y-14605484D02*
X10288872Y-14605484D01*
X10288872Y-14605484D02*
X10269824Y-14595960D01*
X10269824Y-14595960D02*
X10260301Y-14586436D01*
X10260301Y-14586436D02*
X10250777Y-14567388D01*
X10250777Y-14567388D02*
X10241253Y-14529293D01*
X10241253Y-14529293D02*
X10241253Y-14481674D01*
X10241253Y-14481674D02*
X10250777Y-14443579D01*
X10250777Y-14443579D02*
X10260301Y-14424531D01*
X10260301Y-14424531D02*
X10269824Y-14415008D01*
X10269824Y-14415008D02*
X10288872Y-14405484D01*
X10441253Y-14586436D02*
X10450777Y-14595960D01*
X10450777Y-14595960D02*
X10441253Y-14605484D01*
X10441253Y-14605484D02*
X10431729Y-14595960D01*
X10431729Y-14595960D02*
X10441253Y-14586436D01*
X10441253Y-14586436D02*
X10441253Y-14605484D01*
X10622205Y-14472150D02*
X10622205Y-14605484D01*
X10574586Y-14395960D02*
X10526967Y-14538817D01*
X10526967Y-14538817D02*
X10650777Y-14538817D01*
X10765063Y-14405484D02*
X10784110Y-14405484D01*
X10784110Y-14405484D02*
X10803158Y-14415008D01*
X10803158Y-14415008D02*
X10812682Y-14424531D01*
X10812682Y-14424531D02*
X10822205Y-14443579D01*
X10822205Y-14443579D02*
X10831729Y-14481674D01*
X10831729Y-14481674D02*
X10831729Y-14529293D01*
X10831729Y-14529293D02*
X10822205Y-14567388D01*
X10822205Y-14567388D02*
X10812682Y-14586436D01*
X10812682Y-14586436D02*
X10803158Y-14595960D01*
X10803158Y-14595960D02*
X10784110Y-14605484D01*
X10784110Y-14605484D02*
X10765063Y-14605484D01*
X10765063Y-14605484D02*
X10746015Y-14595960D01*
X10746015Y-14595960D02*
X10736491Y-14586436D01*
X10736491Y-14586436D02*
X10726967Y-14567388D01*
X10726967Y-14567388D02*
X10717444Y-14529293D01*
X10717444Y-14529293D02*
X10717444Y-14481674D01*
X10717444Y-14481674D02*
X10726967Y-14443579D01*
X10726967Y-14443579D02*
X10736491Y-14424531D01*
X10736491Y-14424531D02*
X10746015Y-14415008D01*
X10746015Y-14415008D02*
X10765063Y-14405484D01*
X10955539Y-14405484D02*
X10974586Y-14405484D01*
X10974586Y-14405484D02*
X10993634Y-14415008D01*
X10993634Y-14415008D02*
X11003158Y-14424531D01*
X11003158Y-14424531D02*
X11012682Y-14443579D01*
X11012682Y-14443579D02*
X11022205Y-14481674D01*
X11022205Y-14481674D02*
X11022205Y-14529293D01*
X11022205Y-14529293D02*
X11012682Y-14567388D01*
X11012682Y-14567388D02*
X11003158Y-14586436D01*
X11003158Y-14586436D02*
X10993634Y-14595960D01*
X10993634Y-14595960D02*
X10974586Y-14605484D01*
X10974586Y-14605484D02*
X10955539Y-14605484D01*
X10955539Y-14605484D02*
X10936491Y-14595960D01*
X10936491Y-14595960D02*
X10926967Y-14586436D01*
X10926967Y-14586436D02*
X10917444Y-14567388D01*
X10917444Y-14567388D02*
X10907920Y-14529293D01*
X10907920Y-14529293D02*
X10907920Y-14481674D01*
X10907920Y-14481674D02*
X10917444Y-14443579D01*
X10917444Y-14443579D02*
X10926967Y-14424531D01*
X10926967Y-14424531D02*
X10936491Y-14415008D01*
X10936491Y-14415008D02*
X10955539Y-14405484D01*
X11107920Y-14605484D02*
X11107920Y-14472150D01*
X11107920Y-14491198D02*
X11117444Y-14481674D01*
X11117444Y-14481674D02*
X11136491Y-14472150D01*
X11136491Y-14472150D02*
X11165063Y-14472150D01*
X11165063Y-14472150D02*
X11184110Y-14481674D01*
X11184110Y-14481674D02*
X11193634Y-14500722D01*
X11193634Y-14500722D02*
X11193634Y-14605484D01*
X11193634Y-14500722D02*
X11203158Y-14481674D01*
X11203158Y-14481674D02*
X11222205Y-14472150D01*
X11222205Y-14472150D02*
X11250777Y-14472150D01*
X11250777Y-14472150D02*
X11269824Y-14481674D01*
X11269824Y-14481674D02*
X11279348Y-14500722D01*
X11279348Y-14500722D02*
X11279348Y-14605484D01*
X11374586Y-14605484D02*
X11374586Y-14472150D01*
X11374586Y-14491198D02*
X11384110Y-14481674D01*
X11384110Y-14481674D02*
X11403158Y-14472150D01*
X11403158Y-14472150D02*
X11431729Y-14472150D01*
X11431729Y-14472150D02*
X11450777Y-14481674D01*
X11450777Y-14481674D02*
X11460301Y-14500722D01*
X11460301Y-14500722D02*
X11460301Y-14605484D01*
X11460301Y-14500722D02*
X11469824Y-14481674D01*
X11469824Y-14481674D02*
X11488872Y-14472150D01*
X11488872Y-14472150D02*
X11517443Y-14472150D01*
X11517443Y-14472150D02*
X11536491Y-14481674D01*
X11536491Y-14481674D02*
X11546015Y-14500722D01*
X11546015Y-14500722D02*
X11546015Y-14605484D01*
X11936491Y-14395960D02*
X11765063Y-14653103D01*
X12193634Y-14405484D02*
X12212682Y-14405484D01*
X12212682Y-14405484D02*
X12231729Y-14415008D01*
X12231729Y-14415008D02*
X12241253Y-14424531D01*
X12241253Y-14424531D02*
X12250777Y-14443579D01*
X12250777Y-14443579D02*
X12260301Y-14481674D01*
X12260301Y-14481674D02*
X12260301Y-14529293D01*
X12260301Y-14529293D02*
X12250777Y-14567388D01*
X12250777Y-14567388D02*
X12241253Y-14586436D01*
X12241253Y-14586436D02*
X12231729Y-14595960D01*
X12231729Y-14595960D02*
X12212682Y-14605484D01*
X12212682Y-14605484D02*
X12193634Y-14605484D01*
X12193634Y-14605484D02*
X12174586Y-14595960D01*
X12174586Y-14595960D02*
X12165063Y-14586436D01*
X12165063Y-14586436D02*
X12155539Y-14567388D01*
X12155539Y-14567388D02*
X12146015Y-14529293D01*
X12146015Y-14529293D02*
X12146015Y-14481674D01*
X12146015Y-14481674D02*
X12155539Y-14443579D01*
X12155539Y-14443579D02*
X12165063Y-14424531D01*
X12165063Y-14424531D02*
X12174586Y-14415008D01*
X12174586Y-14415008D02*
X12193634Y-14405484D01*
X12346015Y-14586436D02*
X12355539Y-14595960D01*
X12355539Y-14595960D02*
X12346015Y-14605484D01*
X12346015Y-14605484D02*
X12336491Y-14595960D01*
X12336491Y-14595960D02*
X12346015Y-14586436D01*
X12346015Y-14586436D02*
X12346015Y-14605484D01*
X12479348Y-14405484D02*
X12498396Y-14405484D01*
X12498396Y-14405484D02*
X12517444Y-14415008D01*
X12517444Y-14415008D02*
X12526967Y-14424531D01*
X12526967Y-14424531D02*
X12536491Y-14443579D01*
X12536491Y-14443579D02*
X12546015Y-14481674D01*
X12546015Y-14481674D02*
X12546015Y-14529293D01*
X12546015Y-14529293D02*
X12536491Y-14567388D01*
X12536491Y-14567388D02*
X12526967Y-14586436D01*
X12526967Y-14586436D02*
X12517444Y-14595960D01*
X12517444Y-14595960D02*
X12498396Y-14605484D01*
X12498396Y-14605484D02*
X12479348Y-14605484D01*
X12479348Y-14605484D02*
X12460301Y-14595960D01*
X12460301Y-14595960D02*
X12450777Y-14586436D01*
X12450777Y-14586436D02*
X12441253Y-14567388D01*
X12441253Y-14567388D02*
X12431729Y-14529293D01*
X12431729Y-14529293D02*
X12431729Y-14481674D01*
X12431729Y-14481674D02*
X12441253Y-14443579D01*
X12441253Y-14443579D02*
X12450777Y-14424531D01*
X12450777Y-14424531D02*
X12460301Y-14415008D01*
X12460301Y-14415008D02*
X12479348Y-14405484D01*
X12736491Y-14605484D02*
X12622206Y-14605484D01*
X12679348Y-14605484D02*
X12679348Y-14405484D01*
X12679348Y-14405484D02*
X12660301Y-14434055D01*
X12660301Y-14434055D02*
X12641253Y-14453103D01*
X12641253Y-14453103D02*
X12622206Y-14462627D01*
X12917444Y-14405484D02*
X12822206Y-14405484D01*
X12822206Y-14405484D02*
X12812682Y-14500722D01*
X12812682Y-14500722D02*
X12822206Y-14491198D01*
X12822206Y-14491198D02*
X12841253Y-14481674D01*
X12841253Y-14481674D02*
X12888872Y-14481674D01*
X12888872Y-14481674D02*
X12907920Y-14491198D01*
X12907920Y-14491198D02*
X12917444Y-14500722D01*
X12917444Y-14500722D02*
X12926967Y-14519769D01*
X12926967Y-14519769D02*
X12926967Y-14567388D01*
X12926967Y-14567388D02*
X12917444Y-14586436D01*
X12917444Y-14586436D02*
X12907920Y-14595960D01*
X12907920Y-14595960D02*
X12888872Y-14605484D01*
X12888872Y-14605484D02*
X12841253Y-14605484D01*
X12841253Y-14605484D02*
X12822206Y-14595960D01*
X12822206Y-14595960D02*
X12812682Y-14586436D01*
X12993634Y-14405484D02*
X13126967Y-14405484D01*
X13126967Y-14405484D02*
X13041253Y-14605484D01*
X13193634Y-14405484D02*
X13193634Y-14443579D01*
X13269825Y-14405484D02*
X13269825Y-14443579D01*
X13565063Y-14681674D02*
X13555539Y-14672150D01*
X13555539Y-14672150D02*
X13536491Y-14643579D01*
X13536491Y-14643579D02*
X13526968Y-14624531D01*
X13526968Y-14624531D02*
X13517444Y-14595960D01*
X13517444Y-14595960D02*
X13507920Y-14548341D01*
X13507920Y-14548341D02*
X13507920Y-14510246D01*
X13507920Y-14510246D02*
X13517444Y-14462627D01*
X13517444Y-14462627D02*
X13526968Y-14434055D01*
X13526968Y-14434055D02*
X13536491Y-14415008D01*
X13536491Y-14415008D02*
X13555539Y-14386436D01*
X13555539Y-14386436D02*
X13565063Y-14376912D01*
X13736491Y-14405484D02*
X13641253Y-14405484D01*
X13641253Y-14405484D02*
X13631729Y-14500722D01*
X13631729Y-14500722D02*
X13641253Y-14491198D01*
X13641253Y-14491198D02*
X13660301Y-14481674D01*
X13660301Y-14481674D02*
X13707920Y-14481674D01*
X13707920Y-14481674D02*
X13726968Y-14491198D01*
X13726968Y-14491198D02*
X13736491Y-14500722D01*
X13736491Y-14500722D02*
X13746015Y-14519769D01*
X13746015Y-14519769D02*
X13746015Y-14567388D01*
X13746015Y-14567388D02*
X13736491Y-14586436D01*
X13736491Y-14586436D02*
X13726968Y-14595960D01*
X13726968Y-14595960D02*
X13707920Y-14605484D01*
X13707920Y-14605484D02*
X13660301Y-14605484D01*
X13660301Y-14605484D02*
X13641253Y-14595960D01*
X13641253Y-14595960D02*
X13631729Y-14586436D01*
X13917444Y-14405484D02*
X13879348Y-14405484D01*
X13879348Y-14405484D02*
X13860301Y-14415008D01*
X13860301Y-14415008D02*
X13850777Y-14424531D01*
X13850777Y-14424531D02*
X13831729Y-14453103D01*
X13831729Y-14453103D02*
X13822206Y-14491198D01*
X13822206Y-14491198D02*
X13822206Y-14567388D01*
X13822206Y-14567388D02*
X13831729Y-14586436D01*
X13831729Y-14586436D02*
X13841253Y-14595960D01*
X13841253Y-14595960D02*
X13860301Y-14605484D01*
X13860301Y-14605484D02*
X13898396Y-14605484D01*
X13898396Y-14605484D02*
X13917444Y-14595960D01*
X13917444Y-14595960D02*
X13926968Y-14586436D01*
X13926968Y-14586436D02*
X13936491Y-14567388D01*
X13936491Y-14567388D02*
X13936491Y-14519769D01*
X13936491Y-14519769D02*
X13926968Y-14500722D01*
X13926968Y-14500722D02*
X13917444Y-14491198D01*
X13917444Y-14491198D02*
X13898396Y-14481674D01*
X13898396Y-14481674D02*
X13860301Y-14481674D01*
X13860301Y-14481674D02*
X13841253Y-14491198D01*
X13841253Y-14491198D02*
X13831729Y-14500722D01*
X13831729Y-14500722D02*
X13822206Y-14519769D01*
X14174587Y-14605484D02*
X14174587Y-14405484D01*
X14260301Y-14605484D02*
X14260301Y-14500722D01*
X14260301Y-14500722D02*
X14250777Y-14481674D01*
X14250777Y-14481674D02*
X14231730Y-14472150D01*
X14231730Y-14472150D02*
X14203158Y-14472150D01*
X14203158Y-14472150D02*
X14184110Y-14481674D01*
X14184110Y-14481674D02*
X14174587Y-14491198D01*
X14384110Y-14605484D02*
X14365063Y-14595960D01*
X14365063Y-14595960D02*
X14355539Y-14586436D01*
X14355539Y-14586436D02*
X14346015Y-14567388D01*
X14346015Y-14567388D02*
X14346015Y-14510246D01*
X14346015Y-14510246D02*
X14355539Y-14491198D01*
X14355539Y-14491198D02*
X14365063Y-14481674D01*
X14365063Y-14481674D02*
X14384110Y-14472150D01*
X14384110Y-14472150D02*
X14412682Y-14472150D01*
X14412682Y-14472150D02*
X14431730Y-14481674D01*
X14431730Y-14481674D02*
X14441253Y-14491198D01*
X14441253Y-14491198D02*
X14450777Y-14510246D01*
X14450777Y-14510246D02*
X14450777Y-14567388D01*
X14450777Y-14567388D02*
X14441253Y-14586436D01*
X14441253Y-14586436D02*
X14431730Y-14595960D01*
X14431730Y-14595960D02*
X14412682Y-14605484D01*
X14412682Y-14605484D02*
X14384110Y-14605484D01*
X14565063Y-14605484D02*
X14546015Y-14595960D01*
X14546015Y-14595960D02*
X14536491Y-14576912D01*
X14536491Y-14576912D02*
X14536491Y-14405484D01*
X14717444Y-14595960D02*
X14698396Y-14605484D01*
X14698396Y-14605484D02*
X14660301Y-14605484D01*
X14660301Y-14605484D02*
X14641253Y-14595960D01*
X14641253Y-14595960D02*
X14631730Y-14576912D01*
X14631730Y-14576912D02*
X14631730Y-14500722D01*
X14631730Y-14500722D02*
X14641253Y-14481674D01*
X14641253Y-14481674D02*
X14660301Y-14472150D01*
X14660301Y-14472150D02*
X14698396Y-14472150D01*
X14698396Y-14472150D02*
X14717444Y-14481674D01*
X14717444Y-14481674D02*
X14726968Y-14500722D01*
X14726968Y-14500722D02*
X14726968Y-14519769D01*
X14726968Y-14519769D02*
X14631730Y-14538817D01*
X14803158Y-14595960D02*
X14822206Y-14605484D01*
X14822206Y-14605484D02*
X14860301Y-14605484D01*
X14860301Y-14605484D02*
X14879349Y-14595960D01*
X14879349Y-14595960D02*
X14888872Y-14576912D01*
X14888872Y-14576912D02*
X14888872Y-14567388D01*
X14888872Y-14567388D02*
X14879349Y-14548341D01*
X14879349Y-14548341D02*
X14860301Y-14538817D01*
X14860301Y-14538817D02*
X14831730Y-14538817D01*
X14831730Y-14538817D02*
X14812682Y-14529293D01*
X14812682Y-14529293D02*
X14803158Y-14510246D01*
X14803158Y-14510246D02*
X14803158Y-14500722D01*
X14803158Y-14500722D02*
X14812682Y-14481674D01*
X14812682Y-14481674D02*
X14831730Y-14472150D01*
X14831730Y-14472150D02*
X14860301Y-14472150D01*
X14860301Y-14472150D02*
X14879349Y-14481674D01*
X14955539Y-14681674D02*
X14965063Y-14672150D01*
X14965063Y-14672150D02*
X14984111Y-14643579D01*
X14984111Y-14643579D02*
X14993634Y-14624531D01*
X14993634Y-14624531D02*
X15003158Y-14595960D01*
X15003158Y-14595960D02*
X15012682Y-14548341D01*
X15012682Y-14548341D02*
X15012682Y-14510246D01*
X15012682Y-14510246D02*
X15003158Y-14462627D01*
X15003158Y-14462627D02*
X14993634Y-14434055D01*
X14993634Y-14434055D02*
X14984111Y-14415008D01*
X14984111Y-14415008D02*
X14965063Y-14386436D01*
X14965063Y-14386436D02*
X14955539Y-14376912D01*
D11*
X9950000Y-14738000D02*
X9950000Y-14818000D01*
X9910000Y-14778000D02*
X9990000Y-14778000D01*
D10*
X10288872Y-14669484D02*
X10307920Y-14669484D01*
X10307920Y-14669484D02*
X10326967Y-14679008D01*
X10326967Y-14679008D02*
X10336491Y-14688531D01*
X10336491Y-14688531D02*
X10346015Y-14707579D01*
X10346015Y-14707579D02*
X10355539Y-14745674D01*
X10355539Y-14745674D02*
X10355539Y-14793293D01*
X10355539Y-14793293D02*
X10346015Y-14831388D01*
X10346015Y-14831388D02*
X10336491Y-14850436D01*
X10336491Y-14850436D02*
X10326967Y-14859960D01*
X10326967Y-14859960D02*
X10307920Y-14869484D01*
X10307920Y-14869484D02*
X10288872Y-14869484D01*
X10288872Y-14869484D02*
X10269824Y-14859960D01*
X10269824Y-14859960D02*
X10260301Y-14850436D01*
X10260301Y-14850436D02*
X10250777Y-14831388D01*
X10250777Y-14831388D02*
X10241253Y-14793293D01*
X10241253Y-14793293D02*
X10241253Y-14745674D01*
X10241253Y-14745674D02*
X10250777Y-14707579D01*
X10250777Y-14707579D02*
X10260301Y-14688531D01*
X10260301Y-14688531D02*
X10269824Y-14679008D01*
X10269824Y-14679008D02*
X10288872Y-14669484D01*
X10441253Y-14850436D02*
X10450777Y-14859960D01*
X10450777Y-14859960D02*
X10441253Y-14869484D01*
X10441253Y-14869484D02*
X10431729Y-14859960D01*
X10431729Y-14859960D02*
X10441253Y-14850436D01*
X10441253Y-14850436D02*
X10441253Y-14869484D01*
X10565063Y-14755198D02*
X10546015Y-14745674D01*
X10546015Y-14745674D02*
X10536491Y-14736150D01*
X10536491Y-14736150D02*
X10526967Y-14717103D01*
X10526967Y-14717103D02*
X10526967Y-14707579D01*
X10526967Y-14707579D02*
X10536491Y-14688531D01*
X10536491Y-14688531D02*
X10546015Y-14679008D01*
X10546015Y-14679008D02*
X10565063Y-14669484D01*
X10565063Y-14669484D02*
X10603158Y-14669484D01*
X10603158Y-14669484D02*
X10622205Y-14679008D01*
X10622205Y-14679008D02*
X10631729Y-14688531D01*
X10631729Y-14688531D02*
X10641253Y-14707579D01*
X10641253Y-14707579D02*
X10641253Y-14717103D01*
X10641253Y-14717103D02*
X10631729Y-14736150D01*
X10631729Y-14736150D02*
X10622205Y-14745674D01*
X10622205Y-14745674D02*
X10603158Y-14755198D01*
X10603158Y-14755198D02*
X10565063Y-14755198D01*
X10565063Y-14755198D02*
X10546015Y-14764722D01*
X10546015Y-14764722D02*
X10536491Y-14774246D01*
X10536491Y-14774246D02*
X10526967Y-14793293D01*
X10526967Y-14793293D02*
X10526967Y-14831388D01*
X10526967Y-14831388D02*
X10536491Y-14850436D01*
X10536491Y-14850436D02*
X10546015Y-14859960D01*
X10546015Y-14859960D02*
X10565063Y-14869484D01*
X10565063Y-14869484D02*
X10603158Y-14869484D01*
X10603158Y-14869484D02*
X10622205Y-14859960D01*
X10622205Y-14859960D02*
X10631729Y-14850436D01*
X10631729Y-14850436D02*
X10641253Y-14831388D01*
X10641253Y-14831388D02*
X10641253Y-14793293D01*
X10641253Y-14793293D02*
X10631729Y-14774246D01*
X10631729Y-14774246D02*
X10622205Y-14764722D01*
X10622205Y-14764722D02*
X10603158Y-14755198D01*
X10765063Y-14669484D02*
X10784110Y-14669484D01*
X10784110Y-14669484D02*
X10803158Y-14679008D01*
X10803158Y-14679008D02*
X10812682Y-14688531D01*
X10812682Y-14688531D02*
X10822205Y-14707579D01*
X10822205Y-14707579D02*
X10831729Y-14745674D01*
X10831729Y-14745674D02*
X10831729Y-14793293D01*
X10831729Y-14793293D02*
X10822205Y-14831388D01*
X10822205Y-14831388D02*
X10812682Y-14850436D01*
X10812682Y-14850436D02*
X10803158Y-14859960D01*
X10803158Y-14859960D02*
X10784110Y-14869484D01*
X10784110Y-14869484D02*
X10765063Y-14869484D01*
X10765063Y-14869484D02*
X10746015Y-14859960D01*
X10746015Y-14859960D02*
X10736491Y-14850436D01*
X10736491Y-14850436D02*
X10726967Y-14831388D01*
X10726967Y-14831388D02*
X10717444Y-14793293D01*
X10717444Y-14793293D02*
X10717444Y-14745674D01*
X10717444Y-14745674D02*
X10726967Y-14707579D01*
X10726967Y-14707579D02*
X10736491Y-14688531D01*
X10736491Y-14688531D02*
X10746015Y-14679008D01*
X10746015Y-14679008D02*
X10765063Y-14669484D01*
X10955539Y-14669484D02*
X10974586Y-14669484D01*
X10974586Y-14669484D02*
X10993634Y-14679008D01*
X10993634Y-14679008D02*
X11003158Y-14688531D01*
X11003158Y-14688531D02*
X11012682Y-14707579D01*
X11012682Y-14707579D02*
X11022205Y-14745674D01*
X11022205Y-14745674D02*
X11022205Y-14793293D01*
X11022205Y-14793293D02*
X11012682Y-14831388D01*
X11012682Y-14831388D02*
X11003158Y-14850436D01*
X11003158Y-14850436D02*
X10993634Y-14859960D01*
X10993634Y-14859960D02*
X10974586Y-14869484D01*
X10974586Y-14869484D02*
X10955539Y-14869484D01*
X10955539Y-14869484D02*
X10936491Y-14859960D01*
X10936491Y-14859960D02*
X10926967Y-14850436D01*
X10926967Y-14850436D02*
X10917444Y-14831388D01*
X10917444Y-14831388D02*
X10907920Y-14793293D01*
X10907920Y-14793293D02*
X10907920Y-14745674D01*
X10907920Y-14745674D02*
X10917444Y-14707579D01*
X10917444Y-14707579D02*
X10926967Y-14688531D01*
X10926967Y-14688531D02*
X10936491Y-14679008D01*
X10936491Y-14679008D02*
X10955539Y-14669484D01*
X11107920Y-14869484D02*
X11107920Y-14736150D01*
X11107920Y-14755198D02*
X11117444Y-14745674D01*
X11117444Y-14745674D02*
X11136491Y-14736150D01*
X11136491Y-14736150D02*
X11165063Y-14736150D01*
X11165063Y-14736150D02*
X11184110Y-14745674D01*
X11184110Y-14745674D02*
X11193634Y-14764722D01*
X11193634Y-14764722D02*
X11193634Y-14869484D01*
X11193634Y-14764722D02*
X11203158Y-14745674D01*
X11203158Y-14745674D02*
X11222205Y-14736150D01*
X11222205Y-14736150D02*
X11250777Y-14736150D01*
X11250777Y-14736150D02*
X11269824Y-14745674D01*
X11269824Y-14745674D02*
X11279348Y-14764722D01*
X11279348Y-14764722D02*
X11279348Y-14869484D01*
X11374586Y-14869484D02*
X11374586Y-14736150D01*
X11374586Y-14755198D02*
X11384110Y-14745674D01*
X11384110Y-14745674D02*
X11403158Y-14736150D01*
X11403158Y-14736150D02*
X11431729Y-14736150D01*
X11431729Y-14736150D02*
X11450777Y-14745674D01*
X11450777Y-14745674D02*
X11460301Y-14764722D01*
X11460301Y-14764722D02*
X11460301Y-14869484D01*
X11460301Y-14764722D02*
X11469824Y-14745674D01*
X11469824Y-14745674D02*
X11488872Y-14736150D01*
X11488872Y-14736150D02*
X11517443Y-14736150D01*
X11517443Y-14736150D02*
X11536491Y-14745674D01*
X11536491Y-14745674D02*
X11546015Y-14764722D01*
X11546015Y-14764722D02*
X11546015Y-14869484D01*
X11936491Y-14659960D02*
X11765063Y-14917103D01*
X12193634Y-14669484D02*
X12212682Y-14669484D01*
X12212682Y-14669484D02*
X12231729Y-14679008D01*
X12231729Y-14679008D02*
X12241253Y-14688531D01*
X12241253Y-14688531D02*
X12250777Y-14707579D01*
X12250777Y-14707579D02*
X12260301Y-14745674D01*
X12260301Y-14745674D02*
X12260301Y-14793293D01*
X12260301Y-14793293D02*
X12250777Y-14831388D01*
X12250777Y-14831388D02*
X12241253Y-14850436D01*
X12241253Y-14850436D02*
X12231729Y-14859960D01*
X12231729Y-14859960D02*
X12212682Y-14869484D01*
X12212682Y-14869484D02*
X12193634Y-14869484D01*
X12193634Y-14869484D02*
X12174586Y-14859960D01*
X12174586Y-14859960D02*
X12165063Y-14850436D01*
X12165063Y-14850436D02*
X12155539Y-14831388D01*
X12155539Y-14831388D02*
X12146015Y-14793293D01*
X12146015Y-14793293D02*
X12146015Y-14745674D01*
X12146015Y-14745674D02*
X12155539Y-14707579D01*
X12155539Y-14707579D02*
X12165063Y-14688531D01*
X12165063Y-14688531D02*
X12174586Y-14679008D01*
X12174586Y-14679008D02*
X12193634Y-14669484D01*
X12346015Y-14850436D02*
X12355539Y-14859960D01*
X12355539Y-14859960D02*
X12346015Y-14869484D01*
X12346015Y-14869484D02*
X12336491Y-14859960D01*
X12336491Y-14859960D02*
X12346015Y-14850436D01*
X12346015Y-14850436D02*
X12346015Y-14869484D01*
X12479348Y-14669484D02*
X12498396Y-14669484D01*
X12498396Y-14669484D02*
X12517444Y-14679008D01*
X12517444Y-14679008D02*
X12526967Y-14688531D01*
X12526967Y-14688531D02*
X12536491Y-14707579D01*
X12536491Y-14707579D02*
X12546015Y-14745674D01*
X12546015Y-14745674D02*
X12546015Y-14793293D01*
X12546015Y-14793293D02*
X12536491Y-14831388D01*
X12536491Y-14831388D02*
X12526967Y-14850436D01*
X12526967Y-14850436D02*
X12517444Y-14859960D01*
X12517444Y-14859960D02*
X12498396Y-14869484D01*
X12498396Y-14869484D02*
X12479348Y-14869484D01*
X12479348Y-14869484D02*
X12460301Y-14859960D01*
X12460301Y-14859960D02*
X12450777Y-14850436D01*
X12450777Y-14850436D02*
X12441253Y-14831388D01*
X12441253Y-14831388D02*
X12431729Y-14793293D01*
X12431729Y-14793293D02*
X12431729Y-14745674D01*
X12431729Y-14745674D02*
X12441253Y-14707579D01*
X12441253Y-14707579D02*
X12450777Y-14688531D01*
X12450777Y-14688531D02*
X12460301Y-14679008D01*
X12460301Y-14679008D02*
X12479348Y-14669484D01*
X12612682Y-14669484D02*
X12736491Y-14669484D01*
X12736491Y-14669484D02*
X12669825Y-14745674D01*
X12669825Y-14745674D02*
X12698396Y-14745674D01*
X12698396Y-14745674D02*
X12717444Y-14755198D01*
X12717444Y-14755198D02*
X12726967Y-14764722D01*
X12726967Y-14764722D02*
X12736491Y-14783769D01*
X12736491Y-14783769D02*
X12736491Y-14831388D01*
X12736491Y-14831388D02*
X12726967Y-14850436D01*
X12726967Y-14850436D02*
X12717444Y-14859960D01*
X12717444Y-14859960D02*
X12698396Y-14869484D01*
X12698396Y-14869484D02*
X12641253Y-14869484D01*
X12641253Y-14869484D02*
X12622206Y-14859960D01*
X12622206Y-14859960D02*
X12612682Y-14850436D01*
X12926967Y-14869484D02*
X12812682Y-14869484D01*
X12869825Y-14869484D02*
X12869825Y-14669484D01*
X12869825Y-14669484D02*
X12850777Y-14698055D01*
X12850777Y-14698055D02*
X12831729Y-14717103D01*
X12831729Y-14717103D02*
X12812682Y-14726627D01*
X13107920Y-14669484D02*
X13012682Y-14669484D01*
X13012682Y-14669484D02*
X13003158Y-14764722D01*
X13003158Y-14764722D02*
X13012682Y-14755198D01*
X13012682Y-14755198D02*
X13031729Y-14745674D01*
X13031729Y-14745674D02*
X13079348Y-14745674D01*
X13079348Y-14745674D02*
X13098396Y-14755198D01*
X13098396Y-14755198D02*
X13107920Y-14764722D01*
X13107920Y-14764722D02*
X13117444Y-14783769D01*
X13117444Y-14783769D02*
X13117444Y-14831388D01*
X13117444Y-14831388D02*
X13107920Y-14850436D01*
X13107920Y-14850436D02*
X13098396Y-14859960D01*
X13098396Y-14859960D02*
X13079348Y-14869484D01*
X13079348Y-14869484D02*
X13031729Y-14869484D01*
X13031729Y-14869484D02*
X13012682Y-14859960D01*
X13012682Y-14859960D02*
X13003158Y-14850436D01*
X13193634Y-14669484D02*
X13193634Y-14707579D01*
X13269825Y-14669484D02*
X13269825Y-14707579D01*
X13565063Y-14945674D02*
X13555539Y-14936150D01*
X13555539Y-14936150D02*
X13536491Y-14907579D01*
X13536491Y-14907579D02*
X13526968Y-14888531D01*
X13526968Y-14888531D02*
X13517444Y-14859960D01*
X13517444Y-14859960D02*
X13507920Y-14812341D01*
X13507920Y-14812341D02*
X13507920Y-14774246D01*
X13507920Y-14774246D02*
X13517444Y-14726627D01*
X13517444Y-14726627D02*
X13526968Y-14698055D01*
X13526968Y-14698055D02*
X13536491Y-14679008D01*
X13536491Y-14679008D02*
X13555539Y-14650436D01*
X13555539Y-14650436D02*
X13565063Y-14640912D01*
X13746015Y-14869484D02*
X13631729Y-14869484D01*
X13688872Y-14869484D02*
X13688872Y-14669484D01*
X13688872Y-14669484D02*
X13669825Y-14698055D01*
X13669825Y-14698055D02*
X13650777Y-14717103D01*
X13650777Y-14717103D02*
X13631729Y-14726627D01*
X13936491Y-14869484D02*
X13822206Y-14869484D01*
X13879348Y-14869484D02*
X13879348Y-14669484D01*
X13879348Y-14669484D02*
X13860301Y-14698055D01*
X13860301Y-14698055D02*
X13841253Y-14717103D01*
X13841253Y-14717103D02*
X13822206Y-14726627D01*
X14060301Y-14669484D02*
X14079349Y-14669484D01*
X14079349Y-14669484D02*
X14098396Y-14679008D01*
X14098396Y-14679008D02*
X14107920Y-14688531D01*
X14107920Y-14688531D02*
X14117444Y-14707579D01*
X14117444Y-14707579D02*
X14126968Y-14745674D01*
X14126968Y-14745674D02*
X14126968Y-14793293D01*
X14126968Y-14793293D02*
X14117444Y-14831388D01*
X14117444Y-14831388D02*
X14107920Y-14850436D01*
X14107920Y-14850436D02*
X14098396Y-14859960D01*
X14098396Y-14859960D02*
X14079349Y-14869484D01*
X14079349Y-14869484D02*
X14060301Y-14869484D01*
X14060301Y-14869484D02*
X14041253Y-14859960D01*
X14041253Y-14859960D02*
X14031729Y-14850436D01*
X14031729Y-14850436D02*
X14022206Y-14831388D01*
X14022206Y-14831388D02*
X14012682Y-14793293D01*
X14012682Y-14793293D02*
X14012682Y-14745674D01*
X14012682Y-14745674D02*
X14022206Y-14707579D01*
X14022206Y-14707579D02*
X14031729Y-14688531D01*
X14031729Y-14688531D02*
X14041253Y-14679008D01*
X14041253Y-14679008D02*
X14060301Y-14669484D01*
X14365063Y-14869484D02*
X14365063Y-14669484D01*
X14450777Y-14869484D02*
X14450777Y-14764722D01*
X14450777Y-14764722D02*
X14441253Y-14745674D01*
X14441253Y-14745674D02*
X14422206Y-14736150D01*
X14422206Y-14736150D02*
X14393634Y-14736150D01*
X14393634Y-14736150D02*
X14374587Y-14745674D01*
X14374587Y-14745674D02*
X14365063Y-14755198D01*
X14574587Y-14869484D02*
X14555539Y-14859960D01*
X14555539Y-14859960D02*
X14546015Y-14850436D01*
X14546015Y-14850436D02*
X14536491Y-14831388D01*
X14536491Y-14831388D02*
X14536491Y-14774246D01*
X14536491Y-14774246D02*
X14546015Y-14755198D01*
X14546015Y-14755198D02*
X14555539Y-14745674D01*
X14555539Y-14745674D02*
X14574587Y-14736150D01*
X14574587Y-14736150D02*
X14603158Y-14736150D01*
X14603158Y-14736150D02*
X14622206Y-14745674D01*
X14622206Y-14745674D02*
X14631730Y-14755198D01*
X14631730Y-14755198D02*
X14641253Y-14774246D01*
X14641253Y-14774246D02*
X14641253Y-14831388D01*
X14641253Y-14831388D02*
X14631730Y-14850436D01*
X14631730Y-14850436D02*
X14622206Y-14859960D01*
X14622206Y-14859960D02*
X14603158Y-14869484D01*
X14603158Y-14869484D02*
X14574587Y-14869484D01*
X14755539Y-14869484D02*
X14736491Y-14859960D01*
X14736491Y-14859960D02*
X14726968Y-14840912D01*
X14726968Y-14840912D02*
X14726968Y-14669484D01*
X14907920Y-14859960D02*
X14888872Y-14869484D01*
X14888872Y-14869484D02*
X14850777Y-14869484D01*
X14850777Y-14869484D02*
X14831730Y-14859960D01*
X14831730Y-14859960D02*
X14822206Y-14840912D01*
X14822206Y-14840912D02*
X14822206Y-14764722D01*
X14822206Y-14764722D02*
X14831730Y-14745674D01*
X14831730Y-14745674D02*
X14850777Y-14736150D01*
X14850777Y-14736150D02*
X14888872Y-14736150D01*
X14888872Y-14736150D02*
X14907920Y-14745674D01*
X14907920Y-14745674D02*
X14917444Y-14764722D01*
X14917444Y-14764722D02*
X14917444Y-14783769D01*
X14917444Y-14783769D02*
X14822206Y-14802817D01*
X14993634Y-14859960D02*
X15012682Y-14869484D01*
X15012682Y-14869484D02*
X15050777Y-14869484D01*
X15050777Y-14869484D02*
X15069825Y-14859960D01*
X15069825Y-14859960D02*
X15079349Y-14840912D01*
X15079349Y-14840912D02*
X15079349Y-14831388D01*
X15079349Y-14831388D02*
X15069825Y-14812341D01*
X15069825Y-14812341D02*
X15050777Y-14802817D01*
X15050777Y-14802817D02*
X15022206Y-14802817D01*
X15022206Y-14802817D02*
X15003158Y-14793293D01*
X15003158Y-14793293D02*
X14993634Y-14774246D01*
X14993634Y-14774246D02*
X14993634Y-14764722D01*
X14993634Y-14764722D02*
X15003158Y-14745674D01*
X15003158Y-14745674D02*
X15022206Y-14736150D01*
X15022206Y-14736150D02*
X15050777Y-14736150D01*
X15050777Y-14736150D02*
X15069825Y-14745674D01*
X15146015Y-14945674D02*
X15155539Y-14936150D01*
X15155539Y-14936150D02*
X15174587Y-14907579D01*
X15174587Y-14907579D02*
X15184111Y-14888531D01*
X15184111Y-14888531D02*
X15193634Y-14859960D01*
X15193634Y-14859960D02*
X15203158Y-14812341D01*
X15203158Y-14812341D02*
X15203158Y-14774246D01*
X15203158Y-14774246D02*
X15193634Y-14726627D01*
X15193634Y-14726627D02*
X15184111Y-14698055D01*
X15184111Y-14698055D02*
X15174587Y-14679008D01*
X15174587Y-14679008D02*
X15155539Y-14650436D01*
X15155539Y-14650436D02*
X15146015Y-14640912D01*
D11*
X9976820Y-15073820D02*
X9976820Y-15010180D01*
X9913180Y-15010180D01*
X9913180Y-15073820D01*
X9976820Y-15073820D01*
D10*
X10288872Y-14933484D02*
X10307920Y-14933484D01*
X10307920Y-14933484D02*
X10326967Y-14943008D01*
X10326967Y-14943008D02*
X10336491Y-14952531D01*
X10336491Y-14952531D02*
X10346015Y-14971579D01*
X10346015Y-14971579D02*
X10355539Y-15009674D01*
X10355539Y-15009674D02*
X10355539Y-15057293D01*
X10355539Y-15057293D02*
X10346015Y-15095388D01*
X10346015Y-15095388D02*
X10336491Y-15114436D01*
X10336491Y-15114436D02*
X10326967Y-15123960D01*
X10326967Y-15123960D02*
X10307920Y-15133484D01*
X10307920Y-15133484D02*
X10288872Y-15133484D01*
X10288872Y-15133484D02*
X10269824Y-15123960D01*
X10269824Y-15123960D02*
X10260301Y-15114436D01*
X10260301Y-15114436D02*
X10250777Y-15095388D01*
X10250777Y-15095388D02*
X10241253Y-15057293D01*
X10241253Y-15057293D02*
X10241253Y-15009674D01*
X10241253Y-15009674D02*
X10250777Y-14971579D01*
X10250777Y-14971579D02*
X10260301Y-14952531D01*
X10260301Y-14952531D02*
X10269824Y-14943008D01*
X10269824Y-14943008D02*
X10288872Y-14933484D01*
X10441253Y-15114436D02*
X10450777Y-15123960D01*
X10450777Y-15123960D02*
X10441253Y-15133484D01*
X10441253Y-15133484D02*
X10431729Y-15123960D01*
X10431729Y-15123960D02*
X10441253Y-15114436D01*
X10441253Y-15114436D02*
X10441253Y-15133484D01*
X10546015Y-15133484D02*
X10584110Y-15133484D01*
X10584110Y-15133484D02*
X10603158Y-15123960D01*
X10603158Y-15123960D02*
X10612682Y-15114436D01*
X10612682Y-15114436D02*
X10631729Y-15085865D01*
X10631729Y-15085865D02*
X10641253Y-15047769D01*
X10641253Y-15047769D02*
X10641253Y-14971579D01*
X10641253Y-14971579D02*
X10631729Y-14952531D01*
X10631729Y-14952531D02*
X10622205Y-14943008D01*
X10622205Y-14943008D02*
X10603158Y-14933484D01*
X10603158Y-14933484D02*
X10565063Y-14933484D01*
X10565063Y-14933484D02*
X10546015Y-14943008D01*
X10546015Y-14943008D02*
X10536491Y-14952531D01*
X10536491Y-14952531D02*
X10526967Y-14971579D01*
X10526967Y-14971579D02*
X10526967Y-15019198D01*
X10526967Y-15019198D02*
X10536491Y-15038246D01*
X10536491Y-15038246D02*
X10546015Y-15047769D01*
X10546015Y-15047769D02*
X10565063Y-15057293D01*
X10565063Y-15057293D02*
X10603158Y-15057293D01*
X10603158Y-15057293D02*
X10622205Y-15047769D01*
X10622205Y-15047769D02*
X10631729Y-15038246D01*
X10631729Y-15038246D02*
X10641253Y-15019198D01*
X10765063Y-14933484D02*
X10784110Y-14933484D01*
X10784110Y-14933484D02*
X10803158Y-14943008D01*
X10803158Y-14943008D02*
X10812682Y-14952531D01*
X10812682Y-14952531D02*
X10822205Y-14971579D01*
X10822205Y-14971579D02*
X10831729Y-15009674D01*
X10831729Y-15009674D02*
X10831729Y-15057293D01*
X10831729Y-15057293D02*
X10822205Y-15095388D01*
X10822205Y-15095388D02*
X10812682Y-15114436D01*
X10812682Y-15114436D02*
X10803158Y-15123960D01*
X10803158Y-15123960D02*
X10784110Y-15133484D01*
X10784110Y-15133484D02*
X10765063Y-15133484D01*
X10765063Y-15133484D02*
X10746015Y-15123960D01*
X10746015Y-15123960D02*
X10736491Y-15114436D01*
X10736491Y-15114436D02*
X10726967Y-15095388D01*
X10726967Y-15095388D02*
X10717444Y-15057293D01*
X10717444Y-15057293D02*
X10717444Y-15009674D01*
X10717444Y-15009674D02*
X10726967Y-14971579D01*
X10726967Y-14971579D02*
X10736491Y-14952531D01*
X10736491Y-14952531D02*
X10746015Y-14943008D01*
X10746015Y-14943008D02*
X10765063Y-14933484D01*
X10955539Y-14933484D02*
X10974586Y-14933484D01*
X10974586Y-14933484D02*
X10993634Y-14943008D01*
X10993634Y-14943008D02*
X11003158Y-14952531D01*
X11003158Y-14952531D02*
X11012682Y-14971579D01*
X11012682Y-14971579D02*
X11022205Y-15009674D01*
X11022205Y-15009674D02*
X11022205Y-15057293D01*
X11022205Y-15057293D02*
X11012682Y-15095388D01*
X11012682Y-15095388D02*
X11003158Y-15114436D01*
X11003158Y-15114436D02*
X10993634Y-15123960D01*
X10993634Y-15123960D02*
X10974586Y-15133484D01*
X10974586Y-15133484D02*
X10955539Y-15133484D01*
X10955539Y-15133484D02*
X10936491Y-15123960D01*
X10936491Y-15123960D02*
X10926967Y-15114436D01*
X10926967Y-15114436D02*
X10917444Y-15095388D01*
X10917444Y-15095388D02*
X10907920Y-15057293D01*
X10907920Y-15057293D02*
X10907920Y-15009674D01*
X10907920Y-15009674D02*
X10917444Y-14971579D01*
X10917444Y-14971579D02*
X10926967Y-14952531D01*
X10926967Y-14952531D02*
X10936491Y-14943008D01*
X10936491Y-14943008D02*
X10955539Y-14933484D01*
X11107920Y-15133484D02*
X11107920Y-15000150D01*
X11107920Y-15019198D02*
X11117444Y-15009674D01*
X11117444Y-15009674D02*
X11136491Y-15000150D01*
X11136491Y-15000150D02*
X11165063Y-15000150D01*
X11165063Y-15000150D02*
X11184110Y-15009674D01*
X11184110Y-15009674D02*
X11193634Y-15028722D01*
X11193634Y-15028722D02*
X11193634Y-15133484D01*
X11193634Y-15028722D02*
X11203158Y-15009674D01*
X11203158Y-15009674D02*
X11222205Y-15000150D01*
X11222205Y-15000150D02*
X11250777Y-15000150D01*
X11250777Y-15000150D02*
X11269824Y-15009674D01*
X11269824Y-15009674D02*
X11279348Y-15028722D01*
X11279348Y-15028722D02*
X11279348Y-15133484D01*
X11374586Y-15133484D02*
X11374586Y-15000150D01*
X11374586Y-15019198D02*
X11384110Y-15009674D01*
X11384110Y-15009674D02*
X11403158Y-15000150D01*
X11403158Y-15000150D02*
X11431729Y-15000150D01*
X11431729Y-15000150D02*
X11450777Y-15009674D01*
X11450777Y-15009674D02*
X11460301Y-15028722D01*
X11460301Y-15028722D02*
X11460301Y-15133484D01*
X11460301Y-15028722D02*
X11469824Y-15009674D01*
X11469824Y-15009674D02*
X11488872Y-15000150D01*
X11488872Y-15000150D02*
X11517443Y-15000150D01*
X11517443Y-15000150D02*
X11536491Y-15009674D01*
X11536491Y-15009674D02*
X11546015Y-15028722D01*
X11546015Y-15028722D02*
X11546015Y-15133484D01*
X11936491Y-14923960D02*
X11765063Y-15181103D01*
X12193634Y-14933484D02*
X12212682Y-14933484D01*
X12212682Y-14933484D02*
X12231729Y-14943008D01*
X12231729Y-14943008D02*
X12241253Y-14952531D01*
X12241253Y-14952531D02*
X12250777Y-14971579D01*
X12250777Y-14971579D02*
X12260301Y-15009674D01*
X12260301Y-15009674D02*
X12260301Y-15057293D01*
X12260301Y-15057293D02*
X12250777Y-15095388D01*
X12250777Y-15095388D02*
X12241253Y-15114436D01*
X12241253Y-15114436D02*
X12231729Y-15123960D01*
X12231729Y-15123960D02*
X12212682Y-15133484D01*
X12212682Y-15133484D02*
X12193634Y-15133484D01*
X12193634Y-15133484D02*
X12174586Y-15123960D01*
X12174586Y-15123960D02*
X12165063Y-15114436D01*
X12165063Y-15114436D02*
X12155539Y-15095388D01*
X12155539Y-15095388D02*
X12146015Y-15057293D01*
X12146015Y-15057293D02*
X12146015Y-15009674D01*
X12146015Y-15009674D02*
X12155539Y-14971579D01*
X12155539Y-14971579D02*
X12165063Y-14952531D01*
X12165063Y-14952531D02*
X12174586Y-14943008D01*
X12174586Y-14943008D02*
X12193634Y-14933484D01*
X12346015Y-15114436D02*
X12355539Y-15123960D01*
X12355539Y-15123960D02*
X12346015Y-15133484D01*
X12346015Y-15133484D02*
X12336491Y-15123960D01*
X12336491Y-15123960D02*
X12346015Y-15114436D01*
X12346015Y-15114436D02*
X12346015Y-15133484D01*
X12479348Y-14933484D02*
X12498396Y-14933484D01*
X12498396Y-14933484D02*
X12517444Y-14943008D01*
X12517444Y-14943008D02*
X12526967Y-14952531D01*
X12526967Y-14952531D02*
X12536491Y-14971579D01*
X12536491Y-14971579D02*
X12546015Y-15009674D01*
X12546015Y-15009674D02*
X12546015Y-15057293D01*
X12546015Y-15057293D02*
X12536491Y-15095388D01*
X12536491Y-15095388D02*
X12526967Y-15114436D01*
X12526967Y-15114436D02*
X12517444Y-15123960D01*
X12517444Y-15123960D02*
X12498396Y-15133484D01*
X12498396Y-15133484D02*
X12479348Y-15133484D01*
X12479348Y-15133484D02*
X12460301Y-15123960D01*
X12460301Y-15123960D02*
X12450777Y-15114436D01*
X12450777Y-15114436D02*
X12441253Y-15095388D01*
X12441253Y-15095388D02*
X12431729Y-15057293D01*
X12431729Y-15057293D02*
X12431729Y-15009674D01*
X12431729Y-15009674D02*
X12441253Y-14971579D01*
X12441253Y-14971579D02*
X12450777Y-14952531D01*
X12450777Y-14952531D02*
X12460301Y-14943008D01*
X12460301Y-14943008D02*
X12479348Y-14933484D01*
X12612682Y-14933484D02*
X12736491Y-14933484D01*
X12736491Y-14933484D02*
X12669825Y-15009674D01*
X12669825Y-15009674D02*
X12698396Y-15009674D01*
X12698396Y-15009674D02*
X12717444Y-15019198D01*
X12717444Y-15019198D02*
X12726967Y-15028722D01*
X12726967Y-15028722D02*
X12736491Y-15047769D01*
X12736491Y-15047769D02*
X12736491Y-15095388D01*
X12736491Y-15095388D02*
X12726967Y-15114436D01*
X12726967Y-15114436D02*
X12717444Y-15123960D01*
X12717444Y-15123960D02*
X12698396Y-15133484D01*
X12698396Y-15133484D02*
X12641253Y-15133484D01*
X12641253Y-15133484D02*
X12622206Y-15123960D01*
X12622206Y-15123960D02*
X12612682Y-15114436D01*
X12917444Y-14933484D02*
X12822206Y-14933484D01*
X12822206Y-14933484D02*
X12812682Y-15028722D01*
X12812682Y-15028722D02*
X12822206Y-15019198D01*
X12822206Y-15019198D02*
X12841253Y-15009674D01*
X12841253Y-15009674D02*
X12888872Y-15009674D01*
X12888872Y-15009674D02*
X12907920Y-15019198D01*
X12907920Y-15019198D02*
X12917444Y-15028722D01*
X12917444Y-15028722D02*
X12926967Y-15047769D01*
X12926967Y-15047769D02*
X12926967Y-15095388D01*
X12926967Y-15095388D02*
X12917444Y-15114436D01*
X12917444Y-15114436D02*
X12907920Y-15123960D01*
X12907920Y-15123960D02*
X12888872Y-15133484D01*
X12888872Y-15133484D02*
X12841253Y-15133484D01*
X12841253Y-15133484D02*
X12822206Y-15123960D01*
X12822206Y-15123960D02*
X12812682Y-15114436D01*
X13098396Y-15000150D02*
X13098396Y-15133484D01*
X13050777Y-14923960D02*
X13003158Y-15066817D01*
X13003158Y-15066817D02*
X13126967Y-15066817D01*
X13193634Y-14933484D02*
X13193634Y-14971579D01*
X13269825Y-14933484D02*
X13269825Y-14971579D01*
X13565063Y-15209674D02*
X13555539Y-15200150D01*
X13555539Y-15200150D02*
X13536491Y-15171579D01*
X13536491Y-15171579D02*
X13526968Y-15152531D01*
X13526968Y-15152531D02*
X13517444Y-15123960D01*
X13517444Y-15123960D02*
X13507920Y-15076341D01*
X13507920Y-15076341D02*
X13507920Y-15038246D01*
X13507920Y-15038246D02*
X13517444Y-14990627D01*
X13517444Y-14990627D02*
X13526968Y-14962055D01*
X13526968Y-14962055D02*
X13536491Y-14943008D01*
X13536491Y-14943008D02*
X13555539Y-14914436D01*
X13555539Y-14914436D02*
X13565063Y-14904912D01*
X13726968Y-15000150D02*
X13726968Y-15133484D01*
X13679348Y-14923960D02*
X13631729Y-15066817D01*
X13631729Y-15066817D02*
X13755539Y-15066817D01*
X13984110Y-15133484D02*
X13984110Y-14933484D01*
X14069825Y-15133484D02*
X14069825Y-15028722D01*
X14069825Y-15028722D02*
X14060301Y-15009674D01*
X14060301Y-15009674D02*
X14041253Y-15000150D01*
X14041253Y-15000150D02*
X14012682Y-15000150D01*
X14012682Y-15000150D02*
X13993634Y-15009674D01*
X13993634Y-15009674D02*
X13984110Y-15019198D01*
X14193634Y-15133484D02*
X14174587Y-15123960D01*
X14174587Y-15123960D02*
X14165063Y-15114436D01*
X14165063Y-15114436D02*
X14155539Y-15095388D01*
X14155539Y-15095388D02*
X14155539Y-15038246D01*
X14155539Y-15038246D02*
X14165063Y-15019198D01*
X14165063Y-15019198D02*
X14174587Y-15009674D01*
X14174587Y-15009674D02*
X14193634Y-15000150D01*
X14193634Y-15000150D02*
X14222206Y-15000150D01*
X14222206Y-15000150D02*
X14241253Y-15009674D01*
X14241253Y-15009674D02*
X14250777Y-15019198D01*
X14250777Y-15019198D02*
X14260301Y-15038246D01*
X14260301Y-15038246D02*
X14260301Y-15095388D01*
X14260301Y-15095388D02*
X14250777Y-15114436D01*
X14250777Y-15114436D02*
X14241253Y-15123960D01*
X14241253Y-15123960D02*
X14222206Y-15133484D01*
X14222206Y-15133484D02*
X14193634Y-15133484D01*
X14374587Y-15133484D02*
X14355539Y-15123960D01*
X14355539Y-15123960D02*
X14346015Y-15104912D01*
X14346015Y-15104912D02*
X14346015Y-14933484D01*
X14526968Y-15123960D02*
X14507920Y-15133484D01*
X14507920Y-15133484D02*
X14469825Y-15133484D01*
X14469825Y-15133484D02*
X14450777Y-15123960D01*
X14450777Y-15123960D02*
X14441253Y-15104912D01*
X14441253Y-15104912D02*
X14441253Y-15028722D01*
X14441253Y-15028722D02*
X14450777Y-15009674D01*
X14450777Y-15009674D02*
X14469825Y-15000150D01*
X14469825Y-15000150D02*
X14507920Y-15000150D01*
X14507920Y-15000150D02*
X14526968Y-15009674D01*
X14526968Y-15009674D02*
X14536491Y-15028722D01*
X14536491Y-15028722D02*
X14536491Y-15047769D01*
X14536491Y-15047769D02*
X14441253Y-15066817D01*
X14612682Y-15123960D02*
X14631730Y-15133484D01*
X14631730Y-15133484D02*
X14669825Y-15133484D01*
X14669825Y-15133484D02*
X14688872Y-15123960D01*
X14688872Y-15123960D02*
X14698396Y-15104912D01*
X14698396Y-15104912D02*
X14698396Y-15095388D01*
X14698396Y-15095388D02*
X14688872Y-15076341D01*
X14688872Y-15076341D02*
X14669825Y-15066817D01*
X14669825Y-15066817D02*
X14641253Y-15066817D01*
X14641253Y-15066817D02*
X14622206Y-15057293D01*
X14622206Y-15057293D02*
X14612682Y-15038246D01*
X14612682Y-15038246D02*
X14612682Y-15028722D01*
X14612682Y-15028722D02*
X14622206Y-15009674D01*
X14622206Y-15009674D02*
X14641253Y-15000150D01*
X14641253Y-15000150D02*
X14669825Y-15000150D01*
X14669825Y-15000150D02*
X14688872Y-15009674D01*
X14765063Y-15209674D02*
X14774587Y-15200150D01*
X14774587Y-15200150D02*
X14793634Y-15171579D01*
X14793634Y-15171579D02*
X14803158Y-15152531D01*
X14803158Y-15152531D02*
X14812682Y-15123960D01*
X14812682Y-15123960D02*
X14822206Y-15076341D01*
X14822206Y-15076341D02*
X14822206Y-15038246D01*
X14822206Y-15038246D02*
X14812682Y-14990627D01*
X14812682Y-14990627D02*
X14803158Y-14962055D01*
X14803158Y-14962055D02*
X14793634Y-14943008D01*
X14793634Y-14943008D02*
X14774587Y-14914436D01*
X14774587Y-14914436D02*
X14765063Y-14904912D01*
D11*
X9940000Y-15356000D02*
X9990000Y-15306000D01*
X9940000Y-15256000D01*
X9890000Y-15306000D01*
X9940000Y-15356000D01*
D10*
X10355539Y-15397484D02*
X10241253Y-15397484D01*
X10298396Y-15397484D02*
X10298396Y-15197484D01*
X10298396Y-15197484D02*
X10279348Y-15226055D01*
X10279348Y-15226055D02*
X10260301Y-15245103D01*
X10260301Y-15245103D02*
X10241253Y-15254627D01*
X10441253Y-15378436D02*
X10450777Y-15387960D01*
X10450777Y-15387960D02*
X10441253Y-15397484D01*
X10441253Y-15397484D02*
X10431729Y-15387960D01*
X10431729Y-15387960D02*
X10441253Y-15378436D01*
X10441253Y-15378436D02*
X10441253Y-15397484D01*
X10574586Y-15197484D02*
X10593634Y-15197484D01*
X10593634Y-15197484D02*
X10612682Y-15207008D01*
X10612682Y-15207008D02*
X10622205Y-15216531D01*
X10622205Y-15216531D02*
X10631729Y-15235579D01*
X10631729Y-15235579D02*
X10641253Y-15273674D01*
X10641253Y-15273674D02*
X10641253Y-15321293D01*
X10641253Y-15321293D02*
X10631729Y-15359388D01*
X10631729Y-15359388D02*
X10622205Y-15378436D01*
X10622205Y-15378436D02*
X10612682Y-15387960D01*
X10612682Y-15387960D02*
X10593634Y-15397484D01*
X10593634Y-15397484D02*
X10574586Y-15397484D01*
X10574586Y-15397484D02*
X10555539Y-15387960D01*
X10555539Y-15387960D02*
X10546015Y-15378436D01*
X10546015Y-15378436D02*
X10536491Y-15359388D01*
X10536491Y-15359388D02*
X10526967Y-15321293D01*
X10526967Y-15321293D02*
X10526967Y-15273674D01*
X10526967Y-15273674D02*
X10536491Y-15235579D01*
X10536491Y-15235579D02*
X10546015Y-15216531D01*
X10546015Y-15216531D02*
X10555539Y-15207008D01*
X10555539Y-15207008D02*
X10574586Y-15197484D01*
X10765063Y-15197484D02*
X10784110Y-15197484D01*
X10784110Y-15197484D02*
X10803158Y-15207008D01*
X10803158Y-15207008D02*
X10812682Y-15216531D01*
X10812682Y-15216531D02*
X10822205Y-15235579D01*
X10822205Y-15235579D02*
X10831729Y-15273674D01*
X10831729Y-15273674D02*
X10831729Y-15321293D01*
X10831729Y-15321293D02*
X10822205Y-15359388D01*
X10822205Y-15359388D02*
X10812682Y-15378436D01*
X10812682Y-15378436D02*
X10803158Y-15387960D01*
X10803158Y-15387960D02*
X10784110Y-15397484D01*
X10784110Y-15397484D02*
X10765063Y-15397484D01*
X10765063Y-15397484D02*
X10746015Y-15387960D01*
X10746015Y-15387960D02*
X10736491Y-15378436D01*
X10736491Y-15378436D02*
X10726967Y-15359388D01*
X10726967Y-15359388D02*
X10717444Y-15321293D01*
X10717444Y-15321293D02*
X10717444Y-15273674D01*
X10717444Y-15273674D02*
X10726967Y-15235579D01*
X10726967Y-15235579D02*
X10736491Y-15216531D01*
X10736491Y-15216531D02*
X10746015Y-15207008D01*
X10746015Y-15207008D02*
X10765063Y-15197484D01*
X10955539Y-15197484D02*
X10974586Y-15197484D01*
X10974586Y-15197484D02*
X10993634Y-15207008D01*
X10993634Y-15207008D02*
X11003158Y-15216531D01*
X11003158Y-15216531D02*
X11012682Y-15235579D01*
X11012682Y-15235579D02*
X11022205Y-15273674D01*
X11022205Y-15273674D02*
X11022205Y-15321293D01*
X11022205Y-15321293D02*
X11012682Y-15359388D01*
X11012682Y-15359388D02*
X11003158Y-15378436D01*
X11003158Y-15378436D02*
X10993634Y-15387960D01*
X10993634Y-15387960D02*
X10974586Y-15397484D01*
X10974586Y-15397484D02*
X10955539Y-15397484D01*
X10955539Y-15397484D02*
X10936491Y-15387960D01*
X10936491Y-15387960D02*
X10926967Y-15378436D01*
X10926967Y-15378436D02*
X10917444Y-15359388D01*
X10917444Y-15359388D02*
X10907920Y-15321293D01*
X10907920Y-15321293D02*
X10907920Y-15273674D01*
X10907920Y-15273674D02*
X10917444Y-15235579D01*
X10917444Y-15235579D02*
X10926967Y-15216531D01*
X10926967Y-15216531D02*
X10936491Y-15207008D01*
X10936491Y-15207008D02*
X10955539Y-15197484D01*
X11107920Y-15397484D02*
X11107920Y-15264150D01*
X11107920Y-15283198D02*
X11117444Y-15273674D01*
X11117444Y-15273674D02*
X11136491Y-15264150D01*
X11136491Y-15264150D02*
X11165063Y-15264150D01*
X11165063Y-15264150D02*
X11184110Y-15273674D01*
X11184110Y-15273674D02*
X11193634Y-15292722D01*
X11193634Y-15292722D02*
X11193634Y-15397484D01*
X11193634Y-15292722D02*
X11203158Y-15273674D01*
X11203158Y-15273674D02*
X11222205Y-15264150D01*
X11222205Y-15264150D02*
X11250777Y-15264150D01*
X11250777Y-15264150D02*
X11269824Y-15273674D01*
X11269824Y-15273674D02*
X11279348Y-15292722D01*
X11279348Y-15292722D02*
X11279348Y-15397484D01*
X11374586Y-15397484D02*
X11374586Y-15264150D01*
X11374586Y-15283198D02*
X11384110Y-15273674D01*
X11384110Y-15273674D02*
X11403158Y-15264150D01*
X11403158Y-15264150D02*
X11431729Y-15264150D01*
X11431729Y-15264150D02*
X11450777Y-15273674D01*
X11450777Y-15273674D02*
X11460301Y-15292722D01*
X11460301Y-15292722D02*
X11460301Y-15397484D01*
X11460301Y-15292722D02*
X11469824Y-15273674D01*
X11469824Y-15273674D02*
X11488872Y-15264150D01*
X11488872Y-15264150D02*
X11517443Y-15264150D01*
X11517443Y-15264150D02*
X11536491Y-15273674D01*
X11536491Y-15273674D02*
X11546015Y-15292722D01*
X11546015Y-15292722D02*
X11546015Y-15397484D01*
X11936491Y-15187960D02*
X11765063Y-15445103D01*
X12193634Y-15197484D02*
X12212682Y-15197484D01*
X12212682Y-15197484D02*
X12231729Y-15207008D01*
X12231729Y-15207008D02*
X12241253Y-15216531D01*
X12241253Y-15216531D02*
X12250777Y-15235579D01*
X12250777Y-15235579D02*
X12260301Y-15273674D01*
X12260301Y-15273674D02*
X12260301Y-15321293D01*
X12260301Y-15321293D02*
X12250777Y-15359388D01*
X12250777Y-15359388D02*
X12241253Y-15378436D01*
X12241253Y-15378436D02*
X12231729Y-15387960D01*
X12231729Y-15387960D02*
X12212682Y-15397484D01*
X12212682Y-15397484D02*
X12193634Y-15397484D01*
X12193634Y-15397484D02*
X12174586Y-15387960D01*
X12174586Y-15387960D02*
X12165063Y-15378436D01*
X12165063Y-15378436D02*
X12155539Y-15359388D01*
X12155539Y-15359388D02*
X12146015Y-15321293D01*
X12146015Y-15321293D02*
X12146015Y-15273674D01*
X12146015Y-15273674D02*
X12155539Y-15235579D01*
X12155539Y-15235579D02*
X12165063Y-15216531D01*
X12165063Y-15216531D02*
X12174586Y-15207008D01*
X12174586Y-15207008D02*
X12193634Y-15197484D01*
X12346015Y-15378436D02*
X12355539Y-15387960D01*
X12355539Y-15387960D02*
X12346015Y-15397484D01*
X12346015Y-15397484D02*
X12336491Y-15387960D01*
X12336491Y-15387960D02*
X12346015Y-15378436D01*
X12346015Y-15378436D02*
X12346015Y-15397484D01*
X12479348Y-15197484D02*
X12498396Y-15197484D01*
X12498396Y-15197484D02*
X12517444Y-15207008D01*
X12517444Y-15207008D02*
X12526967Y-15216531D01*
X12526967Y-15216531D02*
X12536491Y-15235579D01*
X12536491Y-15235579D02*
X12546015Y-15273674D01*
X12546015Y-15273674D02*
X12546015Y-15321293D01*
X12546015Y-15321293D02*
X12536491Y-15359388D01*
X12536491Y-15359388D02*
X12526967Y-15378436D01*
X12526967Y-15378436D02*
X12517444Y-15387960D01*
X12517444Y-15387960D02*
X12498396Y-15397484D01*
X12498396Y-15397484D02*
X12479348Y-15397484D01*
X12479348Y-15397484D02*
X12460301Y-15387960D01*
X12460301Y-15387960D02*
X12450777Y-15378436D01*
X12450777Y-15378436D02*
X12441253Y-15359388D01*
X12441253Y-15359388D02*
X12431729Y-15321293D01*
X12431729Y-15321293D02*
X12431729Y-15273674D01*
X12431729Y-15273674D02*
X12441253Y-15235579D01*
X12441253Y-15235579D02*
X12450777Y-15216531D01*
X12450777Y-15216531D02*
X12460301Y-15207008D01*
X12460301Y-15207008D02*
X12479348Y-15197484D01*
X12612682Y-15197484D02*
X12736491Y-15197484D01*
X12736491Y-15197484D02*
X12669825Y-15273674D01*
X12669825Y-15273674D02*
X12698396Y-15273674D01*
X12698396Y-15273674D02*
X12717444Y-15283198D01*
X12717444Y-15283198D02*
X12726967Y-15292722D01*
X12726967Y-15292722D02*
X12736491Y-15311769D01*
X12736491Y-15311769D02*
X12736491Y-15359388D01*
X12736491Y-15359388D02*
X12726967Y-15378436D01*
X12726967Y-15378436D02*
X12717444Y-15387960D01*
X12717444Y-15387960D02*
X12698396Y-15397484D01*
X12698396Y-15397484D02*
X12641253Y-15397484D01*
X12641253Y-15397484D02*
X12622206Y-15387960D01*
X12622206Y-15387960D02*
X12612682Y-15378436D01*
X12831729Y-15397484D02*
X12869825Y-15397484D01*
X12869825Y-15397484D02*
X12888872Y-15387960D01*
X12888872Y-15387960D02*
X12898396Y-15378436D01*
X12898396Y-15378436D02*
X12917444Y-15349865D01*
X12917444Y-15349865D02*
X12926967Y-15311769D01*
X12926967Y-15311769D02*
X12926967Y-15235579D01*
X12926967Y-15235579D02*
X12917444Y-15216531D01*
X12917444Y-15216531D02*
X12907920Y-15207008D01*
X12907920Y-15207008D02*
X12888872Y-15197484D01*
X12888872Y-15197484D02*
X12850777Y-15197484D01*
X12850777Y-15197484D02*
X12831729Y-15207008D01*
X12831729Y-15207008D02*
X12822206Y-15216531D01*
X12822206Y-15216531D02*
X12812682Y-15235579D01*
X12812682Y-15235579D02*
X12812682Y-15283198D01*
X12812682Y-15283198D02*
X12822206Y-15302246D01*
X12822206Y-15302246D02*
X12831729Y-15311769D01*
X12831729Y-15311769D02*
X12850777Y-15321293D01*
X12850777Y-15321293D02*
X12888872Y-15321293D01*
X12888872Y-15321293D02*
X12907920Y-15311769D01*
X12907920Y-15311769D02*
X12917444Y-15302246D01*
X12917444Y-15302246D02*
X12926967Y-15283198D01*
X13098396Y-15264150D02*
X13098396Y-15397484D01*
X13050777Y-15187960D02*
X13003158Y-15330817D01*
X13003158Y-15330817D02*
X13126967Y-15330817D01*
X13193634Y-15197484D02*
X13193634Y-15235579D01*
X13269825Y-15197484D02*
X13269825Y-15235579D01*
X13565063Y-15473674D02*
X13555539Y-15464150D01*
X13555539Y-15464150D02*
X13536491Y-15435579D01*
X13536491Y-15435579D02*
X13526968Y-15416531D01*
X13526968Y-15416531D02*
X13517444Y-15387960D01*
X13517444Y-15387960D02*
X13507920Y-15340341D01*
X13507920Y-15340341D02*
X13507920Y-15302246D01*
X13507920Y-15302246D02*
X13517444Y-15254627D01*
X13517444Y-15254627D02*
X13526968Y-15226055D01*
X13526968Y-15226055D02*
X13536491Y-15207008D01*
X13536491Y-15207008D02*
X13555539Y-15178436D01*
X13555539Y-15178436D02*
X13565063Y-15168912D01*
X13622206Y-15197484D02*
X13746015Y-15197484D01*
X13746015Y-15197484D02*
X13679348Y-15273674D01*
X13679348Y-15273674D02*
X13707920Y-15273674D01*
X13707920Y-15273674D02*
X13726968Y-15283198D01*
X13726968Y-15283198D02*
X13736491Y-15292722D01*
X13736491Y-15292722D02*
X13746015Y-15311769D01*
X13746015Y-15311769D02*
X13746015Y-15359388D01*
X13746015Y-15359388D02*
X13736491Y-15378436D01*
X13736491Y-15378436D02*
X13726968Y-15387960D01*
X13726968Y-15387960D02*
X13707920Y-15397484D01*
X13707920Y-15397484D02*
X13650777Y-15397484D01*
X13650777Y-15397484D02*
X13631729Y-15387960D01*
X13631729Y-15387960D02*
X13622206Y-15378436D01*
X13936491Y-15397484D02*
X13822206Y-15397484D01*
X13879348Y-15397484D02*
X13879348Y-15197484D01*
X13879348Y-15197484D02*
X13860301Y-15226055D01*
X13860301Y-15226055D02*
X13841253Y-15245103D01*
X13841253Y-15245103D02*
X13822206Y-15254627D01*
X14174587Y-15397484D02*
X14174587Y-15197484D01*
X14260301Y-15397484D02*
X14260301Y-15292722D01*
X14260301Y-15292722D02*
X14250777Y-15273674D01*
X14250777Y-15273674D02*
X14231730Y-15264150D01*
X14231730Y-15264150D02*
X14203158Y-15264150D01*
X14203158Y-15264150D02*
X14184110Y-15273674D01*
X14184110Y-15273674D02*
X14174587Y-15283198D01*
X14384110Y-15397484D02*
X14365063Y-15387960D01*
X14365063Y-15387960D02*
X14355539Y-15378436D01*
X14355539Y-15378436D02*
X14346015Y-15359388D01*
X14346015Y-15359388D02*
X14346015Y-15302246D01*
X14346015Y-15302246D02*
X14355539Y-15283198D01*
X14355539Y-15283198D02*
X14365063Y-15273674D01*
X14365063Y-15273674D02*
X14384110Y-15264150D01*
X14384110Y-15264150D02*
X14412682Y-15264150D01*
X14412682Y-15264150D02*
X14431730Y-15273674D01*
X14431730Y-15273674D02*
X14441253Y-15283198D01*
X14441253Y-15283198D02*
X14450777Y-15302246D01*
X14450777Y-15302246D02*
X14450777Y-15359388D01*
X14450777Y-15359388D02*
X14441253Y-15378436D01*
X14441253Y-15378436D02*
X14431730Y-15387960D01*
X14431730Y-15387960D02*
X14412682Y-15397484D01*
X14412682Y-15397484D02*
X14384110Y-15397484D01*
X14565063Y-15397484D02*
X14546015Y-15387960D01*
X14546015Y-15387960D02*
X14536491Y-15368912D01*
X14536491Y-15368912D02*
X14536491Y-15197484D01*
X14717444Y-15387960D02*
X14698396Y-15397484D01*
X14698396Y-15397484D02*
X14660301Y-15397484D01*
X14660301Y-15397484D02*
X14641253Y-15387960D01*
X14641253Y-15387960D02*
X14631730Y-15368912D01*
X14631730Y-15368912D02*
X14631730Y-15292722D01*
X14631730Y-15292722D02*
X14641253Y-15273674D01*
X14641253Y-15273674D02*
X14660301Y-15264150D01*
X14660301Y-15264150D02*
X14698396Y-15264150D01*
X14698396Y-15264150D02*
X14717444Y-15273674D01*
X14717444Y-15273674D02*
X14726968Y-15292722D01*
X14726968Y-15292722D02*
X14726968Y-15311769D01*
X14726968Y-15311769D02*
X14631730Y-15330817D01*
X14803158Y-15387960D02*
X14822206Y-15397484D01*
X14822206Y-15397484D02*
X14860301Y-15397484D01*
X14860301Y-15397484D02*
X14879349Y-15387960D01*
X14879349Y-15387960D02*
X14888872Y-15368912D01*
X14888872Y-15368912D02*
X14888872Y-15359388D01*
X14888872Y-15359388D02*
X14879349Y-15340341D01*
X14879349Y-15340341D02*
X14860301Y-15330817D01*
X14860301Y-15330817D02*
X14831730Y-15330817D01*
X14831730Y-15330817D02*
X14812682Y-15321293D01*
X14812682Y-15321293D02*
X14803158Y-15302246D01*
X14803158Y-15302246D02*
X14803158Y-15292722D01*
X14803158Y-15292722D02*
X14812682Y-15273674D01*
X14812682Y-15273674D02*
X14831730Y-15264150D01*
X14831730Y-15264150D02*
X14860301Y-15264150D01*
X14860301Y-15264150D02*
X14879349Y-15273674D01*
X14955539Y-15473674D02*
X14965063Y-15464150D01*
X14965063Y-15464150D02*
X14984111Y-15435579D01*
X14984111Y-15435579D02*
X14993634Y-15416531D01*
X14993634Y-15416531D02*
X15003158Y-15387960D01*
X15003158Y-15387960D02*
X15012682Y-15340341D01*
X15012682Y-15340341D02*
X15012682Y-15302246D01*
X15012682Y-15302246D02*
X15003158Y-15254627D01*
X15003158Y-15254627D02*
X14993634Y-15226055D01*
X14993634Y-15226055D02*
X14984111Y-15207008D01*
X14984111Y-15207008D02*
X14965063Y-15178436D01*
X14965063Y-15178436D02*
X14955539Y-15168912D01*
D12*
X9880780Y-15515390D02*
X9990000Y-15624610D01*
X9990000Y-15515390D02*
X9880780Y-15624610D01*
X9990000Y-15570000D02*
G75*
G02*
X9880780Y-15570000I-54610J0D01*
G01*
X9880780Y-15570000D02*
G75*
G02*
X9990000Y-15570000I54610J0D01*
G01*
D10*
X10355539Y-15661484D02*
X10241253Y-15661484D01*
X10298396Y-15661484D02*
X10298396Y-15461484D01*
X10298396Y-15461484D02*
X10279348Y-15490055D01*
X10279348Y-15490055D02*
X10260301Y-15509103D01*
X10260301Y-15509103D02*
X10241253Y-15518627D01*
X10441253Y-15642436D02*
X10450777Y-15651960D01*
X10450777Y-15651960D02*
X10441253Y-15661484D01*
X10441253Y-15661484D02*
X10431729Y-15651960D01*
X10431729Y-15651960D02*
X10441253Y-15642436D01*
X10441253Y-15642436D02*
X10441253Y-15661484D01*
X10574586Y-15461484D02*
X10593634Y-15461484D01*
X10593634Y-15461484D02*
X10612682Y-15471008D01*
X10612682Y-15471008D02*
X10622205Y-15480531D01*
X10622205Y-15480531D02*
X10631729Y-15499579D01*
X10631729Y-15499579D02*
X10641253Y-15537674D01*
X10641253Y-15537674D02*
X10641253Y-15585293D01*
X10641253Y-15585293D02*
X10631729Y-15623388D01*
X10631729Y-15623388D02*
X10622205Y-15642436D01*
X10622205Y-15642436D02*
X10612682Y-15651960D01*
X10612682Y-15651960D02*
X10593634Y-15661484D01*
X10593634Y-15661484D02*
X10574586Y-15661484D01*
X10574586Y-15661484D02*
X10555539Y-15651960D01*
X10555539Y-15651960D02*
X10546015Y-15642436D01*
X10546015Y-15642436D02*
X10536491Y-15623388D01*
X10536491Y-15623388D02*
X10526967Y-15585293D01*
X10526967Y-15585293D02*
X10526967Y-15537674D01*
X10526967Y-15537674D02*
X10536491Y-15499579D01*
X10536491Y-15499579D02*
X10546015Y-15480531D01*
X10546015Y-15480531D02*
X10555539Y-15471008D01*
X10555539Y-15471008D02*
X10574586Y-15461484D01*
X10736491Y-15661484D02*
X10774586Y-15661484D01*
X10774586Y-15661484D02*
X10793634Y-15651960D01*
X10793634Y-15651960D02*
X10803158Y-15642436D01*
X10803158Y-15642436D02*
X10822205Y-15613865D01*
X10822205Y-15613865D02*
X10831729Y-15575769D01*
X10831729Y-15575769D02*
X10831729Y-15499579D01*
X10831729Y-15499579D02*
X10822205Y-15480531D01*
X10822205Y-15480531D02*
X10812682Y-15471008D01*
X10812682Y-15471008D02*
X10793634Y-15461484D01*
X10793634Y-15461484D02*
X10755539Y-15461484D01*
X10755539Y-15461484D02*
X10736491Y-15471008D01*
X10736491Y-15471008D02*
X10726967Y-15480531D01*
X10726967Y-15480531D02*
X10717444Y-15499579D01*
X10717444Y-15499579D02*
X10717444Y-15547198D01*
X10717444Y-15547198D02*
X10726967Y-15566246D01*
X10726967Y-15566246D02*
X10736491Y-15575769D01*
X10736491Y-15575769D02*
X10755539Y-15585293D01*
X10755539Y-15585293D02*
X10793634Y-15585293D01*
X10793634Y-15585293D02*
X10812682Y-15575769D01*
X10812682Y-15575769D02*
X10822205Y-15566246D01*
X10822205Y-15566246D02*
X10831729Y-15547198D01*
X10907920Y-15480531D02*
X10917444Y-15471008D01*
X10917444Y-15471008D02*
X10936491Y-15461484D01*
X10936491Y-15461484D02*
X10984110Y-15461484D01*
X10984110Y-15461484D02*
X11003158Y-15471008D01*
X11003158Y-15471008D02*
X11012682Y-15480531D01*
X11012682Y-15480531D02*
X11022205Y-15499579D01*
X11022205Y-15499579D02*
X11022205Y-15518627D01*
X11022205Y-15518627D02*
X11012682Y-15547198D01*
X11012682Y-15547198D02*
X10898396Y-15661484D01*
X10898396Y-15661484D02*
X11022205Y-15661484D01*
X11107920Y-15661484D02*
X11107920Y-15528150D01*
X11107920Y-15547198D02*
X11117444Y-15537674D01*
X11117444Y-15537674D02*
X11136491Y-15528150D01*
X11136491Y-15528150D02*
X11165063Y-15528150D01*
X11165063Y-15528150D02*
X11184110Y-15537674D01*
X11184110Y-15537674D02*
X11193634Y-15556722D01*
X11193634Y-15556722D02*
X11193634Y-15661484D01*
X11193634Y-15556722D02*
X11203158Y-15537674D01*
X11203158Y-15537674D02*
X11222205Y-15528150D01*
X11222205Y-15528150D02*
X11250777Y-15528150D01*
X11250777Y-15528150D02*
X11269824Y-15537674D01*
X11269824Y-15537674D02*
X11279348Y-15556722D01*
X11279348Y-15556722D02*
X11279348Y-15661484D01*
X11374586Y-15661484D02*
X11374586Y-15528150D01*
X11374586Y-15547198D02*
X11384110Y-15537674D01*
X11384110Y-15537674D02*
X11403158Y-15528150D01*
X11403158Y-15528150D02*
X11431729Y-15528150D01*
X11431729Y-15528150D02*
X11450777Y-15537674D01*
X11450777Y-15537674D02*
X11460301Y-15556722D01*
X11460301Y-15556722D02*
X11460301Y-15661484D01*
X11460301Y-15556722D02*
X11469824Y-15537674D01*
X11469824Y-15537674D02*
X11488872Y-15528150D01*
X11488872Y-15528150D02*
X11517443Y-15528150D01*
X11517443Y-15528150D02*
X11536491Y-15537674D01*
X11536491Y-15537674D02*
X11546015Y-15556722D01*
X11546015Y-15556722D02*
X11546015Y-15661484D01*
X11936491Y-15451960D02*
X11765063Y-15709103D01*
X12193634Y-15461484D02*
X12212682Y-15461484D01*
X12212682Y-15461484D02*
X12231729Y-15471008D01*
X12231729Y-15471008D02*
X12241253Y-15480531D01*
X12241253Y-15480531D02*
X12250777Y-15499579D01*
X12250777Y-15499579D02*
X12260301Y-15537674D01*
X12260301Y-15537674D02*
X12260301Y-15585293D01*
X12260301Y-15585293D02*
X12250777Y-15623388D01*
X12250777Y-15623388D02*
X12241253Y-15642436D01*
X12241253Y-15642436D02*
X12231729Y-15651960D01*
X12231729Y-15651960D02*
X12212682Y-15661484D01*
X12212682Y-15661484D02*
X12193634Y-15661484D01*
X12193634Y-15661484D02*
X12174586Y-15651960D01*
X12174586Y-15651960D02*
X12165063Y-15642436D01*
X12165063Y-15642436D02*
X12155539Y-15623388D01*
X12155539Y-15623388D02*
X12146015Y-15585293D01*
X12146015Y-15585293D02*
X12146015Y-15537674D01*
X12146015Y-15537674D02*
X12155539Y-15499579D01*
X12155539Y-15499579D02*
X12165063Y-15480531D01*
X12165063Y-15480531D02*
X12174586Y-15471008D01*
X12174586Y-15471008D02*
X12193634Y-15461484D01*
X12346015Y-15642436D02*
X12355539Y-15651960D01*
X12355539Y-15651960D02*
X12346015Y-15661484D01*
X12346015Y-15661484D02*
X12336491Y-15651960D01*
X12336491Y-15651960D02*
X12346015Y-15642436D01*
X12346015Y-15642436D02*
X12346015Y-15661484D01*
X12479348Y-15461484D02*
X12498396Y-15461484D01*
X12498396Y-15461484D02*
X12517444Y-15471008D01*
X12517444Y-15471008D02*
X12526967Y-15480531D01*
X12526967Y-15480531D02*
X12536491Y-15499579D01*
X12536491Y-15499579D02*
X12546015Y-15537674D01*
X12546015Y-15537674D02*
X12546015Y-15585293D01*
X12546015Y-15585293D02*
X12536491Y-15623388D01*
X12536491Y-15623388D02*
X12526967Y-15642436D01*
X12526967Y-15642436D02*
X12517444Y-15651960D01*
X12517444Y-15651960D02*
X12498396Y-15661484D01*
X12498396Y-15661484D02*
X12479348Y-15661484D01*
X12479348Y-15661484D02*
X12460301Y-15651960D01*
X12460301Y-15651960D02*
X12450777Y-15642436D01*
X12450777Y-15642436D02*
X12441253Y-15623388D01*
X12441253Y-15623388D02*
X12431729Y-15585293D01*
X12431729Y-15585293D02*
X12431729Y-15537674D01*
X12431729Y-15537674D02*
X12441253Y-15499579D01*
X12441253Y-15499579D02*
X12450777Y-15480531D01*
X12450777Y-15480531D02*
X12460301Y-15471008D01*
X12460301Y-15471008D02*
X12479348Y-15461484D01*
X12717444Y-15528150D02*
X12717444Y-15661484D01*
X12669825Y-15451960D02*
X12622206Y-15594817D01*
X12622206Y-15594817D02*
X12746015Y-15594817D01*
X12803158Y-15461484D02*
X12926967Y-15461484D01*
X12926967Y-15461484D02*
X12860301Y-15537674D01*
X12860301Y-15537674D02*
X12888872Y-15537674D01*
X12888872Y-15537674D02*
X12907920Y-15547198D01*
X12907920Y-15547198D02*
X12917444Y-15556722D01*
X12917444Y-15556722D02*
X12926967Y-15575769D01*
X12926967Y-15575769D02*
X12926967Y-15623388D01*
X12926967Y-15623388D02*
X12917444Y-15642436D01*
X12917444Y-15642436D02*
X12907920Y-15651960D01*
X12907920Y-15651960D02*
X12888872Y-15661484D01*
X12888872Y-15661484D02*
X12831729Y-15661484D01*
X12831729Y-15661484D02*
X12812682Y-15651960D01*
X12812682Y-15651960D02*
X12803158Y-15642436D01*
X13050777Y-15461484D02*
X13069825Y-15461484D01*
X13069825Y-15461484D02*
X13088872Y-15471008D01*
X13088872Y-15471008D02*
X13098396Y-15480531D01*
X13098396Y-15480531D02*
X13107920Y-15499579D01*
X13107920Y-15499579D02*
X13117444Y-15537674D01*
X13117444Y-15537674D02*
X13117444Y-15585293D01*
X13117444Y-15585293D02*
X13107920Y-15623388D01*
X13107920Y-15623388D02*
X13098396Y-15642436D01*
X13098396Y-15642436D02*
X13088872Y-15651960D01*
X13088872Y-15651960D02*
X13069825Y-15661484D01*
X13069825Y-15661484D02*
X13050777Y-15661484D01*
X13050777Y-15661484D02*
X13031729Y-15651960D01*
X13031729Y-15651960D02*
X13022206Y-15642436D01*
X13022206Y-15642436D02*
X13012682Y-15623388D01*
X13012682Y-15623388D02*
X13003158Y-15585293D01*
X13003158Y-15585293D02*
X13003158Y-15537674D01*
X13003158Y-15537674D02*
X13012682Y-15499579D01*
X13012682Y-15499579D02*
X13022206Y-15480531D01*
X13022206Y-15480531D02*
X13031729Y-15471008D01*
X13031729Y-15471008D02*
X13050777Y-15461484D01*
X13193634Y-15461484D02*
X13193634Y-15499579D01*
X13269825Y-15461484D02*
X13269825Y-15499579D01*
X13565063Y-15737674D02*
X13555539Y-15728150D01*
X13555539Y-15728150D02*
X13536491Y-15699579D01*
X13536491Y-15699579D02*
X13526968Y-15680531D01*
X13526968Y-15680531D02*
X13517444Y-15651960D01*
X13517444Y-15651960D02*
X13507920Y-15604341D01*
X13507920Y-15604341D02*
X13507920Y-15566246D01*
X13507920Y-15566246D02*
X13517444Y-15518627D01*
X13517444Y-15518627D02*
X13526968Y-15490055D01*
X13526968Y-15490055D02*
X13536491Y-15471008D01*
X13536491Y-15471008D02*
X13555539Y-15442436D01*
X13555539Y-15442436D02*
X13565063Y-15432912D01*
X13631729Y-15480531D02*
X13641253Y-15471008D01*
X13641253Y-15471008D02*
X13660301Y-15461484D01*
X13660301Y-15461484D02*
X13707920Y-15461484D01*
X13707920Y-15461484D02*
X13726968Y-15471008D01*
X13726968Y-15471008D02*
X13736491Y-15480531D01*
X13736491Y-15480531D02*
X13746015Y-15499579D01*
X13746015Y-15499579D02*
X13746015Y-15518627D01*
X13746015Y-15518627D02*
X13736491Y-15547198D01*
X13736491Y-15547198D02*
X13622206Y-15661484D01*
X13622206Y-15661484D02*
X13746015Y-15661484D01*
X13841253Y-15661484D02*
X13879348Y-15661484D01*
X13879348Y-15661484D02*
X13898396Y-15651960D01*
X13898396Y-15651960D02*
X13907920Y-15642436D01*
X13907920Y-15642436D02*
X13926968Y-15613865D01*
X13926968Y-15613865D02*
X13936491Y-15575769D01*
X13936491Y-15575769D02*
X13936491Y-15499579D01*
X13936491Y-15499579D02*
X13926968Y-15480531D01*
X13926968Y-15480531D02*
X13917444Y-15471008D01*
X13917444Y-15471008D02*
X13898396Y-15461484D01*
X13898396Y-15461484D02*
X13860301Y-15461484D01*
X13860301Y-15461484D02*
X13841253Y-15471008D01*
X13841253Y-15471008D02*
X13831729Y-15480531D01*
X13831729Y-15480531D02*
X13822206Y-15499579D01*
X13822206Y-15499579D02*
X13822206Y-15547198D01*
X13822206Y-15547198D02*
X13831729Y-15566246D01*
X13831729Y-15566246D02*
X13841253Y-15575769D01*
X13841253Y-15575769D02*
X13860301Y-15585293D01*
X13860301Y-15585293D02*
X13898396Y-15585293D01*
X13898396Y-15585293D02*
X13917444Y-15575769D01*
X13917444Y-15575769D02*
X13926968Y-15566246D01*
X13926968Y-15566246D02*
X13936491Y-15547198D01*
X14174587Y-15661484D02*
X14174587Y-15461484D01*
X14260301Y-15661484D02*
X14260301Y-15556722D01*
X14260301Y-15556722D02*
X14250777Y-15537674D01*
X14250777Y-15537674D02*
X14231730Y-15528150D01*
X14231730Y-15528150D02*
X14203158Y-15528150D01*
X14203158Y-15528150D02*
X14184110Y-15537674D01*
X14184110Y-15537674D02*
X14174587Y-15547198D01*
X14384110Y-15661484D02*
X14365063Y-15651960D01*
X14365063Y-15651960D02*
X14355539Y-15642436D01*
X14355539Y-15642436D02*
X14346015Y-15623388D01*
X14346015Y-15623388D02*
X14346015Y-15566246D01*
X14346015Y-15566246D02*
X14355539Y-15547198D01*
X14355539Y-15547198D02*
X14365063Y-15537674D01*
X14365063Y-15537674D02*
X14384110Y-15528150D01*
X14384110Y-15528150D02*
X14412682Y-15528150D01*
X14412682Y-15528150D02*
X14431730Y-15537674D01*
X14431730Y-15537674D02*
X14441253Y-15547198D01*
X14441253Y-15547198D02*
X14450777Y-15566246D01*
X14450777Y-15566246D02*
X14450777Y-15623388D01*
X14450777Y-15623388D02*
X14441253Y-15642436D01*
X14441253Y-15642436D02*
X14431730Y-15651960D01*
X14431730Y-15651960D02*
X14412682Y-15661484D01*
X14412682Y-15661484D02*
X14384110Y-15661484D01*
X14565063Y-15661484D02*
X14546015Y-15651960D01*
X14546015Y-15651960D02*
X14536491Y-15632912D01*
X14536491Y-15632912D02*
X14536491Y-15461484D01*
X14717444Y-15651960D02*
X14698396Y-15661484D01*
X14698396Y-15661484D02*
X14660301Y-15661484D01*
X14660301Y-15661484D02*
X14641253Y-15651960D01*
X14641253Y-15651960D02*
X14631730Y-15632912D01*
X14631730Y-15632912D02*
X14631730Y-15556722D01*
X14631730Y-15556722D02*
X14641253Y-15537674D01*
X14641253Y-15537674D02*
X14660301Y-15528150D01*
X14660301Y-15528150D02*
X14698396Y-15528150D01*
X14698396Y-15528150D02*
X14717444Y-15537674D01*
X14717444Y-15537674D02*
X14726968Y-15556722D01*
X14726968Y-15556722D02*
X14726968Y-15575769D01*
X14726968Y-15575769D02*
X14631730Y-15594817D01*
X14803158Y-15651960D02*
X14822206Y-15661484D01*
X14822206Y-15661484D02*
X14860301Y-15661484D01*
X14860301Y-15661484D02*
X14879349Y-15651960D01*
X14879349Y-15651960D02*
X14888872Y-15632912D01*
X14888872Y-15632912D02*
X14888872Y-15623388D01*
X14888872Y-15623388D02*
X14879349Y-15604341D01*
X14879349Y-15604341D02*
X14860301Y-15594817D01*
X14860301Y-15594817D02*
X14831730Y-15594817D01*
X14831730Y-15594817D02*
X14812682Y-15585293D01*
X14812682Y-15585293D02*
X14803158Y-15566246D01*
X14803158Y-15566246D02*
X14803158Y-15556722D01*
X14803158Y-15556722D02*
X14812682Y-15537674D01*
X14812682Y-15537674D02*
X14831730Y-15528150D01*
X14831730Y-15528150D02*
X14860301Y-15528150D01*
X14860301Y-15528150D02*
X14879349Y-15537674D01*
X14955539Y-15737674D02*
X14965063Y-15728150D01*
X14965063Y-15728150D02*
X14984111Y-15699579D01*
X14984111Y-15699579D02*
X14993634Y-15680531D01*
X14993634Y-15680531D02*
X15003158Y-15651960D01*
X15003158Y-15651960D02*
X15012682Y-15604341D01*
X15012682Y-15604341D02*
X15012682Y-15566246D01*
X15012682Y-15566246D02*
X15003158Y-15518627D01*
X15003158Y-15518627D02*
X14993634Y-15490055D01*
X14993634Y-15490055D02*
X14984111Y-15471008D01*
X14984111Y-15471008D02*
X14965063Y-15442436D01*
X14965063Y-15442436D02*
X14955539Y-15432912D01*
D13*
X9880000Y-15779000D02*
X9990000Y-15889000D01*
X9990000Y-15779000D02*
X9880000Y-15889000D01*
X9935000Y-15779000D02*
X9935000Y-15889000D01*
X9880000Y-15834000D02*
X9990000Y-15834000D01*
D10*
X10355539Y-15925484D02*
X10241253Y-15925484D01*
X10298396Y-15925484D02*
X10298396Y-15725484D01*
X10298396Y-15725484D02*
X10279348Y-15754055D01*
X10279348Y-15754055D02*
X10260301Y-15773103D01*
X10260301Y-15773103D02*
X10241253Y-15782627D01*
X10441253Y-15906436D02*
X10450777Y-15915960D01*
X10450777Y-15915960D02*
X10441253Y-15925484D01*
X10441253Y-15925484D02*
X10431729Y-15915960D01*
X10431729Y-15915960D02*
X10441253Y-15906436D01*
X10441253Y-15906436D02*
X10441253Y-15925484D01*
X10641253Y-15925484D02*
X10526967Y-15925484D01*
X10584110Y-15925484D02*
X10584110Y-15725484D01*
X10584110Y-15725484D02*
X10565063Y-15754055D01*
X10565063Y-15754055D02*
X10546015Y-15773103D01*
X10546015Y-15773103D02*
X10526967Y-15782627D01*
X10765063Y-15725484D02*
X10784110Y-15725484D01*
X10784110Y-15725484D02*
X10803158Y-15735008D01*
X10803158Y-15735008D02*
X10812682Y-15744531D01*
X10812682Y-15744531D02*
X10822205Y-15763579D01*
X10822205Y-15763579D02*
X10831729Y-15801674D01*
X10831729Y-15801674D02*
X10831729Y-15849293D01*
X10831729Y-15849293D02*
X10822205Y-15887388D01*
X10822205Y-15887388D02*
X10812682Y-15906436D01*
X10812682Y-15906436D02*
X10803158Y-15915960D01*
X10803158Y-15915960D02*
X10784110Y-15925484D01*
X10784110Y-15925484D02*
X10765063Y-15925484D01*
X10765063Y-15925484D02*
X10746015Y-15915960D01*
X10746015Y-15915960D02*
X10736491Y-15906436D01*
X10736491Y-15906436D02*
X10726967Y-15887388D01*
X10726967Y-15887388D02*
X10717444Y-15849293D01*
X10717444Y-15849293D02*
X10717444Y-15801674D01*
X10717444Y-15801674D02*
X10726967Y-15763579D01*
X10726967Y-15763579D02*
X10736491Y-15744531D01*
X10736491Y-15744531D02*
X10746015Y-15735008D01*
X10746015Y-15735008D02*
X10765063Y-15725484D01*
X10955539Y-15725484D02*
X10974586Y-15725484D01*
X10974586Y-15725484D02*
X10993634Y-15735008D01*
X10993634Y-15735008D02*
X11003158Y-15744531D01*
X11003158Y-15744531D02*
X11012682Y-15763579D01*
X11012682Y-15763579D02*
X11022205Y-15801674D01*
X11022205Y-15801674D02*
X11022205Y-15849293D01*
X11022205Y-15849293D02*
X11012682Y-15887388D01*
X11012682Y-15887388D02*
X11003158Y-15906436D01*
X11003158Y-15906436D02*
X10993634Y-15915960D01*
X10993634Y-15915960D02*
X10974586Y-15925484D01*
X10974586Y-15925484D02*
X10955539Y-15925484D01*
X10955539Y-15925484D02*
X10936491Y-15915960D01*
X10936491Y-15915960D02*
X10926967Y-15906436D01*
X10926967Y-15906436D02*
X10917444Y-15887388D01*
X10917444Y-15887388D02*
X10907920Y-15849293D01*
X10907920Y-15849293D02*
X10907920Y-15801674D01*
X10907920Y-15801674D02*
X10917444Y-15763579D01*
X10917444Y-15763579D02*
X10926967Y-15744531D01*
X10926967Y-15744531D02*
X10936491Y-15735008D01*
X10936491Y-15735008D02*
X10955539Y-15725484D01*
X11107920Y-15925484D02*
X11107920Y-15792150D01*
X11107920Y-15811198D02*
X11117444Y-15801674D01*
X11117444Y-15801674D02*
X11136491Y-15792150D01*
X11136491Y-15792150D02*
X11165063Y-15792150D01*
X11165063Y-15792150D02*
X11184110Y-15801674D01*
X11184110Y-15801674D02*
X11193634Y-15820722D01*
X11193634Y-15820722D02*
X11193634Y-15925484D01*
X11193634Y-15820722D02*
X11203158Y-15801674D01*
X11203158Y-15801674D02*
X11222205Y-15792150D01*
X11222205Y-15792150D02*
X11250777Y-15792150D01*
X11250777Y-15792150D02*
X11269824Y-15801674D01*
X11269824Y-15801674D02*
X11279348Y-15820722D01*
X11279348Y-15820722D02*
X11279348Y-15925484D01*
X11374586Y-15925484D02*
X11374586Y-15792150D01*
X11374586Y-15811198D02*
X11384110Y-15801674D01*
X11384110Y-15801674D02*
X11403158Y-15792150D01*
X11403158Y-15792150D02*
X11431729Y-15792150D01*
X11431729Y-15792150D02*
X11450777Y-15801674D01*
X11450777Y-15801674D02*
X11460301Y-15820722D01*
X11460301Y-15820722D02*
X11460301Y-15925484D01*
X11460301Y-15820722D02*
X11469824Y-15801674D01*
X11469824Y-15801674D02*
X11488872Y-15792150D01*
X11488872Y-15792150D02*
X11517443Y-15792150D01*
X11517443Y-15792150D02*
X11536491Y-15801674D01*
X11536491Y-15801674D02*
X11546015Y-15820722D01*
X11546015Y-15820722D02*
X11546015Y-15925484D01*
X11936491Y-15715960D02*
X11765063Y-15973103D01*
X12193634Y-15725484D02*
X12212682Y-15725484D01*
X12212682Y-15725484D02*
X12231729Y-15735008D01*
X12231729Y-15735008D02*
X12241253Y-15744531D01*
X12241253Y-15744531D02*
X12250777Y-15763579D01*
X12250777Y-15763579D02*
X12260301Y-15801674D01*
X12260301Y-15801674D02*
X12260301Y-15849293D01*
X12260301Y-15849293D02*
X12250777Y-15887388D01*
X12250777Y-15887388D02*
X12241253Y-15906436D01*
X12241253Y-15906436D02*
X12231729Y-15915960D01*
X12231729Y-15915960D02*
X12212682Y-15925484D01*
X12212682Y-15925484D02*
X12193634Y-15925484D01*
X12193634Y-15925484D02*
X12174586Y-15915960D01*
X12174586Y-15915960D02*
X12165063Y-15906436D01*
X12165063Y-15906436D02*
X12155539Y-15887388D01*
X12155539Y-15887388D02*
X12146015Y-15849293D01*
X12146015Y-15849293D02*
X12146015Y-15801674D01*
X12146015Y-15801674D02*
X12155539Y-15763579D01*
X12155539Y-15763579D02*
X12165063Y-15744531D01*
X12165063Y-15744531D02*
X12174586Y-15735008D01*
X12174586Y-15735008D02*
X12193634Y-15725484D01*
X12346015Y-15906436D02*
X12355539Y-15915960D01*
X12355539Y-15915960D02*
X12346015Y-15925484D01*
X12346015Y-15925484D02*
X12336491Y-15915960D01*
X12336491Y-15915960D02*
X12346015Y-15906436D01*
X12346015Y-15906436D02*
X12346015Y-15925484D01*
X12479348Y-15725484D02*
X12498396Y-15725484D01*
X12498396Y-15725484D02*
X12517444Y-15735008D01*
X12517444Y-15735008D02*
X12526967Y-15744531D01*
X12526967Y-15744531D02*
X12536491Y-15763579D01*
X12536491Y-15763579D02*
X12546015Y-15801674D01*
X12546015Y-15801674D02*
X12546015Y-15849293D01*
X12546015Y-15849293D02*
X12536491Y-15887388D01*
X12536491Y-15887388D02*
X12526967Y-15906436D01*
X12526967Y-15906436D02*
X12517444Y-15915960D01*
X12517444Y-15915960D02*
X12498396Y-15925484D01*
X12498396Y-15925484D02*
X12479348Y-15925484D01*
X12479348Y-15925484D02*
X12460301Y-15915960D01*
X12460301Y-15915960D02*
X12450777Y-15906436D01*
X12450777Y-15906436D02*
X12441253Y-15887388D01*
X12441253Y-15887388D02*
X12431729Y-15849293D01*
X12431729Y-15849293D02*
X12431729Y-15801674D01*
X12431729Y-15801674D02*
X12441253Y-15763579D01*
X12441253Y-15763579D02*
X12450777Y-15744531D01*
X12450777Y-15744531D02*
X12460301Y-15735008D01*
X12460301Y-15735008D02*
X12479348Y-15725484D01*
X12717444Y-15792150D02*
X12717444Y-15925484D01*
X12669825Y-15715960D02*
X12622206Y-15858817D01*
X12622206Y-15858817D02*
X12746015Y-15858817D01*
X12803158Y-15725484D02*
X12926967Y-15725484D01*
X12926967Y-15725484D02*
X12860301Y-15801674D01*
X12860301Y-15801674D02*
X12888872Y-15801674D01*
X12888872Y-15801674D02*
X12907920Y-15811198D01*
X12907920Y-15811198D02*
X12917444Y-15820722D01*
X12917444Y-15820722D02*
X12926967Y-15839769D01*
X12926967Y-15839769D02*
X12926967Y-15887388D01*
X12926967Y-15887388D02*
X12917444Y-15906436D01*
X12917444Y-15906436D02*
X12907920Y-15915960D01*
X12907920Y-15915960D02*
X12888872Y-15925484D01*
X12888872Y-15925484D02*
X12831729Y-15925484D01*
X12831729Y-15925484D02*
X12812682Y-15915960D01*
X12812682Y-15915960D02*
X12803158Y-15906436D01*
X12993634Y-15725484D02*
X13117444Y-15725484D01*
X13117444Y-15725484D02*
X13050777Y-15801674D01*
X13050777Y-15801674D02*
X13079348Y-15801674D01*
X13079348Y-15801674D02*
X13098396Y-15811198D01*
X13098396Y-15811198D02*
X13107920Y-15820722D01*
X13107920Y-15820722D02*
X13117444Y-15839769D01*
X13117444Y-15839769D02*
X13117444Y-15887388D01*
X13117444Y-15887388D02*
X13107920Y-15906436D01*
X13107920Y-15906436D02*
X13098396Y-15915960D01*
X13098396Y-15915960D02*
X13079348Y-15925484D01*
X13079348Y-15925484D02*
X13022206Y-15925484D01*
X13022206Y-15925484D02*
X13003158Y-15915960D01*
X13003158Y-15915960D02*
X12993634Y-15906436D01*
X13193634Y-15725484D02*
X13193634Y-15763579D01*
X13269825Y-15725484D02*
X13269825Y-15763579D01*
X13565063Y-16001674D02*
X13555539Y-15992150D01*
X13555539Y-15992150D02*
X13536491Y-15963579D01*
X13536491Y-15963579D02*
X13526968Y-15944531D01*
X13526968Y-15944531D02*
X13517444Y-15915960D01*
X13517444Y-15915960D02*
X13507920Y-15868341D01*
X13507920Y-15868341D02*
X13507920Y-15830246D01*
X13507920Y-15830246D02*
X13517444Y-15782627D01*
X13517444Y-15782627D02*
X13526968Y-15754055D01*
X13526968Y-15754055D02*
X13536491Y-15735008D01*
X13536491Y-15735008D02*
X13555539Y-15706436D01*
X13555539Y-15706436D02*
X13565063Y-15696912D01*
X13726968Y-15792150D02*
X13726968Y-15925484D01*
X13679348Y-15715960D02*
X13631729Y-15858817D01*
X13631729Y-15858817D02*
X13755539Y-15858817D01*
X13984110Y-15925484D02*
X13984110Y-15725484D01*
X14069825Y-15925484D02*
X14069825Y-15820722D01*
X14069825Y-15820722D02*
X14060301Y-15801674D01*
X14060301Y-15801674D02*
X14041253Y-15792150D01*
X14041253Y-15792150D02*
X14012682Y-15792150D01*
X14012682Y-15792150D02*
X13993634Y-15801674D01*
X13993634Y-15801674D02*
X13984110Y-15811198D01*
X14193634Y-15925484D02*
X14174587Y-15915960D01*
X14174587Y-15915960D02*
X14165063Y-15906436D01*
X14165063Y-15906436D02*
X14155539Y-15887388D01*
X14155539Y-15887388D02*
X14155539Y-15830246D01*
X14155539Y-15830246D02*
X14165063Y-15811198D01*
X14165063Y-15811198D02*
X14174587Y-15801674D01*
X14174587Y-15801674D02*
X14193634Y-15792150D01*
X14193634Y-15792150D02*
X14222206Y-15792150D01*
X14222206Y-15792150D02*
X14241253Y-15801674D01*
X14241253Y-15801674D02*
X14250777Y-15811198D01*
X14250777Y-15811198D02*
X14260301Y-15830246D01*
X14260301Y-15830246D02*
X14260301Y-15887388D01*
X14260301Y-15887388D02*
X14250777Y-15906436D01*
X14250777Y-15906436D02*
X14241253Y-15915960D01*
X14241253Y-15915960D02*
X14222206Y-15925484D01*
X14222206Y-15925484D02*
X14193634Y-15925484D01*
X14374587Y-15925484D02*
X14355539Y-15915960D01*
X14355539Y-15915960D02*
X14346015Y-15896912D01*
X14346015Y-15896912D02*
X14346015Y-15725484D01*
X14526968Y-15915960D02*
X14507920Y-15925484D01*
X14507920Y-15925484D02*
X14469825Y-15925484D01*
X14469825Y-15925484D02*
X14450777Y-15915960D01*
X14450777Y-15915960D02*
X14441253Y-15896912D01*
X14441253Y-15896912D02*
X14441253Y-15820722D01*
X14441253Y-15820722D02*
X14450777Y-15801674D01*
X14450777Y-15801674D02*
X14469825Y-15792150D01*
X14469825Y-15792150D02*
X14507920Y-15792150D01*
X14507920Y-15792150D02*
X14526968Y-15801674D01*
X14526968Y-15801674D02*
X14536491Y-15820722D01*
X14536491Y-15820722D02*
X14536491Y-15839769D01*
X14536491Y-15839769D02*
X14441253Y-15858817D01*
X14612682Y-15915960D02*
X14631730Y-15925484D01*
X14631730Y-15925484D02*
X14669825Y-15925484D01*
X14669825Y-15925484D02*
X14688872Y-15915960D01*
X14688872Y-15915960D02*
X14698396Y-15896912D01*
X14698396Y-15896912D02*
X14698396Y-15887388D01*
X14698396Y-15887388D02*
X14688872Y-15868341D01*
X14688872Y-15868341D02*
X14669825Y-15858817D01*
X14669825Y-15858817D02*
X14641253Y-15858817D01*
X14641253Y-15858817D02*
X14622206Y-15849293D01*
X14622206Y-15849293D02*
X14612682Y-15830246D01*
X14612682Y-15830246D02*
X14612682Y-15820722D01*
X14612682Y-15820722D02*
X14622206Y-15801674D01*
X14622206Y-15801674D02*
X14641253Y-15792150D01*
X14641253Y-15792150D02*
X14669825Y-15792150D01*
X14669825Y-15792150D02*
X14688872Y-15801674D01*
X14765063Y-16001674D02*
X14774587Y-15992150D01*
X14774587Y-15992150D02*
X14793634Y-15963579D01*
X14793634Y-15963579D02*
X14803158Y-15944531D01*
X14803158Y-15944531D02*
X14812682Y-15915960D01*
X14812682Y-15915960D02*
X14822206Y-15868341D01*
X14822206Y-15868341D02*
X14822206Y-15830246D01*
X14822206Y-15830246D02*
X14812682Y-15782627D01*
X14812682Y-15782627D02*
X14803158Y-15754055D01*
X14803158Y-15754055D02*
X14793634Y-15735008D01*
X14793634Y-15735008D02*
X14774587Y-15706436D01*
X14774587Y-15706436D02*
X14765063Y-15696912D01*
D14*
X9870000Y-16038000D02*
X9990000Y-16158000D01*
X9990000Y-16038000D02*
X9870000Y-16158000D01*
X9972427Y-16140427D02*
X9972427Y-16055573D01*
X9887573Y-16055573D01*
X9887573Y-16140427D01*
X9972427Y-16140427D01*
D10*
X10355539Y-16189484D02*
X10241253Y-16189484D01*
X10298396Y-16189484D02*
X10298396Y-15989484D01*
X10298396Y-15989484D02*
X10279348Y-16018055D01*
X10279348Y-16018055D02*
X10260301Y-16037103D01*
X10260301Y-16037103D02*
X10241253Y-16046627D01*
X10441253Y-16170436D02*
X10450777Y-16179960D01*
X10450777Y-16179960D02*
X10441253Y-16189484D01*
X10441253Y-16189484D02*
X10431729Y-16179960D01*
X10431729Y-16179960D02*
X10441253Y-16170436D01*
X10441253Y-16170436D02*
X10441253Y-16189484D01*
X10526967Y-16008531D02*
X10536491Y-15999008D01*
X10536491Y-15999008D02*
X10555539Y-15989484D01*
X10555539Y-15989484D02*
X10603158Y-15989484D01*
X10603158Y-15989484D02*
X10622205Y-15999008D01*
X10622205Y-15999008D02*
X10631729Y-16008531D01*
X10631729Y-16008531D02*
X10641253Y-16027579D01*
X10641253Y-16027579D02*
X10641253Y-16046627D01*
X10641253Y-16046627D02*
X10631729Y-16075198D01*
X10631729Y-16075198D02*
X10517444Y-16189484D01*
X10517444Y-16189484D02*
X10641253Y-16189484D01*
X10765063Y-15989484D02*
X10784110Y-15989484D01*
X10784110Y-15989484D02*
X10803158Y-15999008D01*
X10803158Y-15999008D02*
X10812682Y-16008531D01*
X10812682Y-16008531D02*
X10822205Y-16027579D01*
X10822205Y-16027579D02*
X10831729Y-16065674D01*
X10831729Y-16065674D02*
X10831729Y-16113293D01*
X10831729Y-16113293D02*
X10822205Y-16151388D01*
X10822205Y-16151388D02*
X10812682Y-16170436D01*
X10812682Y-16170436D02*
X10803158Y-16179960D01*
X10803158Y-16179960D02*
X10784110Y-16189484D01*
X10784110Y-16189484D02*
X10765063Y-16189484D01*
X10765063Y-16189484D02*
X10746015Y-16179960D01*
X10746015Y-16179960D02*
X10736491Y-16170436D01*
X10736491Y-16170436D02*
X10726967Y-16151388D01*
X10726967Y-16151388D02*
X10717444Y-16113293D01*
X10717444Y-16113293D02*
X10717444Y-16065674D01*
X10717444Y-16065674D02*
X10726967Y-16027579D01*
X10726967Y-16027579D02*
X10736491Y-16008531D01*
X10736491Y-16008531D02*
X10746015Y-15999008D01*
X10746015Y-15999008D02*
X10765063Y-15989484D01*
X10955539Y-15989484D02*
X10974586Y-15989484D01*
X10974586Y-15989484D02*
X10993634Y-15999008D01*
X10993634Y-15999008D02*
X11003158Y-16008531D01*
X11003158Y-16008531D02*
X11012682Y-16027579D01*
X11012682Y-16027579D02*
X11022205Y-16065674D01*
X11022205Y-16065674D02*
X11022205Y-16113293D01*
X11022205Y-16113293D02*
X11012682Y-16151388D01*
X11012682Y-16151388D02*
X11003158Y-16170436D01*
X11003158Y-16170436D02*
X10993634Y-16179960D01*
X10993634Y-16179960D02*
X10974586Y-16189484D01*
X10974586Y-16189484D02*
X10955539Y-16189484D01*
X10955539Y-16189484D02*
X10936491Y-16179960D01*
X10936491Y-16179960D02*
X10926967Y-16170436D01*
X10926967Y-16170436D02*
X10917444Y-16151388D01*
X10917444Y-16151388D02*
X10907920Y-16113293D01*
X10907920Y-16113293D02*
X10907920Y-16065674D01*
X10907920Y-16065674D02*
X10917444Y-16027579D01*
X10917444Y-16027579D02*
X10926967Y-16008531D01*
X10926967Y-16008531D02*
X10936491Y-15999008D01*
X10936491Y-15999008D02*
X10955539Y-15989484D01*
X11107920Y-16189484D02*
X11107920Y-16056150D01*
X11107920Y-16075198D02*
X11117444Y-16065674D01*
X11117444Y-16065674D02*
X11136491Y-16056150D01*
X11136491Y-16056150D02*
X11165063Y-16056150D01*
X11165063Y-16056150D02*
X11184110Y-16065674D01*
X11184110Y-16065674D02*
X11193634Y-16084722D01*
X11193634Y-16084722D02*
X11193634Y-16189484D01*
X11193634Y-16084722D02*
X11203158Y-16065674D01*
X11203158Y-16065674D02*
X11222205Y-16056150D01*
X11222205Y-16056150D02*
X11250777Y-16056150D01*
X11250777Y-16056150D02*
X11269824Y-16065674D01*
X11269824Y-16065674D02*
X11279348Y-16084722D01*
X11279348Y-16084722D02*
X11279348Y-16189484D01*
X11374586Y-16189484D02*
X11374586Y-16056150D01*
X11374586Y-16075198D02*
X11384110Y-16065674D01*
X11384110Y-16065674D02*
X11403158Y-16056150D01*
X11403158Y-16056150D02*
X11431729Y-16056150D01*
X11431729Y-16056150D02*
X11450777Y-16065674D01*
X11450777Y-16065674D02*
X11460301Y-16084722D01*
X11460301Y-16084722D02*
X11460301Y-16189484D01*
X11460301Y-16084722D02*
X11469824Y-16065674D01*
X11469824Y-16065674D02*
X11488872Y-16056150D01*
X11488872Y-16056150D02*
X11517443Y-16056150D01*
X11517443Y-16056150D02*
X11536491Y-16065674D01*
X11536491Y-16065674D02*
X11546015Y-16084722D01*
X11546015Y-16084722D02*
X11546015Y-16189484D01*
X11936491Y-15979960D02*
X11765063Y-16237103D01*
X12193634Y-15989484D02*
X12212682Y-15989484D01*
X12212682Y-15989484D02*
X12231729Y-15999008D01*
X12231729Y-15999008D02*
X12241253Y-16008531D01*
X12241253Y-16008531D02*
X12250777Y-16027579D01*
X12250777Y-16027579D02*
X12260301Y-16065674D01*
X12260301Y-16065674D02*
X12260301Y-16113293D01*
X12260301Y-16113293D02*
X12250777Y-16151388D01*
X12250777Y-16151388D02*
X12241253Y-16170436D01*
X12241253Y-16170436D02*
X12231729Y-16179960D01*
X12231729Y-16179960D02*
X12212682Y-16189484D01*
X12212682Y-16189484D02*
X12193634Y-16189484D01*
X12193634Y-16189484D02*
X12174586Y-16179960D01*
X12174586Y-16179960D02*
X12165063Y-16170436D01*
X12165063Y-16170436D02*
X12155539Y-16151388D01*
X12155539Y-16151388D02*
X12146015Y-16113293D01*
X12146015Y-16113293D02*
X12146015Y-16065674D01*
X12146015Y-16065674D02*
X12155539Y-16027579D01*
X12155539Y-16027579D02*
X12165063Y-16008531D01*
X12165063Y-16008531D02*
X12174586Y-15999008D01*
X12174586Y-15999008D02*
X12193634Y-15989484D01*
X12346015Y-16170436D02*
X12355539Y-16179960D01*
X12355539Y-16179960D02*
X12346015Y-16189484D01*
X12346015Y-16189484D02*
X12336491Y-16179960D01*
X12336491Y-16179960D02*
X12346015Y-16170436D01*
X12346015Y-16170436D02*
X12346015Y-16189484D01*
X12479348Y-15989484D02*
X12498396Y-15989484D01*
X12498396Y-15989484D02*
X12517444Y-15999008D01*
X12517444Y-15999008D02*
X12526967Y-16008531D01*
X12526967Y-16008531D02*
X12536491Y-16027579D01*
X12536491Y-16027579D02*
X12546015Y-16065674D01*
X12546015Y-16065674D02*
X12546015Y-16113293D01*
X12546015Y-16113293D02*
X12536491Y-16151388D01*
X12536491Y-16151388D02*
X12526967Y-16170436D01*
X12526967Y-16170436D02*
X12517444Y-16179960D01*
X12517444Y-16179960D02*
X12498396Y-16189484D01*
X12498396Y-16189484D02*
X12479348Y-16189484D01*
X12479348Y-16189484D02*
X12460301Y-16179960D01*
X12460301Y-16179960D02*
X12450777Y-16170436D01*
X12450777Y-16170436D02*
X12441253Y-16151388D01*
X12441253Y-16151388D02*
X12431729Y-16113293D01*
X12431729Y-16113293D02*
X12431729Y-16065674D01*
X12431729Y-16065674D02*
X12441253Y-16027579D01*
X12441253Y-16027579D02*
X12450777Y-16008531D01*
X12450777Y-16008531D02*
X12460301Y-15999008D01*
X12460301Y-15999008D02*
X12479348Y-15989484D01*
X12717444Y-16056150D02*
X12717444Y-16189484D01*
X12669825Y-15979960D02*
X12622206Y-16122817D01*
X12622206Y-16122817D02*
X12746015Y-16122817D01*
X12803158Y-15989484D02*
X12936491Y-15989484D01*
X12936491Y-15989484D02*
X12850777Y-16189484D01*
X13003158Y-16008531D02*
X13012682Y-15999008D01*
X13012682Y-15999008D02*
X13031729Y-15989484D01*
X13031729Y-15989484D02*
X13079348Y-15989484D01*
X13079348Y-15989484D02*
X13098396Y-15999008D01*
X13098396Y-15999008D02*
X13107920Y-16008531D01*
X13107920Y-16008531D02*
X13117444Y-16027579D01*
X13117444Y-16027579D02*
X13117444Y-16046627D01*
X13117444Y-16046627D02*
X13107920Y-16075198D01*
X13107920Y-16075198D02*
X12993634Y-16189484D01*
X12993634Y-16189484D02*
X13117444Y-16189484D01*
X13193634Y-15989484D02*
X13193634Y-16027579D01*
X13269825Y-15989484D02*
X13269825Y-16027579D01*
X13565063Y-16265674D02*
X13555539Y-16256150D01*
X13555539Y-16256150D02*
X13536491Y-16227579D01*
X13536491Y-16227579D02*
X13526968Y-16208531D01*
X13526968Y-16208531D02*
X13517444Y-16179960D01*
X13517444Y-16179960D02*
X13507920Y-16132341D01*
X13507920Y-16132341D02*
X13507920Y-16094246D01*
X13507920Y-16094246D02*
X13517444Y-16046627D01*
X13517444Y-16046627D02*
X13526968Y-16018055D01*
X13526968Y-16018055D02*
X13536491Y-15999008D01*
X13536491Y-15999008D02*
X13555539Y-15970436D01*
X13555539Y-15970436D02*
X13565063Y-15960912D01*
X13726968Y-16056150D02*
X13726968Y-16189484D01*
X13679348Y-15979960D02*
X13631729Y-16122817D01*
X13631729Y-16122817D02*
X13755539Y-16122817D01*
X13984110Y-16189484D02*
X13984110Y-15989484D01*
X14069825Y-16189484D02*
X14069825Y-16084722D01*
X14069825Y-16084722D02*
X14060301Y-16065674D01*
X14060301Y-16065674D02*
X14041253Y-16056150D01*
X14041253Y-16056150D02*
X14012682Y-16056150D01*
X14012682Y-16056150D02*
X13993634Y-16065674D01*
X13993634Y-16065674D02*
X13984110Y-16075198D01*
X14193634Y-16189484D02*
X14174587Y-16179960D01*
X14174587Y-16179960D02*
X14165063Y-16170436D01*
X14165063Y-16170436D02*
X14155539Y-16151388D01*
X14155539Y-16151388D02*
X14155539Y-16094246D01*
X14155539Y-16094246D02*
X14165063Y-16075198D01*
X14165063Y-16075198D02*
X14174587Y-16065674D01*
X14174587Y-16065674D02*
X14193634Y-16056150D01*
X14193634Y-16056150D02*
X14222206Y-16056150D01*
X14222206Y-16056150D02*
X14241253Y-16065674D01*
X14241253Y-16065674D02*
X14250777Y-16075198D01*
X14250777Y-16075198D02*
X14260301Y-16094246D01*
X14260301Y-16094246D02*
X14260301Y-16151388D01*
X14260301Y-16151388D02*
X14250777Y-16170436D01*
X14250777Y-16170436D02*
X14241253Y-16179960D01*
X14241253Y-16179960D02*
X14222206Y-16189484D01*
X14222206Y-16189484D02*
X14193634Y-16189484D01*
X14374587Y-16189484D02*
X14355539Y-16179960D01*
X14355539Y-16179960D02*
X14346015Y-16160912D01*
X14346015Y-16160912D02*
X14346015Y-15989484D01*
X14526968Y-16179960D02*
X14507920Y-16189484D01*
X14507920Y-16189484D02*
X14469825Y-16189484D01*
X14469825Y-16189484D02*
X14450777Y-16179960D01*
X14450777Y-16179960D02*
X14441253Y-16160912D01*
X14441253Y-16160912D02*
X14441253Y-16084722D01*
X14441253Y-16084722D02*
X14450777Y-16065674D01*
X14450777Y-16065674D02*
X14469825Y-16056150D01*
X14469825Y-16056150D02*
X14507920Y-16056150D01*
X14507920Y-16056150D02*
X14526968Y-16065674D01*
X14526968Y-16065674D02*
X14536491Y-16084722D01*
X14536491Y-16084722D02*
X14536491Y-16103769D01*
X14536491Y-16103769D02*
X14441253Y-16122817D01*
X14612682Y-16179960D02*
X14631730Y-16189484D01*
X14631730Y-16189484D02*
X14669825Y-16189484D01*
X14669825Y-16189484D02*
X14688872Y-16179960D01*
X14688872Y-16179960D02*
X14698396Y-16160912D01*
X14698396Y-16160912D02*
X14698396Y-16151388D01*
X14698396Y-16151388D02*
X14688872Y-16132341D01*
X14688872Y-16132341D02*
X14669825Y-16122817D01*
X14669825Y-16122817D02*
X14641253Y-16122817D01*
X14641253Y-16122817D02*
X14622206Y-16113293D01*
X14622206Y-16113293D02*
X14612682Y-16094246D01*
X14612682Y-16094246D02*
X14612682Y-16084722D01*
X14612682Y-16084722D02*
X14622206Y-16065674D01*
X14622206Y-16065674D02*
X14641253Y-16056150D01*
X14641253Y-16056150D02*
X14669825Y-16056150D01*
X14669825Y-16056150D02*
X14688872Y-16065674D01*
X14765063Y-16265674D02*
X14774587Y-16256150D01*
X14774587Y-16256150D02*
X14793634Y-16227579D01*
X14793634Y-16227579D02*
X14803158Y-16208531D01*
X14803158Y-16208531D02*
X14812682Y-16179960D01*
X14812682Y-16179960D02*
X14822206Y-16132341D01*
X14822206Y-16132341D02*
X14822206Y-16094246D01*
X14822206Y-16094246D02*
X14812682Y-16046627D01*
X14812682Y-16046627D02*
X14803158Y-16018055D01*
X14803158Y-16018055D02*
X14793634Y-15999008D01*
X14793634Y-15999008D02*
X14774587Y-15970436D01*
X14774587Y-15970436D02*
X14765063Y-15960912D01*
X9790000Y-16262000D02*
X9990000Y-16462000D01*
X9990000Y-16262000D02*
X9790000Y-16462000D01*
X9890000Y-16462000D02*
X9990000Y-16362000D01*
X9890000Y-16262000D01*
X9790000Y-16362000D01*
X9890000Y-16462000D01*
X10336491Y-16320150D02*
X10336491Y-16453484D01*
X10288872Y-16243960D02*
X10241253Y-16386817D01*
X10241253Y-16386817D02*
X10365063Y-16386817D01*
X10441253Y-16434436D02*
X10450777Y-16443960D01*
X10450777Y-16443960D02*
X10441253Y-16453484D01*
X10441253Y-16453484D02*
X10431729Y-16443960D01*
X10431729Y-16443960D02*
X10441253Y-16434436D01*
X10441253Y-16434436D02*
X10441253Y-16453484D01*
X10517444Y-16253484D02*
X10641253Y-16253484D01*
X10641253Y-16253484D02*
X10574586Y-16329674D01*
X10574586Y-16329674D02*
X10603158Y-16329674D01*
X10603158Y-16329674D02*
X10622205Y-16339198D01*
X10622205Y-16339198D02*
X10631729Y-16348722D01*
X10631729Y-16348722D02*
X10641253Y-16367769D01*
X10641253Y-16367769D02*
X10641253Y-16415388D01*
X10641253Y-16415388D02*
X10631729Y-16434436D01*
X10631729Y-16434436D02*
X10622205Y-16443960D01*
X10622205Y-16443960D02*
X10603158Y-16453484D01*
X10603158Y-16453484D02*
X10546015Y-16453484D01*
X10546015Y-16453484D02*
X10526967Y-16443960D01*
X10526967Y-16443960D02*
X10517444Y-16434436D01*
X10765063Y-16253484D02*
X10784110Y-16253484D01*
X10784110Y-16253484D02*
X10803158Y-16263008D01*
X10803158Y-16263008D02*
X10812682Y-16272531D01*
X10812682Y-16272531D02*
X10822205Y-16291579D01*
X10822205Y-16291579D02*
X10831729Y-16329674D01*
X10831729Y-16329674D02*
X10831729Y-16377293D01*
X10831729Y-16377293D02*
X10822205Y-16415388D01*
X10822205Y-16415388D02*
X10812682Y-16434436D01*
X10812682Y-16434436D02*
X10803158Y-16443960D01*
X10803158Y-16443960D02*
X10784110Y-16453484D01*
X10784110Y-16453484D02*
X10765063Y-16453484D01*
X10765063Y-16453484D02*
X10746015Y-16443960D01*
X10746015Y-16443960D02*
X10736491Y-16434436D01*
X10736491Y-16434436D02*
X10726967Y-16415388D01*
X10726967Y-16415388D02*
X10717444Y-16377293D01*
X10717444Y-16377293D02*
X10717444Y-16329674D01*
X10717444Y-16329674D02*
X10726967Y-16291579D01*
X10726967Y-16291579D02*
X10736491Y-16272531D01*
X10736491Y-16272531D02*
X10746015Y-16263008D01*
X10746015Y-16263008D02*
X10765063Y-16253484D01*
X10955539Y-16253484D02*
X10974586Y-16253484D01*
X10974586Y-16253484D02*
X10993634Y-16263008D01*
X10993634Y-16263008D02*
X11003158Y-16272531D01*
X11003158Y-16272531D02*
X11012682Y-16291579D01*
X11012682Y-16291579D02*
X11022205Y-16329674D01*
X11022205Y-16329674D02*
X11022205Y-16377293D01*
X11022205Y-16377293D02*
X11012682Y-16415388D01*
X11012682Y-16415388D02*
X11003158Y-16434436D01*
X11003158Y-16434436D02*
X10993634Y-16443960D01*
X10993634Y-16443960D02*
X10974586Y-16453484D01*
X10974586Y-16453484D02*
X10955539Y-16453484D01*
X10955539Y-16453484D02*
X10936491Y-16443960D01*
X10936491Y-16443960D02*
X10926967Y-16434436D01*
X10926967Y-16434436D02*
X10917444Y-16415388D01*
X10917444Y-16415388D02*
X10907920Y-16377293D01*
X10907920Y-16377293D02*
X10907920Y-16329674D01*
X10907920Y-16329674D02*
X10917444Y-16291579D01*
X10917444Y-16291579D02*
X10926967Y-16272531D01*
X10926967Y-16272531D02*
X10936491Y-16263008D01*
X10936491Y-16263008D02*
X10955539Y-16253484D01*
X11107920Y-16453484D02*
X11107920Y-16320150D01*
X11107920Y-16339198D02*
X11117444Y-16329674D01*
X11117444Y-16329674D02*
X11136491Y-16320150D01*
X11136491Y-16320150D02*
X11165063Y-16320150D01*
X11165063Y-16320150D02*
X11184110Y-16329674D01*
X11184110Y-16329674D02*
X11193634Y-16348722D01*
X11193634Y-16348722D02*
X11193634Y-16453484D01*
X11193634Y-16348722D02*
X11203158Y-16329674D01*
X11203158Y-16329674D02*
X11222205Y-16320150D01*
X11222205Y-16320150D02*
X11250777Y-16320150D01*
X11250777Y-16320150D02*
X11269824Y-16329674D01*
X11269824Y-16329674D02*
X11279348Y-16348722D01*
X11279348Y-16348722D02*
X11279348Y-16453484D01*
X11374586Y-16453484D02*
X11374586Y-16320150D01*
X11374586Y-16339198D02*
X11384110Y-16329674D01*
X11384110Y-16329674D02*
X11403158Y-16320150D01*
X11403158Y-16320150D02*
X11431729Y-16320150D01*
X11431729Y-16320150D02*
X11450777Y-16329674D01*
X11450777Y-16329674D02*
X11460301Y-16348722D01*
X11460301Y-16348722D02*
X11460301Y-16453484D01*
X11460301Y-16348722D02*
X11469824Y-16329674D01*
X11469824Y-16329674D02*
X11488872Y-16320150D01*
X11488872Y-16320150D02*
X11517443Y-16320150D01*
X11517443Y-16320150D02*
X11536491Y-16329674D01*
X11536491Y-16329674D02*
X11546015Y-16348722D01*
X11546015Y-16348722D02*
X11546015Y-16453484D01*
X11936491Y-16243960D02*
X11765063Y-16501103D01*
X12193634Y-16253484D02*
X12212682Y-16253484D01*
X12212682Y-16253484D02*
X12231729Y-16263008D01*
X12231729Y-16263008D02*
X12241253Y-16272531D01*
X12241253Y-16272531D02*
X12250777Y-16291579D01*
X12250777Y-16291579D02*
X12260301Y-16329674D01*
X12260301Y-16329674D02*
X12260301Y-16377293D01*
X12260301Y-16377293D02*
X12250777Y-16415388D01*
X12250777Y-16415388D02*
X12241253Y-16434436D01*
X12241253Y-16434436D02*
X12231729Y-16443960D01*
X12231729Y-16443960D02*
X12212682Y-16453484D01*
X12212682Y-16453484D02*
X12193634Y-16453484D01*
X12193634Y-16453484D02*
X12174586Y-16443960D01*
X12174586Y-16443960D02*
X12165063Y-16434436D01*
X12165063Y-16434436D02*
X12155539Y-16415388D01*
X12155539Y-16415388D02*
X12146015Y-16377293D01*
X12146015Y-16377293D02*
X12146015Y-16329674D01*
X12146015Y-16329674D02*
X12155539Y-16291579D01*
X12155539Y-16291579D02*
X12165063Y-16272531D01*
X12165063Y-16272531D02*
X12174586Y-16263008D01*
X12174586Y-16263008D02*
X12193634Y-16253484D01*
X12346015Y-16434436D02*
X12355539Y-16443960D01*
X12355539Y-16443960D02*
X12346015Y-16453484D01*
X12346015Y-16453484D02*
X12336491Y-16443960D01*
X12336491Y-16443960D02*
X12346015Y-16434436D01*
X12346015Y-16434436D02*
X12346015Y-16453484D01*
X12546015Y-16453484D02*
X12431729Y-16453484D01*
X12488872Y-16453484D02*
X12488872Y-16253484D01*
X12488872Y-16253484D02*
X12469825Y-16282055D01*
X12469825Y-16282055D02*
X12450777Y-16301103D01*
X12450777Y-16301103D02*
X12431729Y-16310627D01*
X12717444Y-16253484D02*
X12679348Y-16253484D01*
X12679348Y-16253484D02*
X12660301Y-16263008D01*
X12660301Y-16263008D02*
X12650777Y-16272531D01*
X12650777Y-16272531D02*
X12631729Y-16301103D01*
X12631729Y-16301103D02*
X12622206Y-16339198D01*
X12622206Y-16339198D02*
X12622206Y-16415388D01*
X12622206Y-16415388D02*
X12631729Y-16434436D01*
X12631729Y-16434436D02*
X12641253Y-16443960D01*
X12641253Y-16443960D02*
X12660301Y-16453484D01*
X12660301Y-16453484D02*
X12698396Y-16453484D01*
X12698396Y-16453484D02*
X12717444Y-16443960D01*
X12717444Y-16443960D02*
X12726967Y-16434436D01*
X12726967Y-16434436D02*
X12736491Y-16415388D01*
X12736491Y-16415388D02*
X12736491Y-16367769D01*
X12736491Y-16367769D02*
X12726967Y-16348722D01*
X12726967Y-16348722D02*
X12717444Y-16339198D01*
X12717444Y-16339198D02*
X12698396Y-16329674D01*
X12698396Y-16329674D02*
X12660301Y-16329674D01*
X12660301Y-16329674D02*
X12641253Y-16339198D01*
X12641253Y-16339198D02*
X12631729Y-16348722D01*
X12631729Y-16348722D02*
X12622206Y-16367769D01*
X12831729Y-16453484D02*
X12869825Y-16453484D01*
X12869825Y-16453484D02*
X12888872Y-16443960D01*
X12888872Y-16443960D02*
X12898396Y-16434436D01*
X12898396Y-16434436D02*
X12917444Y-16405865D01*
X12917444Y-16405865D02*
X12926967Y-16367769D01*
X12926967Y-16367769D02*
X12926967Y-16291579D01*
X12926967Y-16291579D02*
X12917444Y-16272531D01*
X12917444Y-16272531D02*
X12907920Y-16263008D01*
X12907920Y-16263008D02*
X12888872Y-16253484D01*
X12888872Y-16253484D02*
X12850777Y-16253484D01*
X12850777Y-16253484D02*
X12831729Y-16263008D01*
X12831729Y-16263008D02*
X12822206Y-16272531D01*
X12822206Y-16272531D02*
X12812682Y-16291579D01*
X12812682Y-16291579D02*
X12812682Y-16339198D01*
X12812682Y-16339198D02*
X12822206Y-16358246D01*
X12822206Y-16358246D02*
X12831729Y-16367769D01*
X12831729Y-16367769D02*
X12850777Y-16377293D01*
X12850777Y-16377293D02*
X12888872Y-16377293D01*
X12888872Y-16377293D02*
X12907920Y-16367769D01*
X12907920Y-16367769D02*
X12917444Y-16358246D01*
X12917444Y-16358246D02*
X12926967Y-16339198D01*
X12993634Y-16253484D02*
X13117444Y-16253484D01*
X13117444Y-16253484D02*
X13050777Y-16329674D01*
X13050777Y-16329674D02*
X13079348Y-16329674D01*
X13079348Y-16329674D02*
X13098396Y-16339198D01*
X13098396Y-16339198D02*
X13107920Y-16348722D01*
X13107920Y-16348722D02*
X13117444Y-16367769D01*
X13117444Y-16367769D02*
X13117444Y-16415388D01*
X13117444Y-16415388D02*
X13107920Y-16434436D01*
X13107920Y-16434436D02*
X13098396Y-16443960D01*
X13098396Y-16443960D02*
X13079348Y-16453484D01*
X13079348Y-16453484D02*
X13022206Y-16453484D01*
X13022206Y-16453484D02*
X13003158Y-16443960D01*
X13003158Y-16443960D02*
X12993634Y-16434436D01*
X13193634Y-16253484D02*
X13193634Y-16291579D01*
X13269825Y-16253484D02*
X13269825Y-16291579D01*
X13565063Y-16529674D02*
X13555539Y-16520150D01*
X13555539Y-16520150D02*
X13536491Y-16491579D01*
X13536491Y-16491579D02*
X13526968Y-16472531D01*
X13526968Y-16472531D02*
X13517444Y-16443960D01*
X13517444Y-16443960D02*
X13507920Y-16396341D01*
X13507920Y-16396341D02*
X13507920Y-16358246D01*
X13507920Y-16358246D02*
X13517444Y-16310627D01*
X13517444Y-16310627D02*
X13526968Y-16282055D01*
X13526968Y-16282055D02*
X13536491Y-16263008D01*
X13536491Y-16263008D02*
X13555539Y-16234436D01*
X13555539Y-16234436D02*
X13565063Y-16224912D01*
X13746015Y-16453484D02*
X13631729Y-16453484D01*
X13688872Y-16453484D02*
X13688872Y-16253484D01*
X13688872Y-16253484D02*
X13669825Y-16282055D01*
X13669825Y-16282055D02*
X13650777Y-16301103D01*
X13650777Y-16301103D02*
X13631729Y-16310627D01*
X13984110Y-16453484D02*
X13984110Y-16253484D01*
X14069825Y-16453484D02*
X14069825Y-16348722D01*
X14069825Y-16348722D02*
X14060301Y-16329674D01*
X14060301Y-16329674D02*
X14041253Y-16320150D01*
X14041253Y-16320150D02*
X14012682Y-16320150D01*
X14012682Y-16320150D02*
X13993634Y-16329674D01*
X13993634Y-16329674D02*
X13984110Y-16339198D01*
X14193634Y-16453484D02*
X14174587Y-16443960D01*
X14174587Y-16443960D02*
X14165063Y-16434436D01*
X14165063Y-16434436D02*
X14155539Y-16415388D01*
X14155539Y-16415388D02*
X14155539Y-16358246D01*
X14155539Y-16358246D02*
X14165063Y-16339198D01*
X14165063Y-16339198D02*
X14174587Y-16329674D01*
X14174587Y-16329674D02*
X14193634Y-16320150D01*
X14193634Y-16320150D02*
X14222206Y-16320150D01*
X14222206Y-16320150D02*
X14241253Y-16329674D01*
X14241253Y-16329674D02*
X14250777Y-16339198D01*
X14250777Y-16339198D02*
X14260301Y-16358246D01*
X14260301Y-16358246D02*
X14260301Y-16415388D01*
X14260301Y-16415388D02*
X14250777Y-16434436D01*
X14250777Y-16434436D02*
X14241253Y-16443960D01*
X14241253Y-16443960D02*
X14222206Y-16453484D01*
X14222206Y-16453484D02*
X14193634Y-16453484D01*
X14374587Y-16453484D02*
X14355539Y-16443960D01*
X14355539Y-16443960D02*
X14346015Y-16424912D01*
X14346015Y-16424912D02*
X14346015Y-16253484D01*
X14526968Y-16443960D02*
X14507920Y-16453484D01*
X14507920Y-16453484D02*
X14469825Y-16453484D01*
X14469825Y-16453484D02*
X14450777Y-16443960D01*
X14450777Y-16443960D02*
X14441253Y-16424912D01*
X14441253Y-16424912D02*
X14441253Y-16348722D01*
X14441253Y-16348722D02*
X14450777Y-16329674D01*
X14450777Y-16329674D02*
X14469825Y-16320150D01*
X14469825Y-16320150D02*
X14507920Y-16320150D01*
X14507920Y-16320150D02*
X14526968Y-16329674D01*
X14526968Y-16329674D02*
X14536491Y-16348722D01*
X14536491Y-16348722D02*
X14536491Y-16367769D01*
X14536491Y-16367769D02*
X14441253Y-16386817D01*
X14603158Y-16529674D02*
X14612682Y-16520150D01*
X14612682Y-16520150D02*
X14631730Y-16491579D01*
X14631730Y-16491579D02*
X14641253Y-16472531D01*
X14641253Y-16472531D02*
X14650777Y-16443960D01*
X14650777Y-16443960D02*
X14660301Y-16396341D01*
X14660301Y-16396341D02*
X14660301Y-16358246D01*
X14660301Y-16358246D02*
X14650777Y-16310627D01*
X14650777Y-16310627D02*
X14641253Y-16282055D01*
X14641253Y-16282055D02*
X14631730Y-16263008D01*
X14631730Y-16263008D02*
X14612682Y-16234436D01*
X14612682Y-16234436D02*
X14603158Y-16224912D01*
M02*
