G04 #@! TF.GenerationSoftware,KiCad,Pcbnew,10.0.1*
G04 #@! TF.CreationDate,2026-09-11T15:42:21+01:00*
G04 #@! TF.ProjectId,nice_pillz_niceview_v10,6e696365-5f70-4696-9c6c-7a5f6e696365,rev?*
G04 #@! TF.SameCoordinates,Original*
G04 #@! TF.FileFunction,Soldermask,Bot*
G04 #@! TF.FilePolarity,Negative*
%FSLAX46Y46*%
G04 Gerber Fmt 4.6, Leading zero omitted, Abs format (unit mm)*
G04 Created by KiCad (PCBNEW 10.0.1) date 2026-09-11 15:42:21*
%MOMM*%
%LPD*%
G01*
G04 APERTURE LIST*
%ADD10R,1.800000X1.800000*%
%ADD11C,1.800000*%
%ADD12C,1.700000*%
%ADD13C,8.600000*%
%ADD14C,1.752600*%
%ADD15O,2.000000X1.200000*%
%ADD16C,1.511200*%
%ADD17R,1.700000X1.700000*%
%ADD18O,1.700000X1.700000*%
%ADD19C,6.500000*%
%ADD20O,4.750000X2.250000*%
%ADD21C,1.638200*%
%ADD22C,2.000000*%
%ADD23R,1.752600X1.752600*%
%ADD24R,1.200000X1.500000*%
%ADD25C,1.600000*%
%ADD26R,1.600000X1.600000*%
%ADD27O,1.600000X1.600000*%
G04 APERTURE END LIST*
D10*
X133700000Y-132400000D03*
D11*
X136240000Y-132400000D03*
D10*
X143700000Y-132400000D03*
D11*
X146240000Y-132400000D03*
D12*
X160000000Y-70840000D03*
X160000000Y-78460000D03*
X160000000Y-68300000D03*
X160000000Y-75920000D03*
X160000000Y-73380000D03*
D13*
X150000000Y-106000000D03*
D14*
X150177500Y-83343750D03*
X150177500Y-98583750D03*
D15*
X192900000Y-55000000D03*
X190900000Y-56250000D03*
X192900000Y-57500000D03*
X190900000Y-58750000D03*
X192900000Y-60000000D03*
X190900000Y-61250000D03*
X192900000Y-62500000D03*
X190900000Y-63750000D03*
X192900000Y-65000000D03*
X190900000Y-66250000D03*
X192900000Y-67500000D03*
X190900000Y-68750000D03*
X192900000Y-70000000D03*
X107000000Y-70000000D03*
X109000000Y-68750000D03*
X107000000Y-67500000D03*
X109000000Y-66250000D03*
X107000000Y-65000000D03*
X109000000Y-63750000D03*
X107000000Y-62500000D03*
X109000000Y-61250000D03*
X107000000Y-60000000D03*
X109000000Y-58750000D03*
X107000000Y-57500000D03*
X109000000Y-56250000D03*
X107000000Y-55000000D03*
D16*
X198300000Y-103000000D03*
X194950000Y-103000000D03*
X193300000Y-104250000D03*
X198300000Y-105500000D03*
X194950000Y-105500000D03*
X193300000Y-106750000D03*
X198300000Y-108000000D03*
X194950000Y-108000000D03*
X193300000Y-109250000D03*
X198300000Y-110500000D03*
X194950000Y-110500000D03*
X193300000Y-111750000D03*
X198300000Y-113000000D03*
X194950000Y-113000000D03*
X193300000Y-114250000D03*
X198300000Y-115500000D03*
X194950000Y-115500000D03*
X193300000Y-116750000D03*
X198300000Y-118000000D03*
X194950000Y-118000000D03*
X101800000Y-118000000D03*
X105150000Y-118000000D03*
X106800000Y-116750000D03*
X101800000Y-115500000D03*
X105150000Y-115500000D03*
X106800000Y-114250000D03*
X101800000Y-113000000D03*
X105150000Y-113000000D03*
X106800000Y-111750000D03*
X101800000Y-110500000D03*
X105150000Y-110500000D03*
X106800000Y-109250000D03*
X101800000Y-108000000D03*
X105150000Y-108000000D03*
X106800000Y-106750000D03*
X101800000Y-105500000D03*
X105150000Y-105500000D03*
X106800000Y-104250000D03*
X101800000Y-103000000D03*
X105150000Y-103000000D03*
D17*
X173800000Y-129000000D03*
D18*
X176340000Y-129000000D03*
X178880000Y-129000000D03*
X181420000Y-129000000D03*
X183960000Y-129000000D03*
X186500000Y-129000000D03*
X189040000Y-129000000D03*
X191580000Y-129000000D03*
X194120000Y-129000000D03*
X196660000Y-129000000D03*
D17*
X126200000Y-129000000D03*
D18*
X123660000Y-129000000D03*
X121120000Y-129000000D03*
X118580000Y-129000000D03*
X116040000Y-129000000D03*
X113500000Y-129000000D03*
X110960000Y-129000000D03*
X108420000Y-129000000D03*
X105880000Y-129000000D03*
X103340000Y-129000000D03*
D19*
X150000000Y-74500000D03*
D20*
X109700000Y-97600000D03*
X190300000Y-97600000D03*
D21*
X178657000Y-126590000D03*
X179907000Y-124940000D03*
X181157000Y-126590000D03*
X182407000Y-124940000D03*
X183657000Y-126590000D03*
X184907000Y-124940000D03*
X186157000Y-126590000D03*
X187407000Y-124940000D03*
X188657000Y-126590000D03*
X189907000Y-124940000D03*
X191157000Y-126590000D03*
X192407000Y-124940000D03*
X193657000Y-126590000D03*
D22*
X140450000Y-55675000D03*
X133950000Y-55675000D03*
X140450000Y-60175000D03*
X133950000Y-60175000D03*
D21*
X106013000Y-126590000D03*
X107263000Y-124940000D03*
X108513000Y-126590000D03*
X109763000Y-124940000D03*
X111013000Y-126590000D03*
X112263000Y-124940000D03*
X113513000Y-126590000D03*
X114763000Y-124940000D03*
X116013000Y-126590000D03*
X117263000Y-124940000D03*
X118513000Y-126590000D03*
X119763000Y-124940000D03*
X121013000Y-126590000D03*
D23*
X147637500Y-98583750D03*
D14*
X145097500Y-98583750D03*
X142557500Y-98583750D03*
X140017500Y-98583750D03*
X137477500Y-98583750D03*
X134937500Y-98583750D03*
X132397500Y-98583750D03*
X129857500Y-98583750D03*
X127317500Y-98583750D03*
X124777500Y-98583750D03*
X122237500Y-98583750D03*
X119697500Y-98583750D03*
X119697500Y-83343750D03*
X122237500Y-83343750D03*
X124777500Y-83343750D03*
X127317500Y-83343750D03*
X129857500Y-83343750D03*
X132397500Y-83343750D03*
X134937500Y-83343750D03*
X137477500Y-83343750D03*
X140017500Y-83343750D03*
X142557500Y-83343750D03*
X145097500Y-83343750D03*
X147637500Y-83343750D03*
X124777500Y-96043750D03*
X124777500Y-93503750D03*
X124777500Y-90963750D03*
D24*
X145040000Y-125850000D03*
D25*
X145040000Y-128400000D03*
X145040000Y-120600000D03*
D24*
X145040000Y-123150000D03*
D22*
X150000000Y-60000000D03*
D17*
X161650000Y-60200000D03*
D12*
X159110000Y-60200000D03*
G36*
G01*
X168825000Y-127350000D02*
X168825000Y-128850000D01*
G75*
G02*
X168575000Y-129100000I-250000J0D01*
G01*
X167075000Y-129100000D01*
G75*
G02*
X166825000Y-128850000I0J250000D01*
G01*
X166825000Y-127350000D01*
G75*
G02*
X167075000Y-127100000I250000J0D01*
G01*
X168575000Y-127100000D01*
G75*
G02*
X168825000Y-127350000I0J-250000D01*
G01*
G37*
D22*
X165285000Y-128100000D03*
G36*
G01*
X173925000Y-59575000D02*
X173925000Y-61075000D01*
G75*
G02*
X173675000Y-61325000I-250000J0D01*
G01*
X172175000Y-61325000D01*
G75*
G02*
X171925000Y-61075000I0J250000D01*
G01*
X171925000Y-59575000D01*
G75*
G02*
X172175000Y-59325000I250000J0D01*
G01*
X173675000Y-59325000D01*
G75*
G02*
X173925000Y-59575000I0J-250000D01*
G01*
G37*
X170385000Y-60325000D03*
D24*
X135040000Y-125850000D03*
D25*
X135040000Y-128400000D03*
X135040000Y-120600000D03*
D24*
X135040000Y-123150000D03*
D26*
X135875000Y-76993750D03*
D27*
X133335000Y-76993750D03*
X130795000Y-76993750D03*
X128255000Y-76993750D03*
X125715000Y-76993750D03*
X123175000Y-76993750D03*
X120635000Y-76993750D03*
X118095000Y-76993750D03*
X118095000Y-69373750D03*
X120635000Y-69373750D03*
X123175000Y-69373750D03*
X125715000Y-69373750D03*
X128255000Y-69373750D03*
X130795000Y-69373750D03*
X133335000Y-69373750D03*
X135875000Y-69373750D03*
D25*
X161650000Y-56000000D03*
D27*
X154030000Y-56000000D03*
M02*
